<svg width="988" height="416" viewBox="0 0 988 416" fill="none" xmlns="http://www.w3.org/2000/svg">
<g filter="url(#filter0_f_559_373)">
<rect x="160.5" y="160" width="667" height="96" fill="url(#paint0_linear_559_373)"/>
</g>
<g filter="url(#filter1_f_559_373)">
<path d="M196.728 229.416V218.408C186.317 217.811 178.253 215.037 172.536 210.088C166.819 205.053 163.832 198.227 163.576 189.608H180.984C181.581 194.131 183.117 197.587 185.592 199.976C188.152 202.28 191.864 203.688 196.728 204.2V179.88C196.387 179.88 196.173 179.837 196.088 179.752C192.333 178.899 189.261 178.131 186.872 177.448C184.483 176.765 181.795 175.741 178.808 174.376C175.907 172.925 173.603 171.389 171.896 169.768C170.275 168.061 168.867 165.843 167.672 163.112C166.563 160.296 166.008 157.139 166.008 153.64C166.008 145.619 168.781 139.347 174.328 134.824C179.96 130.301 187.427 127.827 196.728 127.4V119.848H204.408V127.528C213.112 128.296 219.981 131.027 225.016 135.72C230.136 140.328 232.995 146.643 233.592 154.664H216.568C215.715 147.667 211.661 143.443 204.408 141.992V164.136C204.579 164.221 204.835 164.264 205.176 164.264C209.869 165.203 213.837 166.227 217.08 167.336C220.323 168.445 223.48 169.981 226.552 171.944C229.624 173.907 231.928 176.467 233.464 179.624C235 182.781 235.768 186.536 235.768 190.888C235.768 199.251 232.867 205.864 227.064 210.728C221.347 215.507 213.795 218.109 204.408 218.536V229.416H196.728ZM217.848 193.064C217.848 189.992 216.739 187.645 214.52 186.024C212.387 184.403 209.016 182.995 204.408 181.8V204.2C208.419 203.773 211.661 202.664 214.136 200.872C216.611 198.995 217.848 196.392 217.848 193.064ZM187.256 144.936C184.952 146.643 183.8 148.904 183.8 151.72C183.8 154.536 184.781 156.755 186.744 158.376C188.792 159.912 192.12 161.277 196.728 162.472V141.608C192.717 142.035 189.56 143.144 187.256 144.936ZM241.433 217C241.604 211.795 242.841 206.888 245.145 202.28C247.449 197.587 249.924 193.832 252.569 191.016C255.3 188.2 258.628 185.256 262.553 182.184C263.918 181.075 266.052 179.453 268.953 177.32C271.94 175.187 274.158 173.523 275.609 172.328C277.06 171.133 278.681 169.64 280.473 167.848C282.35 165.971 283.673 164.093 284.441 162.216C285.209 160.253 285.593 158.205 285.593 156.072C285.593 151.891 284.526 148.563 282.393 146.088C280.26 143.613 277.273 142.376 273.433 142.376C268.996 142.376 265.497 143.912 262.937 146.984C260.462 150.056 259.182 154.451 259.097 160.168H242.713C242.713 149.928 245.316 141.949 250.521 136.232C255.812 130.429 263.577 127.528 273.817 127.528C283.033 127.528 290.286 130.216 295.577 135.592C300.953 140.968 303.641 147.624 303.641 155.56C303.641 159.485 303.044 163.069 301.849 166.312C300.74 169.469 298.948 172.371 296.473 175.016C293.998 177.661 291.78 179.752 289.817 181.288C287.854 182.824 285.124 184.744 281.625 187.048C272.068 193.192 266.18 198.397 263.961 202.664H304.409V217H241.433ZM311.561 238.248V231.976C317.705 228.819 320.777 223.827 320.777 217H311.433V198.44H330.121V215.976C330.121 222.12 328.329 227.112 324.745 230.952C321.246 234.877 316.852 237.309 311.561 238.248ZM375.065 217V197.928H334.617V179.112L374.425 128.296H392.089V183.976H405.401V197.928H392.089V217H375.065ZM348.697 183.592V183.976H375.065V149.928H374.809L348.697 183.592ZM446.838 219.048C435.659 219.048 426.742 214.909 420.086 206.632C413.515 198.355 410.23 187.219 410.23 173.224C410.23 159.229 413.558 148.093 420.214 139.816C426.87 131.539 435.787 127.4 446.966 127.4C458.23 127.4 467.105 131.539 473.59 139.816C480.161 148.008 483.446 159.144 483.446 173.224C483.446 187.219 480.161 198.355 473.59 206.632C467.105 214.909 458.187 219.048 446.838 219.048ZM446.966 204.2C459.169 204.2 465.27 193.875 465.27 173.224C465.27 163.496 463.777 155.901 460.79 150.44C457.803 144.979 453.195 142.248 446.966 142.248C440.651 142.248 435.958 144.979 432.886 150.44C429.899 155.901 428.406 163.496 428.406 173.224C428.406 182.952 429.899 190.547 432.886 196.008C435.958 201.469 440.651 204.2 446.966 204.2ZM526.433 219.048C515.254 219.048 506.337 214.909 499.681 206.632C493.11 198.355 489.825 187.219 489.825 173.224C489.825 159.229 493.153 148.093 499.809 139.816C506.465 131.539 515.382 127.4 526.561 127.4C537.825 127.4 546.7 131.539 553.185 139.816C559.756 148.008 563.041 159.144 563.041 173.224C563.041 187.219 559.756 198.355 553.185 206.632C546.7 214.909 537.782 219.048 526.433 219.048ZM526.561 204.2C538.764 204.2 544.865 193.875 544.865 173.224C544.865 163.496 543.372 155.901 540.385 150.44C537.398 144.979 532.79 142.248 526.561 142.248C520.246 142.248 515.553 144.979 512.481 150.44C509.494 155.901 508.001 163.496 508.001 173.224C508.001 182.952 509.494 190.547 512.481 196.008C515.553 201.469 520.246 204.2 526.561 204.2ZM567.816 238.248V231.976C573.96 228.819 577.032 223.827 577.032 217H567.688V198.44H586.376V215.976C586.376 222.12 584.584 227.112 581 230.952C577.501 234.877 573.107 237.309 567.816 238.248ZM627.623 219.048C616.444 219.048 607.527 214.909 600.871 206.632C594.3 198.355 591.015 187.219 591.015 173.224C591.015 159.229 594.343 148.093 600.999 139.816C607.655 131.539 616.572 127.4 627.751 127.4C639.015 127.4 647.89 131.539 654.375 139.816C660.946 148.008 664.231 159.144 664.231 173.224C664.231 187.219 660.946 198.355 654.375 206.632C647.89 214.909 638.972 219.048 627.623 219.048ZM627.751 204.2C639.954 204.2 646.055 193.875 646.055 173.224C646.055 163.496 644.562 155.901 641.575 150.44C638.588 144.979 633.98 142.248 627.751 142.248C621.436 142.248 616.743 144.979 613.671 150.44C610.684 155.901 609.191 163.496 609.191 173.224C609.191 182.952 610.684 190.547 613.671 196.008C616.743 201.469 621.436 204.2 627.751 204.2ZM707.218 219.048C696.039 219.048 687.122 214.909 680.466 206.632C673.895 198.355 670.61 187.219 670.61 173.224C670.61 159.229 673.938 148.093 680.594 139.816C687.25 131.539 696.167 127.4 707.346 127.4C718.61 127.4 727.485 131.539 733.97 139.816C740.541 148.008 743.826 159.144 743.826 173.224C743.826 187.219 740.541 198.355 733.97 206.632C727.485 214.909 718.567 219.048 707.218 219.048ZM707.346 204.2C719.549 204.2 725.65 193.875 725.65 173.224C725.65 163.496 724.157 155.901 721.17 150.44C718.183 144.979 713.575 142.248 707.346 142.248C701.031 142.248 696.338 144.979 693.266 150.44C690.279 155.901 688.786 163.496 688.786 173.224C688.786 182.952 690.279 190.547 693.266 196.008C696.338 201.469 701.031 204.2 707.346 204.2ZM786.813 219.048C775.634 219.048 766.717 214.909 760.061 206.632C753.49 198.355 750.205 187.219 750.205 173.224C750.205 159.229 753.533 148.093 760.189 139.816C766.845 131.539 775.762 127.4 786.941 127.4C798.205 127.4 807.08 131.539 813.565 139.816C820.136 148.008 823.421 159.144 823.421 173.224C823.421 187.219 820.136 198.355 813.565 206.632C807.08 214.909 798.162 219.048 786.813 219.048ZM786.941 204.2C799.144 204.2 805.245 193.875 805.245 173.224C805.245 163.496 803.752 155.901 800.765 150.44C797.778 144.979 793.17 142.248 786.941 142.248C780.626 142.248 775.933 144.979 772.861 150.44C769.874 155.901 768.381 163.496 768.381 173.224C768.381 182.952 769.874 190.547 772.861 196.008C775.933 201.469 780.626 204.2 786.941 204.2Z" fill="url(#paint1_linear_559_373)"/>
</g>
<g filter="url(#filter2_f_559_373)">
<path d="M196.728 229.416V218.408C186.317 217.811 178.253 215.037 172.536 210.088C166.819 205.053 163.832 198.227 163.576 189.608H180.984C181.581 194.131 183.117 197.587 185.592 199.976C188.152 202.28 191.864 203.688 196.728 204.2V179.88C196.387 179.88 196.173 179.837 196.088 179.752C192.333 178.899 189.261 178.131 186.872 177.448C184.483 176.765 181.795 175.741 178.808 174.376C175.907 172.925 173.603 171.389 171.896 169.768C170.275 168.061 168.867 165.843 167.672 163.112C166.563 160.296 166.008 157.139 166.008 153.64C166.008 145.619 168.781 139.347 174.328 134.824C179.96 130.301 187.427 127.827 196.728 127.4V119.848H204.408V127.528C213.112 128.296 219.981 131.027 225.016 135.72C230.136 140.328 232.995 146.643 233.592 154.664H216.568C215.715 147.667 211.661 143.443 204.408 141.992V164.136C204.579 164.221 204.835 164.264 205.176 164.264C209.869 165.203 213.837 166.227 217.08 167.336C220.323 168.445 223.48 169.981 226.552 171.944C229.624 173.907 231.928 176.467 233.464 179.624C235 182.781 235.768 186.536 235.768 190.888C235.768 199.251 232.867 205.864 227.064 210.728C221.347 215.507 213.795 218.109 204.408 218.536V229.416H196.728ZM217.848 193.064C217.848 189.992 216.739 187.645 214.52 186.024C212.387 184.403 209.016 182.995 204.408 181.8V204.2C208.419 203.773 211.661 202.664 214.136 200.872C216.611 198.995 217.848 196.392 217.848 193.064ZM187.256 144.936C184.952 146.643 183.8 148.904 183.8 151.72C183.8 154.536 184.781 156.755 186.744 158.376C188.792 159.912 192.12 161.277 196.728 162.472V141.608C192.717 142.035 189.56 143.144 187.256 144.936ZM241.433 217C241.604 211.795 242.841 206.888 245.145 202.28C247.449 197.587 249.924 193.832 252.569 191.016C255.3 188.2 258.628 185.256 262.553 182.184C263.918 181.075 266.052 179.453 268.953 177.32C271.94 175.187 274.158 173.523 275.609 172.328C277.06 171.133 278.681 169.64 280.473 167.848C282.35 165.971 283.673 164.093 284.441 162.216C285.209 160.253 285.593 158.205 285.593 156.072C285.593 151.891 284.526 148.563 282.393 146.088C280.26 143.613 277.273 142.376 273.433 142.376C268.996 142.376 265.497 143.912 262.937 146.984C260.462 150.056 259.182 154.451 259.097 160.168H242.713C242.713 149.928 245.316 141.949 250.521 136.232C255.812 130.429 263.577 127.528 273.817 127.528C283.033 127.528 290.286 130.216 295.577 135.592C300.953 140.968 303.641 147.624 303.641 155.56C303.641 159.485 303.044 163.069 301.849 166.312C300.74 169.469 298.948 172.371 296.473 175.016C293.998 177.661 291.78 179.752 289.817 181.288C287.854 182.824 285.124 184.744 281.625 187.048C272.068 193.192 266.18 198.397 263.961 202.664H304.409V217H241.433ZM311.561 238.248V231.976C317.705 228.819 320.777 223.827 320.777 217H311.433V198.44H330.121V215.976C330.121 222.12 328.329 227.112 324.745 230.952C321.246 234.877 316.852 237.309 311.561 238.248ZM375.065 217V197.928H334.617V179.112L374.425 128.296H392.089V183.976H405.401V197.928H392.089V217H375.065ZM348.697 183.592V183.976H375.065V149.928H374.809L348.697 183.592ZM446.838 219.048C435.659 219.048 426.742 214.909 420.086 206.632C413.515 198.355 410.23 187.219 410.23 173.224C410.23 159.229 413.558 148.093 420.214 139.816C426.87 131.539 435.787 127.4 446.966 127.4C458.23 127.4 467.105 131.539 473.59 139.816C480.161 148.008 483.446 159.144 483.446 173.224C483.446 187.219 480.161 198.355 473.59 206.632C467.105 214.909 458.187 219.048 446.838 219.048ZM446.966 204.2C459.169 204.2 465.27 193.875 465.27 173.224C465.27 163.496 463.777 155.901 460.79 150.44C457.803 144.979 453.195 142.248 446.966 142.248C440.651 142.248 435.958 144.979 432.886 150.44C429.899 155.901 428.406 163.496 428.406 173.224C428.406 182.952 429.899 190.547 432.886 196.008C435.958 201.469 440.651 204.2 446.966 204.2ZM526.433 219.048C515.254 219.048 506.337 214.909 499.681 206.632C493.11 198.355 489.825 187.219 489.825 173.224C489.825 159.229 493.153 148.093 499.809 139.816C506.465 131.539 515.382 127.4 526.561 127.4C537.825 127.4 546.7 131.539 553.185 139.816C559.756 148.008 563.041 159.144 563.041 173.224C563.041 187.219 559.756 198.355 553.185 206.632C546.7 214.909 537.782 219.048 526.433 219.048ZM526.561 204.2C538.764 204.2 544.865 193.875 544.865 173.224C544.865 163.496 543.372 155.901 540.385 150.44C537.398 144.979 532.79 142.248 526.561 142.248C520.246 142.248 515.553 144.979 512.481 150.44C509.494 155.901 508.001 163.496 508.001 173.224C508.001 182.952 509.494 190.547 512.481 196.008C515.553 201.469 520.246 204.2 526.561 204.2ZM567.816 238.248V231.976C573.96 228.819 577.032 223.827 577.032 217H567.688V198.44H586.376V215.976C586.376 222.12 584.584 227.112 581 230.952C577.501 234.877 573.107 237.309 567.816 238.248ZM627.623 219.048C616.444 219.048 607.527 214.909 600.871 206.632C594.3 198.355 591.015 187.219 591.015 173.224C591.015 159.229 594.343 148.093 600.999 139.816C607.655 131.539 616.572 127.4 627.751 127.4C639.015 127.4 647.89 131.539 654.375 139.816C660.946 148.008 664.231 159.144 664.231 173.224C664.231 187.219 660.946 198.355 654.375 206.632C647.89 214.909 638.972 219.048 627.623 219.048ZM627.751 204.2C639.954 204.2 646.055 193.875 646.055 173.224C646.055 163.496 644.562 155.901 641.575 150.44C638.588 144.979 633.98 142.248 627.751 142.248C621.436 142.248 616.743 144.979 613.671 150.44C610.684 155.901 609.191 163.496 609.191 173.224C609.191 182.952 610.684 190.547 613.671 196.008C616.743 201.469 621.436 204.2 627.751 204.2ZM707.218 219.048C696.039 219.048 687.122 214.909 680.466 206.632C673.895 198.355 670.61 187.219 670.61 173.224C670.61 159.229 673.938 148.093 680.594 139.816C687.25 131.539 696.167 127.4 707.346 127.4C718.61 127.4 727.485 131.539 733.97 139.816C740.541 148.008 743.826 159.144 743.826 173.224C743.826 187.219 740.541 198.355 733.97 206.632C727.485 214.909 718.567 219.048 707.218 219.048ZM707.346 204.2C719.549 204.2 725.65 193.875 725.65 173.224C725.65 163.496 724.157 155.901 721.17 150.44C718.183 144.979 713.575 142.248 707.346 142.248C701.031 142.248 696.338 144.979 693.266 150.44C690.279 155.901 688.786 163.496 688.786 173.224C688.786 182.952 690.279 190.547 693.266 196.008C696.338 201.469 701.031 204.2 707.346 204.2ZM786.813 219.048C775.634 219.048 766.717 214.909 760.061 206.632C753.49 198.355 750.205 187.219 750.205 173.224C750.205 159.229 753.533 148.093 760.189 139.816C766.845 131.539 775.762 127.4 786.941 127.4C798.205 127.4 807.08 131.539 813.565 139.816C820.136 148.008 823.421 159.144 823.421 173.224C823.421 187.219 820.136 198.355 813.565 206.632C807.08 214.909 798.162 219.048 786.813 219.048ZM786.941 204.2C799.144 204.2 805.245 193.875 805.245 173.224C805.245 163.496 803.752 155.901 800.765 150.44C797.778 144.979 793.17 142.248 786.941 142.248C780.626 142.248 775.933 144.979 772.861 150.44C769.874 155.901 768.381 163.496 768.381 173.224C768.381 182.952 769.874 190.547 772.861 196.008C775.933 201.469 780.626 204.2 786.941 204.2Z" fill="url(#paint2_linear_559_373)"/>
</g>
<g filter="url(#filter3_f_559_373)">
<path d="M196.728 229.416V218.408C186.317 217.811 178.253 215.037 172.536 210.088C166.819 205.053 163.832 198.227 163.576 189.608H180.984C181.581 194.131 183.117 197.587 185.592 199.976C188.152 202.28 191.864 203.688 196.728 204.2V179.88C196.387 179.88 196.173 179.837 196.088 179.752C192.333 178.899 189.261 178.131 186.872 177.448C184.483 176.765 181.795 175.741 178.808 174.376C175.907 172.925 173.603 171.389 171.896 169.768C170.275 168.061 168.867 165.843 167.672 163.112C166.563 160.296 166.008 157.139 166.008 153.64C166.008 145.619 168.781 139.347 174.328 134.824C179.96 130.301 187.427 127.827 196.728 127.4V119.848H204.408V127.528C213.112 128.296 219.981 131.027 225.016 135.72C230.136 140.328 232.995 146.643 233.592 154.664H216.568C215.715 147.667 211.661 143.443 204.408 141.992V164.136C204.579 164.221 204.835 164.264 205.176 164.264C209.869 165.203 213.837 166.227 217.08 167.336C220.323 168.445 223.48 169.981 226.552 171.944C229.624 173.907 231.928 176.467 233.464 179.624C235 182.781 235.768 186.536 235.768 190.888C235.768 199.251 232.867 205.864 227.064 210.728C221.347 215.507 213.795 218.109 204.408 218.536V229.416H196.728ZM217.848 193.064C217.848 189.992 216.739 187.645 214.52 186.024C212.387 184.403 209.016 182.995 204.408 181.8V204.2C208.419 203.773 211.661 202.664 214.136 200.872C216.611 198.995 217.848 196.392 217.848 193.064ZM187.256 144.936C184.952 146.643 183.8 148.904 183.8 151.72C183.8 154.536 184.781 156.755 186.744 158.376C188.792 159.912 192.12 161.277 196.728 162.472V141.608C192.717 142.035 189.56 143.144 187.256 144.936ZM241.433 217C241.604 211.795 242.841 206.888 245.145 202.28C247.449 197.587 249.924 193.832 252.569 191.016C255.3 188.2 258.628 185.256 262.553 182.184C263.918 181.075 266.052 179.453 268.953 177.32C271.94 175.187 274.158 173.523 275.609 172.328C277.06 171.133 278.681 169.64 280.473 167.848C282.35 165.971 283.673 164.093 284.441 162.216C285.209 160.253 285.593 158.205 285.593 156.072C285.593 151.891 284.526 148.563 282.393 146.088C280.26 143.613 277.273 142.376 273.433 142.376C268.996 142.376 265.497 143.912 262.937 146.984C260.462 150.056 259.182 154.451 259.097 160.168H242.713C242.713 149.928 245.316 141.949 250.521 136.232C255.812 130.429 263.577 127.528 273.817 127.528C283.033 127.528 290.286 130.216 295.577 135.592C300.953 140.968 303.641 147.624 303.641 155.56C303.641 159.485 303.044 163.069 301.849 166.312C300.74 169.469 298.948 172.371 296.473 175.016C293.998 177.661 291.78 179.752 289.817 181.288C287.854 182.824 285.124 184.744 281.625 187.048C272.068 193.192 266.18 198.397 263.961 202.664H304.409V217H241.433ZM311.561 238.248V231.976C317.705 228.819 320.777 223.827 320.777 217H311.433V198.44H330.121V215.976C330.121 222.12 328.329 227.112 324.745 230.952C321.246 234.877 316.852 237.309 311.561 238.248ZM375.065 217V197.928H334.617V179.112L374.425 128.296H392.089V183.976H405.401V197.928H392.089V217H375.065ZM348.697 183.592V183.976H375.065V149.928H374.809L348.697 183.592ZM446.838 219.048C435.659 219.048 426.742 214.909 420.086 206.632C413.515 198.355 410.23 187.219 410.23 173.224C410.23 159.229 413.558 148.093 420.214 139.816C426.87 131.539 435.787 127.4 446.966 127.4C458.23 127.4 467.105 131.539 473.59 139.816C480.161 148.008 483.446 159.144 483.446 173.224C483.446 187.219 480.161 198.355 473.59 206.632C467.105 214.909 458.187 219.048 446.838 219.048ZM446.966 204.2C459.169 204.2 465.27 193.875 465.27 173.224C465.27 163.496 463.777 155.901 460.79 150.44C457.803 144.979 453.195 142.248 446.966 142.248C440.651 142.248 435.958 144.979 432.886 150.44C429.899 155.901 428.406 163.496 428.406 173.224C428.406 182.952 429.899 190.547 432.886 196.008C435.958 201.469 440.651 204.2 446.966 204.2ZM526.433 219.048C515.254 219.048 506.337 214.909 499.681 206.632C493.11 198.355 489.825 187.219 489.825 173.224C489.825 159.229 493.153 148.093 499.809 139.816C506.465 131.539 515.382 127.4 526.561 127.4C537.825 127.4 546.7 131.539 553.185 139.816C559.756 148.008 563.041 159.144 563.041 173.224C563.041 187.219 559.756 198.355 553.185 206.632C546.7 214.909 537.782 219.048 526.433 219.048ZM526.561 204.2C538.764 204.2 544.865 193.875 544.865 173.224C544.865 163.496 543.372 155.901 540.385 150.44C537.398 144.979 532.79 142.248 526.561 142.248C520.246 142.248 515.553 144.979 512.481 150.44C509.494 155.901 508.001 163.496 508.001 173.224C508.001 182.952 509.494 190.547 512.481 196.008C515.553 201.469 520.246 204.2 526.561 204.2ZM567.816 238.248V231.976C573.96 228.819 577.032 223.827 577.032 217H567.688V198.44H586.376V215.976C586.376 222.12 584.584 227.112 581 230.952C577.501 234.877 573.107 237.309 567.816 238.248ZM627.623 219.048C616.444 219.048 607.527 214.909 600.871 206.632C594.3 198.355 591.015 187.219 591.015 173.224C591.015 159.229 594.343 148.093 600.999 139.816C607.655 131.539 616.572 127.4 627.751 127.4C639.015 127.4 647.89 131.539 654.375 139.816C660.946 148.008 664.231 159.144 664.231 173.224C664.231 187.219 660.946 198.355 654.375 206.632C647.89 214.909 638.972 219.048 627.623 219.048ZM627.751 204.2C639.954 204.2 646.055 193.875 646.055 173.224C646.055 163.496 644.562 155.901 641.575 150.44C638.588 144.979 633.98 142.248 627.751 142.248C621.436 142.248 616.743 144.979 613.671 150.44C610.684 155.901 609.191 163.496 609.191 173.224C609.191 182.952 610.684 190.547 613.671 196.008C616.743 201.469 621.436 204.2 627.751 204.2ZM707.218 219.048C696.039 219.048 687.122 214.909 680.466 206.632C673.895 198.355 670.61 187.219 670.61 173.224C670.61 159.229 673.938 148.093 680.594 139.816C687.25 131.539 696.167 127.4 707.346 127.4C718.61 127.4 727.485 131.539 733.97 139.816C740.541 148.008 743.826 159.144 743.826 173.224C743.826 187.219 740.541 198.355 733.97 206.632C727.485 214.909 718.567 219.048 707.218 219.048ZM707.346 204.2C719.549 204.2 725.65 193.875 725.65 173.224C725.65 163.496 724.157 155.901 721.17 150.44C718.183 144.979 713.575 142.248 707.346 142.248C701.031 142.248 696.338 144.979 693.266 150.44C690.279 155.901 688.786 163.496 688.786 173.224C688.786 182.952 690.279 190.547 693.266 196.008C696.338 201.469 701.031 204.2 707.346 204.2ZM786.813 219.048C775.634 219.048 766.717 214.909 760.061 206.632C753.49 198.355 750.205 187.219 750.205 173.224C750.205 159.229 753.533 148.093 760.189 139.816C766.845 131.539 775.762 127.4 786.941 127.4C798.205 127.4 807.08 131.539 813.565 139.816C820.136 148.008 823.421 159.144 823.421 173.224C823.421 187.219 820.136 198.355 813.565 206.632C807.08 214.909 798.162 219.048 786.813 219.048ZM786.941 204.2C799.144 204.2 805.245 193.875 805.245 173.224C805.245 163.496 803.752 155.901 800.765 150.44C797.778 144.979 793.17 142.248 786.941 142.248C780.626 142.248 775.933 144.979 772.861 150.44C769.874 155.901 768.381 163.496 768.381 173.224C768.381 182.952 769.874 190.547 772.861 196.008C775.933 201.469 780.626 204.2 786.941 204.2Z" fill="url(#paint3_linear_559_373)"/>
</g>
<g filter="url(#filter4_f_559_373)">
<path d="M196.728 229.416V218.408C186.317 217.811 178.253 215.037 172.536 210.088C166.819 205.053 163.832 198.227 163.576 189.608H180.984C181.581 194.131 183.117 197.587 185.592 199.976C188.152 202.28 191.864 203.688 196.728 204.2V179.88C196.387 179.88 196.173 179.837 196.088 179.752C192.333 178.899 189.261 178.131 186.872 177.448C184.483 176.765 181.795 175.741 178.808 174.376C175.907 172.925 173.603 171.389 171.896 169.768C170.275 168.061 168.867 165.843 167.672 163.112C166.563 160.296 166.008 157.139 166.008 153.64C166.008 145.619 168.781 139.347 174.328 134.824C179.96 130.301 187.427 127.827 196.728 127.4V119.848H204.408V127.528C213.112 128.296 219.981 131.027 225.016 135.72C230.136 140.328 232.995 146.643 233.592 154.664H216.568C215.715 147.667 211.661 143.443 204.408 141.992V164.136C204.579 164.221 204.835 164.264 205.176 164.264C209.869 165.203 213.837 166.227 217.08 167.336C220.323 168.445 223.48 169.981 226.552 171.944C229.624 173.907 231.928 176.467 233.464 179.624C235 182.781 235.768 186.536 235.768 190.888C235.768 199.251 232.867 205.864 227.064 210.728C221.347 215.507 213.795 218.109 204.408 218.536V229.416H196.728ZM217.848 193.064C217.848 189.992 216.739 187.645 214.52 186.024C212.387 184.403 209.016 182.995 204.408 181.8V204.2C208.419 203.773 211.661 202.664 214.136 200.872C216.611 198.995 217.848 196.392 217.848 193.064ZM187.256 144.936C184.952 146.643 183.8 148.904 183.8 151.72C183.8 154.536 184.781 156.755 186.744 158.376C188.792 159.912 192.12 161.277 196.728 162.472V141.608C192.717 142.035 189.56 143.144 187.256 144.936ZM241.433 217C241.604 211.795 242.841 206.888 245.145 202.28C247.449 197.587 249.924 193.832 252.569 191.016C255.3 188.2 258.628 185.256 262.553 182.184C263.918 181.075 266.052 179.453 268.953 177.32C271.94 175.187 274.158 173.523 275.609 172.328C277.06 171.133 278.681 169.64 280.473 167.848C282.35 165.971 283.673 164.093 284.441 162.216C285.209 160.253 285.593 158.205 285.593 156.072C285.593 151.891 284.526 148.563 282.393 146.088C280.26 143.613 277.273 142.376 273.433 142.376C268.996 142.376 265.497 143.912 262.937 146.984C260.462 150.056 259.182 154.451 259.097 160.168H242.713C242.713 149.928 245.316 141.949 250.521 136.232C255.812 130.429 263.577 127.528 273.817 127.528C283.033 127.528 290.286 130.216 295.577 135.592C300.953 140.968 303.641 147.624 303.641 155.56C303.641 159.485 303.044 163.069 301.849 166.312C300.74 169.469 298.948 172.371 296.473 175.016C293.998 177.661 291.78 179.752 289.817 181.288C287.854 182.824 285.124 184.744 281.625 187.048C272.068 193.192 266.18 198.397 263.961 202.664H304.409V217H241.433ZM311.561 238.248V231.976C317.705 228.819 320.777 223.827 320.777 217H311.433V198.44H330.121V215.976C330.121 222.12 328.329 227.112 324.745 230.952C321.246 234.877 316.852 237.309 311.561 238.248ZM375.065 217V197.928H334.617V179.112L374.425 128.296H392.089V183.976H405.401V197.928H392.089V217H375.065ZM348.697 183.592V183.976H375.065V149.928H374.809L348.697 183.592ZM446.838 219.048C435.659 219.048 426.742 214.909 420.086 206.632C413.515 198.355 410.23 187.219 410.23 173.224C410.23 159.229 413.558 148.093 420.214 139.816C426.87 131.539 435.787 127.4 446.966 127.4C458.23 127.4 467.105 131.539 473.59 139.816C480.161 148.008 483.446 159.144 483.446 173.224C483.446 187.219 480.161 198.355 473.59 206.632C467.105 214.909 458.187 219.048 446.838 219.048ZM446.966 204.2C459.169 204.2 465.27 193.875 465.27 173.224C465.27 163.496 463.777 155.901 460.79 150.44C457.803 144.979 453.195 142.248 446.966 142.248C440.651 142.248 435.958 144.979 432.886 150.44C429.899 155.901 428.406 163.496 428.406 173.224C428.406 182.952 429.899 190.547 432.886 196.008C435.958 201.469 440.651 204.2 446.966 204.2ZM526.433 219.048C515.254 219.048 506.337 214.909 499.681 206.632C493.11 198.355 489.825 187.219 489.825 173.224C489.825 159.229 493.153 148.093 499.809 139.816C506.465 131.539 515.382 127.4 526.561 127.4C537.825 127.4 546.7 131.539 553.185 139.816C559.756 148.008 563.041 159.144 563.041 173.224C563.041 187.219 559.756 198.355 553.185 206.632C546.7 214.909 537.782 219.048 526.433 219.048ZM526.561 204.2C538.764 204.2 544.865 193.875 544.865 173.224C544.865 163.496 543.372 155.901 540.385 150.44C537.398 144.979 532.79 142.248 526.561 142.248C520.246 142.248 515.553 144.979 512.481 150.44C509.494 155.901 508.001 163.496 508.001 173.224C508.001 182.952 509.494 190.547 512.481 196.008C515.553 201.469 520.246 204.2 526.561 204.2ZM567.816 238.248V231.976C573.96 228.819 577.032 223.827 577.032 217H567.688V198.44H586.376V215.976C586.376 222.12 584.584 227.112 581 230.952C577.501 234.877 573.107 237.309 567.816 238.248ZM627.623 219.048C616.444 219.048 607.527 214.909 600.871 206.632C594.3 198.355 591.015 187.219 591.015 173.224C591.015 159.229 594.343 148.093 600.999 139.816C607.655 131.539 616.572 127.4 627.751 127.4C639.015 127.4 647.89 131.539 654.375 139.816C660.946 148.008 664.231 159.144 664.231 173.224C664.231 187.219 660.946 198.355 654.375 206.632C647.89 214.909 638.972 219.048 627.623 219.048ZM627.751 204.2C639.954 204.2 646.055 193.875 646.055 173.224C646.055 163.496 644.562 155.901 641.575 150.44C638.588 144.979 633.98 142.248 627.751 142.248C621.436 142.248 616.743 144.979 613.671 150.44C610.684 155.901 609.191 163.496 609.191 173.224C609.191 182.952 610.684 190.547 613.671 196.008C616.743 201.469 621.436 204.2 627.751 204.2ZM707.218 219.048C696.039 219.048 687.122 214.909 680.466 206.632C673.895 198.355 670.61 187.219 670.61 173.224C670.61 159.229 673.938 148.093 680.594 139.816C687.25 131.539 696.167 127.4 707.346 127.4C718.61 127.4 727.485 131.539 733.97 139.816C740.541 148.008 743.826 159.144 743.826 173.224C743.826 187.219 740.541 198.355 733.97 206.632C727.485 214.909 718.567 219.048 707.218 219.048ZM707.346 204.2C719.549 204.2 725.65 193.875 725.65 173.224C725.65 163.496 724.157 155.901 721.17 150.44C718.183 144.979 713.575 142.248 707.346 142.248C701.031 142.248 696.338 144.979 693.266 150.44C690.279 155.901 688.786 163.496 688.786 173.224C688.786 182.952 690.279 190.547 693.266 196.008C696.338 201.469 701.031 204.2 707.346 204.2ZM786.813 219.048C775.634 219.048 766.717 214.909 760.061 206.632C753.49 198.355 750.205 187.219 750.205 173.224C750.205 159.229 753.533 148.093 760.189 139.816C766.845 131.539 775.762 127.4 786.941 127.4C798.205 127.4 807.08 131.539 813.565 139.816C820.136 148.008 823.421 159.144 823.421 173.224C823.421 187.219 820.136 198.355 813.565 206.632C807.08 214.909 798.162 219.048 786.813 219.048ZM786.941 204.2C799.144 204.2 805.245 193.875 805.245 173.224C805.245 163.496 803.752 155.901 800.765 150.44C797.778 144.979 793.17 142.248 786.941 142.248C780.626 142.248 775.933 144.979 772.861 150.44C769.874 155.901 768.381 163.496 768.381 173.224C768.381 182.952 769.874 190.547 772.861 196.008C775.933 201.469 780.626 204.2 786.941 204.2Z" fill="url(#paint4_linear_559_373)"/>
</g>
<g filter="url(#filter5_f_559_373)">
<path opacity="0.25" d="M196.728 229.416V218.408C186.317 217.811 178.253 215.037 172.536 210.088C166.819 205.053 163.832 198.227 163.576 189.608H180.984C181.581 194.131 183.117 197.587 185.592 199.976C188.152 202.28 191.864 203.688 196.728 204.2V179.88C196.387 179.88 196.173 179.837 196.088 179.752C192.333 178.899 189.261 178.131 186.872 177.448C184.483 176.765 181.795 175.741 178.808 174.376C175.907 172.925 173.603 171.389 171.896 169.768C170.275 168.061 168.867 165.843 167.672 163.112C166.563 160.296 166.008 157.139 166.008 153.64C166.008 145.619 168.781 139.347 174.328 134.824C179.96 130.301 187.427 127.827 196.728 127.4V119.848H204.408V127.528C213.112 128.296 219.981 131.027 225.016 135.72C230.136 140.328 232.995 146.643 233.592 154.664H216.568C215.715 147.667 211.661 143.443 204.408 141.992V164.136C204.579 164.221 204.835 164.264 205.176 164.264C209.869 165.203 213.837 166.227 217.08 167.336C220.323 168.445 223.48 169.981 226.552 171.944C229.624 173.907 231.928 176.467 233.464 179.624C235 182.781 235.768 186.536 235.768 190.888C235.768 199.251 232.867 205.864 227.064 210.728C221.347 215.507 213.795 218.109 204.408 218.536V229.416H196.728ZM217.848 193.064C217.848 189.992 216.739 187.645 214.52 186.024C212.387 184.403 209.016 182.995 204.408 181.8V204.2C208.419 203.773 211.661 202.664 214.136 200.872C216.611 198.995 217.848 196.392 217.848 193.064ZM187.256 144.936C184.952 146.643 183.8 148.904 183.8 151.72C183.8 154.536 184.781 156.755 186.744 158.376C188.792 159.912 192.12 161.277 196.728 162.472V141.608C192.717 142.035 189.56 143.144 187.256 144.936ZM241.433 217C241.604 211.795 242.841 206.888 245.145 202.28C247.449 197.587 249.924 193.832 252.569 191.016C255.3 188.2 258.628 185.256 262.553 182.184C263.918 181.075 266.052 179.453 268.953 177.32C271.94 175.187 274.158 173.523 275.609 172.328C277.06 171.133 278.681 169.64 280.473 167.848C282.35 165.971 283.673 164.093 284.441 162.216C285.209 160.253 285.593 158.205 285.593 156.072C285.593 151.891 284.526 148.563 282.393 146.088C280.26 143.613 277.273 142.376 273.433 142.376C268.996 142.376 265.497 143.912 262.937 146.984C260.462 150.056 259.182 154.451 259.097 160.168H242.713C242.713 149.928 245.316 141.949 250.521 136.232C255.812 130.429 263.577 127.528 273.817 127.528C283.033 127.528 290.286 130.216 295.577 135.592C300.953 140.968 303.641 147.624 303.641 155.56C303.641 159.485 303.044 163.069 301.849 166.312C300.74 169.469 298.948 172.371 296.473 175.016C293.998 177.661 291.78 179.752 289.817 181.288C287.854 182.824 285.124 184.744 281.625 187.048C272.068 193.192 266.18 198.397 263.961 202.664H304.409V217H241.433ZM311.561 238.248V231.976C317.705 228.819 320.777 223.827 320.777 217H311.433V198.44H330.121V215.976C330.121 222.12 328.329 227.112 324.745 230.952C321.246 234.877 316.852 237.309 311.561 238.248ZM375.065 217V197.928H334.617V179.112L374.425 128.296H392.089V183.976H405.401V197.928H392.089V217H375.065ZM348.697 183.592V183.976H375.065V149.928H374.809L348.697 183.592ZM446.838 219.048C435.659 219.048 426.742 214.909 420.086 206.632C413.515 198.355 410.23 187.219 410.23 173.224C410.23 159.229 413.558 148.093 420.214 139.816C426.87 131.539 435.787 127.4 446.966 127.4C458.23 127.4 467.105 131.539 473.59 139.816C480.161 148.008 483.446 159.144 483.446 173.224C483.446 187.219 480.161 198.355 473.59 206.632C467.105 214.909 458.187 219.048 446.838 219.048ZM446.966 204.2C459.169 204.2 465.27 193.875 465.27 173.224C465.27 163.496 463.777 155.901 460.79 150.44C457.803 144.979 453.195 142.248 446.966 142.248C440.651 142.248 435.958 144.979 432.886 150.44C429.899 155.901 428.406 163.496 428.406 173.224C428.406 182.952 429.899 190.547 432.886 196.008C435.958 201.469 440.651 204.2 446.966 204.2ZM526.433 219.048C515.254 219.048 506.337 214.909 499.681 206.632C493.11 198.355 489.825 187.219 489.825 173.224C489.825 159.229 493.153 148.093 499.809 139.816C506.465 131.539 515.382 127.4 526.561 127.4C537.825 127.4 546.7 131.539 553.185 139.816C559.756 148.008 563.041 159.144 563.041 173.224C563.041 187.219 559.756 198.355 553.185 206.632C546.7 214.909 537.782 219.048 526.433 219.048ZM526.561 204.2C538.764 204.2 544.865 193.875 544.865 173.224C544.865 163.496 543.372 155.901 540.385 150.44C537.398 144.979 532.79 142.248 526.561 142.248C520.246 142.248 515.553 144.979 512.481 150.44C509.494 155.901 508.001 163.496 508.001 173.224C508.001 182.952 509.494 190.547 512.481 196.008C515.553 201.469 520.246 204.2 526.561 204.2ZM567.816 238.248V231.976C573.96 228.819 577.032 223.827 577.032 217H567.688V198.44H586.376V215.976C586.376 222.12 584.584 227.112 581 230.952C577.501 234.877 573.107 237.309 567.816 238.248ZM627.623 219.048C616.444 219.048 607.527 214.909 600.871 206.632C594.3 198.355 591.015 187.219 591.015 173.224C591.015 159.229 594.343 148.093 600.999 139.816C607.655 131.539 616.572 127.4 627.751 127.4C639.015 127.4 647.89 131.539 654.375 139.816C660.946 148.008 664.231 159.144 664.231 173.224C664.231 187.219 660.946 198.355 654.375 206.632C647.89 214.909 638.972 219.048 627.623 219.048ZM627.751 204.2C639.954 204.2 646.055 193.875 646.055 173.224C646.055 163.496 644.562 155.901 641.575 150.44C638.588 144.979 633.98 142.248 627.751 142.248C621.436 142.248 616.743 144.979 613.671 150.44C610.684 155.901 609.191 163.496 609.191 173.224C609.191 182.952 610.684 190.547 613.671 196.008C616.743 201.469 621.436 204.2 627.751 204.2ZM707.218 219.048C696.039 219.048 687.122 214.909 680.466 206.632C673.895 198.355 670.61 187.219 670.61 173.224C670.61 159.229 673.938 148.093 680.594 139.816C687.25 131.539 696.167 127.4 707.346 127.4C718.61 127.4 727.485 131.539 733.97 139.816C740.541 148.008 743.826 159.144 743.826 173.224C743.826 187.219 740.541 198.355 733.97 206.632C727.485 214.909 718.567 219.048 707.218 219.048ZM707.346 204.2C719.549 204.2 725.65 193.875 725.65 173.224C725.65 163.496 724.157 155.901 721.17 150.44C718.183 144.979 713.575 142.248 707.346 142.248C701.031 142.248 696.338 144.979 693.266 150.44C690.279 155.901 688.786 163.496 688.786 173.224C688.786 182.952 690.279 190.547 693.266 196.008C696.338 201.469 701.031 204.2 707.346 204.2ZM786.813 219.048C775.634 219.048 766.717 214.909 760.061 206.632C753.49 198.355 750.205 187.219 750.205 173.224C750.205 159.229 753.533 148.093 760.189 139.816C766.845 131.539 775.762 127.4 786.941 127.4C798.205 127.4 807.08 131.539 813.565 139.816C820.136 148.008 823.421 159.144 823.421 173.224C823.421 187.219 820.136 198.355 813.565 206.632C807.08 214.909 798.162 219.048 786.813 219.048ZM786.941 204.2C799.144 204.2 805.245 193.875 805.245 173.224C805.245 163.496 803.752 155.901 800.765 150.44C797.778 144.979 793.17 142.248 786.941 142.248C780.626 142.248 775.933 144.979 772.861 150.44C769.874 155.901 768.381 163.496 768.381 173.224C768.381 182.952 769.874 190.547 772.861 196.008C775.933 201.469 780.626 204.2 786.941 204.2Z" fill="url(#paint5_linear_559_373)"/>
</g>
<g filter="url(#filter6_f_559_373)">
<path d="M196.728 229.416V218.408C186.317 217.811 178.253 215.037 172.536 210.088C166.819 205.053 163.832 198.227 163.576 189.608H180.984C181.581 194.131 183.117 197.587 185.592 199.976C188.152 202.28 191.864 203.688 196.728 204.2V179.88C196.387 179.88 196.173 179.837 196.088 179.752C192.333 178.899 189.261 178.131 186.872 177.448C184.483 176.765 181.795 175.741 178.808 174.376C175.907 172.925 173.603 171.389 171.896 169.768C170.275 168.061 168.867 165.843 167.672 163.112C166.563 160.296 166.008 157.139 166.008 153.64C166.008 145.619 168.781 139.347 174.328 134.824C179.96 130.301 187.427 127.827 196.728 127.4V119.848H204.408V127.528C213.112 128.296 219.981 131.027 225.016 135.72C230.136 140.328 232.995 146.643 233.592 154.664H216.568C215.715 147.667 211.661 143.443 204.408 141.992V164.136C204.579 164.221 204.835 164.264 205.176 164.264C209.869 165.203 213.837 166.227 217.08 167.336C220.323 168.445 223.48 169.981 226.552 171.944C229.624 173.907 231.928 176.467 233.464 179.624C235 182.781 235.768 186.536 235.768 190.888C235.768 199.251 232.867 205.864 227.064 210.728C221.347 215.507 213.795 218.109 204.408 218.536V229.416H196.728ZM217.848 193.064C217.848 189.992 216.739 187.645 214.52 186.024C212.387 184.403 209.016 182.995 204.408 181.8V204.2C208.419 203.773 211.661 202.664 214.136 200.872C216.611 198.995 217.848 196.392 217.848 193.064ZM187.256 144.936C184.952 146.643 183.8 148.904 183.8 151.72C183.8 154.536 184.781 156.755 186.744 158.376C188.792 159.912 192.12 161.277 196.728 162.472V141.608C192.717 142.035 189.56 143.144 187.256 144.936ZM241.433 217C241.604 211.795 242.841 206.888 245.145 202.28C247.449 197.587 249.924 193.832 252.569 191.016C255.3 188.2 258.628 185.256 262.553 182.184C263.918 181.075 266.052 179.453 268.953 177.32C271.94 175.187 274.158 173.523 275.609 172.328C277.06 171.133 278.681 169.64 280.473 167.848C282.35 165.971 283.673 164.093 284.441 162.216C285.209 160.253 285.593 158.205 285.593 156.072C285.593 151.891 284.526 148.563 282.393 146.088C280.26 143.613 277.273 142.376 273.433 142.376C268.996 142.376 265.497 143.912 262.937 146.984C260.462 150.056 259.182 154.451 259.097 160.168H242.713C242.713 149.928 245.316 141.949 250.521 136.232C255.812 130.429 263.577 127.528 273.817 127.528C283.033 127.528 290.286 130.216 295.577 135.592C300.953 140.968 303.641 147.624 303.641 155.56C303.641 159.485 303.044 163.069 301.849 166.312C300.74 169.469 298.948 172.371 296.473 175.016C293.998 177.661 291.78 179.752 289.817 181.288C287.854 182.824 285.124 184.744 281.625 187.048C272.068 193.192 266.18 198.397 263.961 202.664H304.409V217H241.433ZM311.561 238.248V231.976C317.705 228.819 320.777 223.827 320.777 217H311.433V198.44H330.121V215.976C330.121 222.12 328.329 227.112 324.745 230.952C321.246 234.877 316.852 237.309 311.561 238.248ZM375.065 217V197.928H334.617V179.112L374.425 128.296H392.089V183.976H405.401V197.928H392.089V217H375.065ZM348.697 183.592V183.976H375.065V149.928H374.809L348.697 183.592ZM446.838 219.048C435.659 219.048 426.742 214.909 420.086 206.632C413.515 198.355 410.23 187.219 410.23 173.224C410.23 159.229 413.558 148.093 420.214 139.816C426.87 131.539 435.787 127.4 446.966 127.4C458.23 127.4 467.105 131.539 473.59 139.816C480.161 148.008 483.446 159.144 483.446 173.224C483.446 187.219 480.161 198.355 473.59 206.632C467.105 214.909 458.187 219.048 446.838 219.048ZM446.966 204.2C459.169 204.2 465.27 193.875 465.27 173.224C465.27 163.496 463.777 155.901 460.79 150.44C457.803 144.979 453.195 142.248 446.966 142.248C440.651 142.248 435.958 144.979 432.886 150.44C429.899 155.901 428.406 163.496 428.406 173.224C428.406 182.952 429.899 190.547 432.886 196.008C435.958 201.469 440.651 204.2 446.966 204.2ZM526.433 219.048C515.254 219.048 506.337 214.909 499.681 206.632C493.11 198.355 489.825 187.219 489.825 173.224C489.825 159.229 493.153 148.093 499.809 139.816C506.465 131.539 515.382 127.4 526.561 127.4C537.825 127.4 546.7 131.539 553.185 139.816C559.756 148.008 563.041 159.144 563.041 173.224C563.041 187.219 559.756 198.355 553.185 206.632C546.7 214.909 537.782 219.048 526.433 219.048ZM526.561 204.2C538.764 204.2 544.865 193.875 544.865 173.224C544.865 163.496 543.372 155.901 540.385 150.44C537.398 144.979 532.79 142.248 526.561 142.248C520.246 142.248 515.553 144.979 512.481 150.44C509.494 155.901 508.001 163.496 508.001 173.224C508.001 182.952 509.494 190.547 512.481 196.008C515.553 201.469 520.246 204.2 526.561 204.2ZM567.816 238.248V231.976C573.96 228.819 577.032 223.827 577.032 217H567.688V198.44H586.376V215.976C586.376 222.12 584.584 227.112 581 230.952C577.501 234.877 573.107 237.309 567.816 238.248ZM627.623 219.048C616.444 219.048 607.527 214.909 600.871 206.632C594.3 198.355 591.015 187.219 591.015 173.224C591.015 159.229 594.343 148.093 600.999 139.816C607.655 131.539 616.572 127.4 627.751 127.4C639.015 127.4 647.89 131.539 654.375 139.816C660.946 148.008 664.231 159.144 664.231 173.224C664.231 187.219 660.946 198.355 654.375 206.632C647.89 214.909 638.972 219.048 627.623 219.048ZM627.751 204.2C639.954 204.2 646.055 193.875 646.055 173.224C646.055 163.496 644.562 155.901 641.575 150.44C638.588 144.979 633.98 142.248 627.751 142.248C621.436 142.248 616.743 144.979 613.671 150.44C610.684 155.901 609.191 163.496 609.191 173.224C609.191 182.952 610.684 190.547 613.671 196.008C616.743 201.469 621.436 204.2 627.751 204.2ZM707.218 219.048C696.039 219.048 687.122 214.909 680.466 206.632C673.895 198.355 670.61 187.219 670.61 173.224C670.61 159.229 673.938 148.093 680.594 139.816C687.25 131.539 696.167 127.4 707.346 127.4C718.61 127.4 727.485 131.539 733.97 139.816C740.541 148.008 743.826 159.144 743.826 173.224C743.826 187.219 740.541 198.355 733.97 206.632C727.485 214.909 718.567 219.048 707.218 219.048ZM707.346 204.2C719.549 204.2 725.65 193.875 725.65 173.224C725.65 163.496 724.157 155.901 721.17 150.44C718.183 144.979 713.575 142.248 707.346 142.248C701.031 142.248 696.338 144.979 693.266 150.44C690.279 155.901 688.786 163.496 688.786 173.224C688.786 182.952 690.279 190.547 693.266 196.008C696.338 201.469 701.031 204.2 707.346 204.2ZM786.813 219.048C775.634 219.048 766.717 214.909 760.061 206.632C753.49 198.355 750.205 187.219 750.205 173.224C750.205 159.229 753.533 148.093 760.189 139.816C766.845 131.539 775.762 127.4 786.941 127.4C798.205 127.4 807.08 131.539 813.565 139.816C820.136 148.008 823.421 159.144 823.421 173.224C823.421 187.219 820.136 198.355 813.565 206.632C807.08 214.909 798.162 219.048 786.813 219.048ZM786.941 204.2C799.144 204.2 805.245 193.875 805.245 173.224C805.245 163.496 803.752 155.901 800.765 150.44C797.778 144.979 793.17 142.248 786.941 142.248C780.626 142.248 775.933 144.979 772.861 150.44C769.874 155.901 768.381 163.496 768.381 173.224C768.381 182.952 769.874 190.547 772.861 196.008C775.933 201.469 780.626 204.2 786.941 204.2Z" fill="url(#paint6_linear_559_373)"/>
</g>
<g style="mix-blend-mode:soft-light" filter="url(#filter7_f_559_373)">
<path d="M196.728 229.416V218.408C186.317 217.811 178.253 215.037 172.536 210.088C166.819 205.053 163.832 198.227 163.576 189.608H180.984C181.581 194.131 183.117 197.587 185.592 199.976C188.152 202.28 191.864 203.688 196.728 204.2V179.88C196.387 179.88 196.173 179.837 196.088 179.752C192.333 178.899 189.261 178.131 186.872 177.448C184.483 176.765 181.795 175.741 178.808 174.376C175.907 172.925 173.603 171.389 171.896 169.768C170.275 168.061 168.867 165.843 167.672 163.112C166.563 160.296 166.008 157.139 166.008 153.64C166.008 145.619 168.781 139.347 174.328 134.824C179.96 130.301 187.427 127.827 196.728 127.4V119.848H204.408V127.528C213.112 128.296 219.981 131.027 225.016 135.72C230.136 140.328 232.995 146.643 233.592 154.664H216.568C215.715 147.667 211.661 143.443 204.408 141.992V164.136C204.579 164.221 204.835 164.264 205.176 164.264C209.869 165.203 213.837 166.227 217.08 167.336C220.323 168.445 223.48 169.981 226.552 171.944C229.624 173.907 231.928 176.467 233.464 179.624C235 182.781 235.768 186.536 235.768 190.888C235.768 199.251 232.867 205.864 227.064 210.728C221.347 215.507 213.795 218.109 204.408 218.536V229.416H196.728ZM217.848 193.064C217.848 189.992 216.739 187.645 214.52 186.024C212.387 184.403 209.016 182.995 204.408 181.8V204.2C208.419 203.773 211.661 202.664 214.136 200.872C216.611 198.995 217.848 196.392 217.848 193.064ZM187.256 144.936C184.952 146.643 183.8 148.904 183.8 151.72C183.8 154.536 184.781 156.755 186.744 158.376C188.792 159.912 192.12 161.277 196.728 162.472V141.608C192.717 142.035 189.56 143.144 187.256 144.936ZM241.433 217C241.604 211.795 242.841 206.888 245.145 202.28C247.449 197.587 249.924 193.832 252.569 191.016C255.3 188.2 258.628 185.256 262.553 182.184C263.918 181.075 266.052 179.453 268.953 177.32C271.94 175.187 274.158 173.523 275.609 172.328C277.06 171.133 278.681 169.64 280.473 167.848C282.35 165.971 283.673 164.093 284.441 162.216C285.209 160.253 285.593 158.205 285.593 156.072C285.593 151.891 284.526 148.563 282.393 146.088C280.26 143.613 277.273 142.376 273.433 142.376C268.996 142.376 265.497 143.912 262.937 146.984C260.462 150.056 259.182 154.451 259.097 160.168H242.713C242.713 149.928 245.316 141.949 250.521 136.232C255.812 130.429 263.577 127.528 273.817 127.528C283.033 127.528 290.286 130.216 295.577 135.592C300.953 140.968 303.641 147.624 303.641 155.56C303.641 159.485 303.044 163.069 301.849 166.312C300.74 169.469 298.948 172.371 296.473 175.016C293.998 177.661 291.78 179.752 289.817 181.288C287.854 182.824 285.124 184.744 281.625 187.048C272.068 193.192 266.18 198.397 263.961 202.664H304.409V217H241.433ZM311.561 238.248V231.976C317.705 228.819 320.777 223.827 320.777 217H311.433V198.44H330.121V215.976C330.121 222.12 328.329 227.112 324.745 230.952C321.246 234.877 316.852 237.309 311.561 238.248ZM375.065 217V197.928H334.617V179.112L374.425 128.296H392.089V183.976H405.401V197.928H392.089V217H375.065ZM348.697 183.592V183.976H375.065V149.928H374.809L348.697 183.592ZM446.838 219.048C435.659 219.048 426.742 214.909 420.086 206.632C413.515 198.355 410.23 187.219 410.23 173.224C410.23 159.229 413.558 148.093 420.214 139.816C426.87 131.539 435.787 127.4 446.966 127.4C458.23 127.4 467.105 131.539 473.59 139.816C480.161 148.008 483.446 159.144 483.446 173.224C483.446 187.219 480.161 198.355 473.59 206.632C467.105 214.909 458.187 219.048 446.838 219.048ZM446.966 204.2C459.169 204.2 465.27 193.875 465.27 173.224C465.27 163.496 463.777 155.901 460.79 150.44C457.803 144.979 453.195 142.248 446.966 142.248C440.651 142.248 435.958 144.979 432.886 150.44C429.899 155.901 428.406 163.496 428.406 173.224C428.406 182.952 429.899 190.547 432.886 196.008C435.958 201.469 440.651 204.2 446.966 204.2ZM526.433 219.048C515.254 219.048 506.337 214.909 499.681 206.632C493.11 198.355 489.825 187.219 489.825 173.224C489.825 159.229 493.153 148.093 499.809 139.816C506.465 131.539 515.382 127.4 526.561 127.4C537.825 127.4 546.7 131.539 553.185 139.816C559.756 148.008 563.041 159.144 563.041 173.224C563.041 187.219 559.756 198.355 553.185 206.632C546.7 214.909 537.782 219.048 526.433 219.048ZM526.561 204.2C538.764 204.2 544.865 193.875 544.865 173.224C544.865 163.496 543.372 155.901 540.385 150.44C537.398 144.979 532.79 142.248 526.561 142.248C520.246 142.248 515.553 144.979 512.481 150.44C509.494 155.901 508.001 163.496 508.001 173.224C508.001 182.952 509.494 190.547 512.481 196.008C515.553 201.469 520.246 204.2 526.561 204.2ZM567.816 238.248V231.976C573.96 228.819 577.032 223.827 577.032 217H567.688V198.44H586.376V215.976C586.376 222.12 584.584 227.112 581 230.952C577.501 234.877 573.107 237.309 567.816 238.248ZM627.623 219.048C616.444 219.048 607.527 214.909 600.871 206.632C594.3 198.355 591.015 187.219 591.015 173.224C591.015 159.229 594.343 148.093 600.999 139.816C607.655 131.539 616.572 127.4 627.751 127.4C639.015 127.4 647.89 131.539 654.375 139.816C660.946 148.008 664.231 159.144 664.231 173.224C664.231 187.219 660.946 198.355 654.375 206.632C647.89 214.909 638.972 219.048 627.623 219.048ZM627.751 204.2C639.954 204.2 646.055 193.875 646.055 173.224C646.055 163.496 644.562 155.901 641.575 150.44C638.588 144.979 633.98 142.248 627.751 142.248C621.436 142.248 616.743 144.979 613.671 150.44C610.684 155.901 609.191 163.496 609.191 173.224C609.191 182.952 610.684 190.547 613.671 196.008C616.743 201.469 621.436 204.2 627.751 204.2ZM707.218 219.048C696.039 219.048 687.122 214.909 680.466 206.632C673.895 198.355 670.61 187.219 670.61 173.224C670.61 159.229 673.938 148.093 680.594 139.816C687.25 131.539 696.167 127.4 707.346 127.4C718.61 127.4 727.485 131.539 733.97 139.816C740.541 148.008 743.826 159.144 743.826 173.224C743.826 187.219 740.541 198.355 733.97 206.632C727.485 214.909 718.567 219.048 707.218 219.048ZM707.346 204.2C719.549 204.2 725.65 193.875 725.65 173.224C725.65 163.496 724.157 155.901 721.17 150.44C718.183 144.979 713.575 142.248 707.346 142.248C701.031 142.248 696.338 144.979 693.266 150.44C690.279 155.901 688.786 163.496 688.786 173.224C688.786 182.952 690.279 190.547 693.266 196.008C696.338 201.469 701.031 204.2 707.346 204.2ZM786.813 219.048C775.634 219.048 766.717 214.909 760.061 206.632C753.49 198.355 750.205 187.219 750.205 173.224C750.205 159.229 753.533 148.093 760.189 139.816C766.845 131.539 775.762 127.4 786.941 127.4C798.205 127.4 807.08 131.539 813.565 139.816C820.136 148.008 823.421 159.144 823.421 173.224C823.421 187.219 820.136 198.355 813.565 206.632C807.08 214.909 798.162 219.048 786.813 219.048ZM786.941 204.2C799.144 204.2 805.245 193.875 805.245 173.224C805.245 163.496 803.752 155.901 800.765 150.44C797.778 144.979 793.17 142.248 786.941 142.248C780.626 142.248 775.933 144.979 772.861 150.44C769.874 155.901 768.381 163.496 768.381 173.224C768.381 182.952 769.874 190.547 772.861 196.008C775.933 201.469 780.626 204.2 786.941 204.2Z" fill="white"/>
</g>
<path d="M196.728 229.416V218.408C186.317 217.811 178.253 215.037 172.536 210.088C166.819 205.053 163.832 198.227 163.576 189.608H180.984C181.581 194.131 183.117 197.587 185.592 199.976C188.152 202.28 191.864 203.688 196.728 204.2V179.88C196.387 179.88 196.173 179.837 196.088 179.752C192.333 178.899 189.261 178.131 186.872 177.448C184.483 176.765 181.795 175.741 178.808 174.376C175.907 172.925 173.603 171.389 171.896 169.768C170.275 168.061 168.867 165.843 167.672 163.112C166.563 160.296 166.008 157.139 166.008 153.64C166.008 145.619 168.781 139.347 174.328 134.824C179.96 130.301 187.427 127.827 196.728 127.4V119.848H204.408V127.528C213.112 128.296 219.981 131.027 225.016 135.72C230.136 140.328 232.995 146.643 233.592 154.664H216.568C215.715 147.667 211.661 143.443 204.408 141.992V164.136C204.579 164.221 204.835 164.264 205.176 164.264C209.869 165.203 213.837 166.227 217.08 167.336C220.323 168.445 223.48 169.981 226.552 171.944C229.624 173.907 231.928 176.467 233.464 179.624C235 182.781 235.768 186.536 235.768 190.888C235.768 199.251 232.867 205.864 227.064 210.728C221.347 215.507 213.795 218.109 204.408 218.536V229.416H196.728ZM217.848 193.064C217.848 189.992 216.739 187.645 214.52 186.024C212.387 184.403 209.016 182.995 204.408 181.8V204.2C208.419 203.773 211.661 202.664 214.136 200.872C216.611 198.995 217.848 196.392 217.848 193.064ZM187.256 144.936C184.952 146.643 183.8 148.904 183.8 151.72C183.8 154.536 184.781 156.755 186.744 158.376C188.792 159.912 192.12 161.277 196.728 162.472V141.608C192.717 142.035 189.56 143.144 187.256 144.936ZM241.433 217C241.604 211.795 242.841 206.888 245.145 202.28C247.449 197.587 249.924 193.832 252.569 191.016C255.3 188.2 258.628 185.256 262.553 182.184C263.918 181.075 266.052 179.453 268.953 177.32C271.94 175.187 274.158 173.523 275.609 172.328C277.06 171.133 278.681 169.64 280.473 167.848C282.35 165.971 283.673 164.093 284.441 162.216C285.209 160.253 285.593 158.205 285.593 156.072C285.593 151.891 284.526 148.563 282.393 146.088C280.26 143.613 277.273 142.376 273.433 142.376C268.996 142.376 265.497 143.912 262.937 146.984C260.462 150.056 259.182 154.451 259.097 160.168H242.713C242.713 149.928 245.316 141.949 250.521 136.232C255.812 130.429 263.577 127.528 273.817 127.528C283.033 127.528 290.286 130.216 295.577 135.592C300.953 140.968 303.641 147.624 303.641 155.56C303.641 159.485 303.044 163.069 301.849 166.312C300.74 169.469 298.948 172.371 296.473 175.016C293.998 177.661 291.78 179.752 289.817 181.288C287.854 182.824 285.124 184.744 281.625 187.048C272.068 193.192 266.18 198.397 263.961 202.664H304.409V217H241.433ZM311.561 238.248V231.976C317.705 228.819 320.777 223.827 320.777 217H311.433V198.44H330.121V215.976C330.121 222.12 328.329 227.112 324.745 230.952C321.246 234.877 316.852 237.309 311.561 238.248ZM375.065 217V197.928H334.617V179.112L374.425 128.296H392.089V183.976H405.401V197.928H392.089V217H375.065ZM348.697 183.592V183.976H375.065V149.928H374.809L348.697 183.592ZM446.838 219.048C435.659 219.048 426.742 214.909 420.086 206.632C413.515 198.355 410.23 187.219 410.23 173.224C410.23 159.229 413.558 148.093 420.214 139.816C426.87 131.539 435.787 127.4 446.966 127.4C458.23 127.4 467.105 131.539 473.59 139.816C480.161 148.008 483.446 159.144 483.446 173.224C483.446 187.219 480.161 198.355 473.59 206.632C467.105 214.909 458.187 219.048 446.838 219.048ZM446.966 204.2C459.169 204.2 465.27 193.875 465.27 173.224C465.27 163.496 463.777 155.901 460.79 150.44C457.803 144.979 453.195 142.248 446.966 142.248C440.651 142.248 435.958 144.979 432.886 150.44C429.899 155.901 428.406 163.496 428.406 173.224C428.406 182.952 429.899 190.547 432.886 196.008C435.958 201.469 440.651 204.2 446.966 204.2ZM526.433 219.048C515.254 219.048 506.337 214.909 499.681 206.632C493.11 198.355 489.825 187.219 489.825 173.224C489.825 159.229 493.153 148.093 499.809 139.816C506.465 131.539 515.382 127.4 526.561 127.4C537.825 127.4 546.7 131.539 553.185 139.816C559.756 148.008 563.041 159.144 563.041 173.224C563.041 187.219 559.756 198.355 553.185 206.632C546.7 214.909 537.782 219.048 526.433 219.048ZM526.561 204.2C538.764 204.2 544.865 193.875 544.865 173.224C544.865 163.496 543.372 155.901 540.385 150.44C537.398 144.979 532.79 142.248 526.561 142.248C520.246 142.248 515.553 144.979 512.481 150.44C509.494 155.901 508.001 163.496 508.001 173.224C508.001 182.952 509.494 190.547 512.481 196.008C515.553 201.469 520.246 204.2 526.561 204.2ZM567.816 238.248V231.976C573.96 228.819 577.032 223.827 577.032 217H567.688V198.44H586.376V215.976C586.376 222.12 584.584 227.112 581 230.952C577.501 234.877 573.107 237.309 567.816 238.248ZM627.623 219.048C616.444 219.048 607.527 214.909 600.871 206.632C594.3 198.355 591.015 187.219 591.015 173.224C591.015 159.229 594.343 148.093 600.999 139.816C607.655 131.539 616.572 127.4 627.751 127.4C639.015 127.4 647.89 131.539 654.375 139.816C660.946 148.008 664.231 159.144 664.231 173.224C664.231 187.219 660.946 198.355 654.375 206.632C647.89 214.909 638.972 219.048 627.623 219.048ZM627.751 204.2C639.954 204.2 646.055 193.875 646.055 173.224C646.055 163.496 644.562 155.901 641.575 150.44C638.588 144.979 633.98 142.248 627.751 142.248C621.436 142.248 616.743 144.979 613.671 150.44C610.684 155.901 609.191 163.496 609.191 173.224C609.191 182.952 610.684 190.547 613.671 196.008C616.743 201.469 621.436 204.2 627.751 204.2ZM707.218 219.048C696.039 219.048 687.122 214.909 680.466 206.632C673.895 198.355 670.61 187.219 670.61 173.224C670.61 159.229 673.938 148.093 680.594 139.816C687.25 131.539 696.167 127.4 707.346 127.4C718.61 127.4 727.485 131.539 733.97 139.816C740.541 148.008 743.826 159.144 743.826 173.224C743.826 187.219 740.541 198.355 733.97 206.632C727.485 214.909 718.567 219.048 707.218 219.048ZM707.346 204.2C719.549 204.2 725.65 193.875 725.65 173.224C725.65 163.496 724.157 155.901 721.17 150.44C718.183 144.979 713.575 142.248 707.346 142.248C701.031 142.248 696.338 144.979 693.266 150.44C690.279 155.901 688.786 163.496 688.786 173.224C688.786 182.952 690.279 190.547 693.266 196.008C696.338 201.469 701.031 204.2 707.346 204.2ZM786.813 219.048C775.634 219.048 766.717 214.909 760.061 206.632C753.49 198.355 750.205 187.219 750.205 173.224C750.205 159.229 753.533 148.093 760.189 139.816C766.845 131.539 775.762 127.4 786.941 127.4C798.205 127.4 807.08 131.539 813.565 139.816C820.136 148.008 823.421 159.144 823.421 173.224C823.421 187.219 820.136 198.355 813.565 206.632C807.08 214.909 798.162 219.048 786.813 219.048ZM786.941 204.2C799.144 204.2 805.245 193.875 805.245 173.224C805.245 163.496 803.752 155.901 800.765 150.44C797.778 144.979 793.17 142.248 786.941 142.248C780.626 142.248 775.933 144.979 772.861 150.44C769.874 155.901 768.381 163.496 768.381 173.224C768.381 182.952 769.874 190.547 772.861 196.008C775.933 201.469 780.626 204.2 786.941 204.2Z" fill="white"/>
<defs>
<filter id="filter0_f_559_373" x="0.5" y="0" width="987" height="416" filterUnits="userSpaceOnUse" color-interpolation-filters="sRGB">
<feFlood flood-opacity="0" result="BackgroundImageFix"/>
<feBlend mode="normal" in="SourceGraphic" in2="BackgroundImageFix" result="shape"/>
<feGaussianBlur stdDeviation="80" result="effect1_foregroundBlur_559_373"/>
</filter>
<filter id="filter1_f_559_373" x="130.5" y="82" width="727" height="188" filterUnits="userSpaceOnUse" color-interpolation-filters="sRGB">
<feFlood flood-opacity="0" result="BackgroundImageFix"/>
<feBlend mode="normal" in="SourceGraphic" in2="BackgroundImageFix" result="shape"/>
<feGaussianBlur stdDeviation="15" result="effect1_foregroundBlur_559_373"/>
</filter>
<filter id="filter2_f_559_373" x="130.5" y="82" width="727" height="188" filterUnits="userSpaceOnUse" color-interpolation-filters="sRGB">
<feFlood flood-opacity="0" result="BackgroundImageFix"/>
<feBlend mode="normal" in="SourceGraphic" in2="BackgroundImageFix" result="shape"/>
<feGaussianBlur stdDeviation="15" result="effect1_foregroundBlur_559_373"/>
</filter>
<filter id="filter3_f_559_373" x="100.5" y="52" width="787" height="248" filterUnits="userSpaceOnUse" color-interpolation-filters="sRGB">
<feFlood flood-opacity="0" result="BackgroundImageFix"/>
<feBlend mode="normal" in="SourceGraphic" in2="BackgroundImageFix" result="shape"/>
<feGaussianBlur stdDeviation="30" result="effect1_foregroundBlur_559_373"/>
</filter>
<filter id="filter4_f_559_373" x="150.5" y="102" width="687" height="148" filterUnits="userSpaceOnUse" color-interpolation-filters="sRGB">
<feFlood flood-opacity="0" result="BackgroundImageFix"/>
<feBlend mode="normal" in="SourceGraphic" in2="BackgroundImageFix" result="shape"/>
<feGaussianBlur stdDeviation="5" result="effect1_foregroundBlur_559_373"/>
</filter>
<filter id="filter5_f_559_373" x="130.5" y="82" width="727" height="188" filterUnits="userSpaceOnUse" color-interpolation-filters="sRGB">
<feFlood flood-opacity="0" result="BackgroundImageFix"/>
<feBlend mode="normal" in="SourceGraphic" in2="BackgroundImageFix" result="shape"/>
<feGaussianBlur stdDeviation="15" result="effect1_foregroundBlur_559_373"/>
</filter>
<filter id="filter6_f_559_373" x="140.5" y="92" width="707" height="168" filterUnits="userSpaceOnUse" color-interpolation-filters="sRGB">
<feFlood flood-opacity="0" result="BackgroundImageFix"/>
<feBlend mode="normal" in="SourceGraphic" in2="BackgroundImageFix" result="shape"/>
<feGaussianBlur stdDeviation="10" result="effect1_foregroundBlur_559_373"/>
</filter>
<filter id="filter7_f_559_373" x="152.5" y="104" width="683" height="144" filterUnits="userSpaceOnUse" color-interpolation-filters="sRGB">
<feFlood flood-opacity="0" result="BackgroundImageFix"/>
<feBlend mode="normal" in="SourceGraphic" in2="BackgroundImageFix" result="shape"/>
<feGaussianBlur stdDeviation="4" result="effect1_foregroundBlur_559_373"/>
</filter>
<linearGradient id="paint0_linear_559_373" x1="494" y1="160" x2="494" y2="256" gradientUnits="userSpaceOnUse">
<stop stop-color="#C6561E"/>
<stop offset="1" stop-color="#292594"/>
</linearGradient>
<linearGradient id="paint1_linear_559_373" x1="494" y1="112" x2="494" y2="240" gradientUnits="userSpaceOnUse">
<stop stop-color="#321607"/>
<stop offset="1" stop-color="#0A0925"/>
</linearGradient>
<linearGradient id="paint2_linear_559_373" x1="494" y1="112" x2="494" y2="240" gradientUnits="userSpaceOnUse">
<stop stop-color="#954116"/>
<stop offset="1" stop-color="#292594"/>
</linearGradient>
<linearGradient id="paint3_linear_559_373" x1="494" y1="112" x2="494" y2="240" gradientUnits="userSpaceOnUse">
<stop stop-color="#F9915C"/>
<stop offset="1" stop-color="#5C58C7"/>
</linearGradient>
<linearGradient id="paint4_linear_559_373" x1="494" y1="112" x2="494" y2="240" gradientUnits="userSpaceOnUse">
<stop stop-color="#FDD3BE"/>
<stop offset="1" stop-color="#C2C0EA"/>
</linearGradient>
<linearGradient id="paint5_linear_559_373" x1="494" y1="112" x2="494" y2="240" gradientUnits="userSpaceOnUse">
<stop stop-color="#FEE2D3"/>
<stop offset="1" stop-color="#EBEAF8"/>
</linearGradient>
<linearGradient id="paint6_linear_559_373" x1="494" y1="112" x2="494" y2="240" gradientUnits="userSpaceOnUse">
<stop stop-color="#F86C25"/>
<stop offset="1" stop-color="#8582D5"/>
</linearGradient>
</defs>
</svg>
