<svg width="766" height="380" viewBox="0 0 766 380" fill="none" xmlns="http://www.w3.org/2000/svg">
<g filter="url(#filter0_f_574_334)">
<rect x="160" y="160" width="446" height="60" fill="url(#paint0_linear_574_334)"/>
</g>
<g filter="url(#filter1_f_574_334)">
<path d="M209.684 199.96C204.671 205.507 198.004 208.28 189.684 208.28C181.364 208.28 174.671 205.507 169.604 199.96C164.591 194.36 162.084 187.213 162.084 178.52C162.084 169.827 164.591 162.68 169.604 157.08C174.671 151.48 181.364 148.68 189.684 148.68C198.004 148.68 204.671 151.48 209.684 157.08C214.697 162.68 217.204 169.827 217.204 178.52C217.204 187.213 214.697 194.36 209.684 199.96ZM178.004 193.08C180.777 196.867 184.697 198.76 189.764 198.76C194.831 198.76 198.697 196.893 201.364 193.16C204.031 189.373 205.364 184.493 205.364 178.52C205.364 172.547 204.031 167.667 201.364 163.88C198.697 160.093 194.831 158.2 189.764 158.2C184.697 158.2 180.777 160.093 178.004 163.88C175.284 167.667 173.924 172.547 173.924 178.52C173.924 184.44 175.284 189.293 178.004 193.08ZM258.268 207H247.788V202.2H247.548C246.055 204.227 244.402 205.72 242.588 206.68C240.828 207.64 238.562 208.12 235.788 208.12C231.308 208.12 227.815 206.787 225.308 204.12C222.802 201.453 221.548 197.853 221.548 193.32V165.96H232.348V191.48C232.348 196.44 234.615 198.92 239.148 198.92C241.655 198.92 243.655 198.067 245.148 196.36C246.642 194.653 247.388 192.413 247.388 189.64V165.96H258.268V207ZM274.986 165.96V172.52H275.226C276.506 170.12 277.919 168.36 279.466 167.24C281.013 166.067 282.959 165.48 285.306 165.48C286.426 165.48 287.279 165.587 287.866 165.8V175.32H287.626C283.946 174.947 280.986 175.747 278.746 177.72C276.506 179.693 275.386 182.787 275.386 187V207H264.506V165.96H274.986ZM315.03 165.96V171.56H315.27C318.097 167.08 322.15 164.84 327.43 164.84C331.644 164.84 335.057 166.28 337.67 169.16C340.284 171.987 341.59 175.667 341.59 180.2V207H330.71V181.8C330.71 179.56 330.07 177.747 328.79 176.36C327.564 174.973 325.83 174.28 323.59 174.28C321.19 174.28 319.19 175.16 317.59 176.92C316.044 178.68 315.27 180.947 315.27 183.72V207H304.39V165.96H315.03ZM383.897 207H373.417V202.2H373.177C371.683 204.227 370.03 205.72 368.217 206.68C366.457 207.64 364.19 208.12 361.417 208.12C356.937 208.12 353.443 206.787 350.937 204.12C348.43 201.453 347.177 197.853 347.177 193.32V165.96H357.977V191.48C357.977 196.44 360.243 198.92 364.777 198.92C367.283 198.92 369.283 198.067 370.777 196.36C372.27 194.653 373.017 192.413 373.017 189.64V165.96H383.897V207ZM390.134 207V165.96H400.614V171.48H400.854C403.467 167.053 407.441 164.84 412.774 164.84C415.334 164.84 417.601 165.507 419.574 166.84C421.601 168.12 423.121 169.853 424.134 172.04H424.294C427.281 167.24 431.387 164.84 436.614 164.84C440.881 164.84 444.187 166.147 446.534 168.76C448.934 171.32 450.134 174.867 450.134 179.4V207H439.254V181.24C439.254 176.547 437.147 174.2 432.934 174.2C430.641 174.2 428.827 175.027 427.494 176.68C426.214 178.28 425.574 180.44 425.574 183.16V207H414.694V181.24C414.694 176.547 412.587 174.2 408.374 174.2C406.187 174.2 404.401 175.027 403.014 176.68C401.681 178.28 401.014 180.44 401.014 183.16V207H390.134ZM478.933 208.2C473.386 208.2 469.306 206.093 466.693 201.88H466.533V207H456.053V149.8H466.933V170.92H467.173C469.786 166.867 473.599 164.84 478.613 164.84C483.786 164.84 488.026 166.867 491.333 170.92C494.639 174.92 496.293 180.12 496.293 186.52C496.293 193.133 494.693 198.413 491.493 202.36C488.293 206.253 484.106 208.2 478.933 208.2ZM476.533 199.08C479.306 199.08 481.439 197.987 482.933 195.8C484.479 193.613 485.253 190.52 485.253 186.52C485.253 182.573 484.453 179.453 482.853 177.16C481.306 174.813 479.066 173.64 476.133 173.64C469.839 173.64 466.693 178.013 466.693 186.76C466.693 190.547 467.573 193.56 469.333 195.8C471.093 197.987 473.493 199.08 476.533 199.08ZM519.845 208.2C513.232 208.2 508.032 206.173 504.245 202.12C500.459 198.013 498.565 192.787 498.565 186.44C498.565 180.307 500.459 175.187 504.245 171.08C508.032 166.92 512.885 164.84 518.805 164.84C525.259 164.84 530.245 167.08 533.765 171.56C537.285 176.04 539.045 182.04 539.045 189.56H509.285C509.712 192.813 510.805 195.347 512.565 197.16C514.325 198.92 516.725 199.8 519.765 199.8C523.765 199.8 526.405 198.12 527.685 194.76H538.405C537.605 198.6 535.579 201.8 532.325 204.36C529.072 206.92 524.912 208.2 519.845 208.2ZM518.965 173.24C513.685 173.24 510.512 176.173 509.445 182.04H527.685C527.525 179.427 526.645 177.32 525.045 175.72C523.445 174.067 521.419 173.24 518.965 173.24ZM553.761 165.96V172.52H554.001C555.281 170.12 556.694 168.36 558.241 167.24C559.788 166.067 561.734 165.48 564.081 165.48C565.201 165.48 566.054 165.587 566.641 165.8V175.32H566.401C562.721 174.947 559.761 175.747 557.521 177.72C555.281 179.693 554.161 182.787 554.161 187V207H543.281V165.96H553.761ZM587.168 208.2C581.301 208.2 576.714 206.92 573.408 204.36C570.101 201.747 568.288 198.2 567.968 193.72H578.048C578.741 198.253 581.728 200.52 587.008 200.52C589.408 200.52 591.248 200.093 592.528 199.24C593.861 198.387 594.528 197.24 594.528 195.8C594.528 195.267 594.421 194.787 594.208 194.36C594.048 193.933 593.728 193.56 593.248 193.24C592.821 192.867 592.421 192.573 592.048 192.36C591.728 192.147 591.141 191.933 590.288 191.72C589.434 191.507 588.768 191.347 588.288 191.24C587.861 191.133 587.088 191 585.968 190.84C584.901 190.627 584.154 190.467 583.728 190.36C581.488 189.933 579.648 189.507 578.208 189.08C576.821 188.6 575.354 187.933 573.808 187.08C572.261 186.173 571.088 184.973 570.288 183.48C569.541 181.933 569.168 180.093 569.168 177.96C569.168 173.693 570.714 170.44 573.808 168.2C576.954 165.96 580.981 164.84 585.888 164.84C591.168 164.84 595.301 166.067 598.288 168.52C601.328 170.92 603.061 174.227 603.488 178.44H593.648C593.221 174.44 590.581 172.44 585.728 172.44C583.541 172.44 581.808 172.84 580.528 173.64C579.301 174.44 578.688 175.56 578.688 177C578.688 177.48 578.768 177.933 578.928 178.36C579.141 178.733 579.461 179.08 579.888 179.4C580.368 179.667 580.821 179.907 581.248 180.12C581.674 180.28 582.288 180.467 583.088 180.68C583.888 180.84 584.581 181 585.168 181.16C585.754 181.267 586.554 181.427 587.568 181.64C588.581 181.8 589.381 181.933 589.968 182.04C591.674 182.413 593.061 182.76 594.128 183.08C595.248 183.347 596.528 183.827 597.968 184.52C599.408 185.16 600.528 185.907 601.328 186.76C602.181 187.56 602.901 188.68 603.488 190.12C604.128 191.507 604.448 193.133 604.448 195C604.448 199.053 602.848 202.28 599.648 204.68C596.501 207.027 592.341 208.2 587.168 208.2Z" fill="url(#paint1_linear_574_334)"/>
</g>
<g filter="url(#filter2_f_574_334)">
<path d="M209.684 199.96C204.671 205.507 198.004 208.28 189.684 208.28C181.364 208.28 174.671 205.507 169.604 199.96C164.591 194.36 162.084 187.213 162.084 178.52C162.084 169.827 164.591 162.68 169.604 157.08C174.671 151.48 181.364 148.68 189.684 148.68C198.004 148.68 204.671 151.48 209.684 157.08C214.697 162.68 217.204 169.827 217.204 178.52C217.204 187.213 214.697 194.36 209.684 199.96ZM178.004 193.08C180.777 196.867 184.697 198.76 189.764 198.76C194.831 198.76 198.697 196.893 201.364 193.16C204.031 189.373 205.364 184.493 205.364 178.52C205.364 172.547 204.031 167.667 201.364 163.88C198.697 160.093 194.831 158.2 189.764 158.2C184.697 158.2 180.777 160.093 178.004 163.88C175.284 167.667 173.924 172.547 173.924 178.52C173.924 184.44 175.284 189.293 178.004 193.08ZM258.268 207H247.788V202.2H247.548C246.055 204.227 244.402 205.72 242.588 206.68C240.828 207.64 238.562 208.12 235.788 208.12C231.308 208.12 227.815 206.787 225.308 204.12C222.802 201.453 221.548 197.853 221.548 193.32V165.96H232.348V191.48C232.348 196.44 234.615 198.92 239.148 198.92C241.655 198.92 243.655 198.067 245.148 196.36C246.642 194.653 247.388 192.413 247.388 189.64V165.96H258.268V207ZM274.986 165.96V172.52H275.226C276.506 170.12 277.919 168.36 279.466 167.24C281.013 166.067 282.959 165.48 285.306 165.48C286.426 165.48 287.279 165.587 287.866 165.8V175.32H287.626C283.946 174.947 280.986 175.747 278.746 177.72C276.506 179.693 275.386 182.787 275.386 187V207H264.506V165.96H274.986ZM315.03 165.96V171.56H315.27C318.097 167.08 322.15 164.84 327.43 164.84C331.644 164.84 335.057 166.28 337.67 169.16C340.284 171.987 341.59 175.667 341.59 180.2V207H330.71V181.8C330.71 179.56 330.07 177.747 328.79 176.36C327.564 174.973 325.83 174.28 323.59 174.28C321.19 174.28 319.19 175.16 317.59 176.92C316.044 178.68 315.27 180.947 315.27 183.72V207H304.39V165.96H315.03ZM383.897 207H373.417V202.2H373.177C371.683 204.227 370.03 205.72 368.217 206.68C366.457 207.64 364.19 208.12 361.417 208.12C356.937 208.12 353.443 206.787 350.937 204.12C348.43 201.453 347.177 197.853 347.177 193.32V165.96H357.977V191.48C357.977 196.44 360.243 198.92 364.777 198.92C367.283 198.92 369.283 198.067 370.777 196.36C372.27 194.653 373.017 192.413 373.017 189.64V165.96H383.897V207ZM390.134 207V165.96H400.614V171.48H400.854C403.467 167.053 407.441 164.84 412.774 164.84C415.334 164.84 417.601 165.507 419.574 166.84C421.601 168.12 423.121 169.853 424.134 172.04H424.294C427.281 167.24 431.387 164.84 436.614 164.84C440.881 164.84 444.187 166.147 446.534 168.76C448.934 171.32 450.134 174.867 450.134 179.4V207H439.254V181.24C439.254 176.547 437.147 174.2 432.934 174.2C430.641 174.2 428.827 175.027 427.494 176.68C426.214 178.28 425.574 180.44 425.574 183.16V207H414.694V181.24C414.694 176.547 412.587 174.2 408.374 174.2C406.187 174.2 404.401 175.027 403.014 176.68C401.681 178.28 401.014 180.44 401.014 183.16V207H390.134ZM478.933 208.2C473.386 208.2 469.306 206.093 466.693 201.88H466.533V207H456.053V149.8H466.933V170.92H467.173C469.786 166.867 473.599 164.84 478.613 164.84C483.786 164.84 488.026 166.867 491.333 170.92C494.639 174.92 496.293 180.12 496.293 186.52C496.293 193.133 494.693 198.413 491.493 202.36C488.293 206.253 484.106 208.2 478.933 208.2ZM476.533 199.08C479.306 199.08 481.439 197.987 482.933 195.8C484.479 193.613 485.253 190.52 485.253 186.52C485.253 182.573 484.453 179.453 482.853 177.16C481.306 174.813 479.066 173.64 476.133 173.64C469.839 173.64 466.693 178.013 466.693 186.76C466.693 190.547 467.573 193.56 469.333 195.8C471.093 197.987 473.493 199.08 476.533 199.08ZM519.845 208.2C513.232 208.2 508.032 206.173 504.245 202.12C500.459 198.013 498.565 192.787 498.565 186.44C498.565 180.307 500.459 175.187 504.245 171.08C508.032 166.92 512.885 164.84 518.805 164.84C525.259 164.84 530.245 167.08 533.765 171.56C537.285 176.04 539.045 182.04 539.045 189.56H509.285C509.712 192.813 510.805 195.347 512.565 197.16C514.325 198.92 516.725 199.8 519.765 199.8C523.765 199.8 526.405 198.12 527.685 194.76H538.405C537.605 198.6 535.579 201.8 532.325 204.36C529.072 206.92 524.912 208.2 519.845 208.2ZM518.965 173.24C513.685 173.24 510.512 176.173 509.445 182.04H527.685C527.525 179.427 526.645 177.32 525.045 175.72C523.445 174.067 521.419 173.24 518.965 173.24ZM553.761 165.96V172.52H554.001C555.281 170.12 556.694 168.36 558.241 167.24C559.788 166.067 561.734 165.48 564.081 165.48C565.201 165.48 566.054 165.587 566.641 165.8V175.32H566.401C562.721 174.947 559.761 175.747 557.521 177.72C555.281 179.693 554.161 182.787 554.161 187V207H543.281V165.96H553.761ZM587.168 208.2C581.301 208.2 576.714 206.92 573.408 204.36C570.101 201.747 568.288 198.2 567.968 193.72H578.048C578.741 198.253 581.728 200.52 587.008 200.52C589.408 200.52 591.248 200.093 592.528 199.24C593.861 198.387 594.528 197.24 594.528 195.8C594.528 195.267 594.421 194.787 594.208 194.36C594.048 193.933 593.728 193.56 593.248 193.24C592.821 192.867 592.421 192.573 592.048 192.36C591.728 192.147 591.141 191.933 590.288 191.72C589.434 191.507 588.768 191.347 588.288 191.24C587.861 191.133 587.088 191 585.968 190.84C584.901 190.627 584.154 190.467 583.728 190.36C581.488 189.933 579.648 189.507 578.208 189.08C576.821 188.6 575.354 187.933 573.808 187.08C572.261 186.173 571.088 184.973 570.288 183.48C569.541 181.933 569.168 180.093 569.168 177.96C569.168 173.693 570.714 170.44 573.808 168.2C576.954 165.96 580.981 164.84 585.888 164.84C591.168 164.84 595.301 166.067 598.288 168.52C601.328 170.92 603.061 174.227 603.488 178.44H593.648C593.221 174.44 590.581 172.44 585.728 172.44C583.541 172.44 581.808 172.84 580.528 173.64C579.301 174.44 578.688 175.56 578.688 177C578.688 177.48 578.768 177.933 578.928 178.36C579.141 178.733 579.461 179.08 579.888 179.4C580.368 179.667 580.821 179.907 581.248 180.12C581.674 180.28 582.288 180.467 583.088 180.68C583.888 180.84 584.581 181 585.168 181.16C585.754 181.267 586.554 181.427 587.568 181.64C588.581 181.8 589.381 181.933 589.968 182.04C591.674 182.413 593.061 182.76 594.128 183.08C595.248 183.347 596.528 183.827 597.968 184.52C599.408 185.16 600.528 185.907 601.328 186.76C602.181 187.56 602.901 188.68 603.488 190.12C604.128 191.507 604.448 193.133 604.448 195C604.448 199.053 602.848 202.28 599.648 204.68C596.501 207.027 592.341 208.2 587.168 208.2Z" fill="url(#paint2_linear_574_334)"/>
</g>
<g filter="url(#filter3_f_574_334)">
<path d="M209.684 199.96C204.671 205.507 198.004 208.28 189.684 208.28C181.364 208.28 174.671 205.507 169.604 199.96C164.591 194.36 162.084 187.213 162.084 178.52C162.084 169.827 164.591 162.68 169.604 157.08C174.671 151.48 181.364 148.68 189.684 148.68C198.004 148.68 204.671 151.48 209.684 157.08C214.697 162.68 217.204 169.827 217.204 178.52C217.204 187.213 214.697 194.36 209.684 199.96ZM178.004 193.08C180.777 196.867 184.697 198.76 189.764 198.76C194.831 198.76 198.697 196.893 201.364 193.16C204.031 189.373 205.364 184.493 205.364 178.52C205.364 172.547 204.031 167.667 201.364 163.88C198.697 160.093 194.831 158.2 189.764 158.2C184.697 158.2 180.777 160.093 178.004 163.88C175.284 167.667 173.924 172.547 173.924 178.52C173.924 184.44 175.284 189.293 178.004 193.08ZM258.268 207H247.788V202.2H247.548C246.055 204.227 244.402 205.72 242.588 206.68C240.828 207.64 238.562 208.12 235.788 208.12C231.308 208.12 227.815 206.787 225.308 204.12C222.802 201.453 221.548 197.853 221.548 193.32V165.96H232.348V191.48C232.348 196.44 234.615 198.92 239.148 198.92C241.655 198.92 243.655 198.067 245.148 196.36C246.642 194.653 247.388 192.413 247.388 189.64V165.96H258.268V207ZM274.986 165.96V172.52H275.226C276.506 170.12 277.919 168.36 279.466 167.24C281.013 166.067 282.959 165.48 285.306 165.48C286.426 165.48 287.279 165.587 287.866 165.8V175.32H287.626C283.946 174.947 280.986 175.747 278.746 177.72C276.506 179.693 275.386 182.787 275.386 187V207H264.506V165.96H274.986ZM315.03 165.96V171.56H315.27C318.097 167.08 322.15 164.84 327.43 164.84C331.644 164.84 335.057 166.28 337.67 169.16C340.284 171.987 341.59 175.667 341.59 180.2V207H330.71V181.8C330.71 179.56 330.07 177.747 328.79 176.36C327.564 174.973 325.83 174.28 323.59 174.28C321.19 174.28 319.19 175.16 317.59 176.92C316.044 178.68 315.27 180.947 315.27 183.72V207H304.39V165.96H315.03ZM383.897 207H373.417V202.2H373.177C371.683 204.227 370.03 205.72 368.217 206.68C366.457 207.64 364.19 208.12 361.417 208.12C356.937 208.12 353.443 206.787 350.937 204.12C348.43 201.453 347.177 197.853 347.177 193.32V165.96H357.977V191.48C357.977 196.44 360.243 198.92 364.777 198.92C367.283 198.92 369.283 198.067 370.777 196.36C372.27 194.653 373.017 192.413 373.017 189.64V165.96H383.897V207ZM390.134 207V165.96H400.614V171.48H400.854C403.467 167.053 407.441 164.84 412.774 164.84C415.334 164.84 417.601 165.507 419.574 166.84C421.601 168.12 423.121 169.853 424.134 172.04H424.294C427.281 167.24 431.387 164.84 436.614 164.84C440.881 164.84 444.187 166.147 446.534 168.76C448.934 171.32 450.134 174.867 450.134 179.4V207H439.254V181.24C439.254 176.547 437.147 174.2 432.934 174.2C430.641 174.2 428.827 175.027 427.494 176.68C426.214 178.28 425.574 180.44 425.574 183.16V207H414.694V181.24C414.694 176.547 412.587 174.2 408.374 174.2C406.187 174.2 404.401 175.027 403.014 176.68C401.681 178.28 401.014 180.44 401.014 183.16V207H390.134ZM478.933 208.2C473.386 208.2 469.306 206.093 466.693 201.88H466.533V207H456.053V149.8H466.933V170.92H467.173C469.786 166.867 473.599 164.84 478.613 164.84C483.786 164.84 488.026 166.867 491.333 170.92C494.639 174.92 496.293 180.12 496.293 186.52C496.293 193.133 494.693 198.413 491.493 202.36C488.293 206.253 484.106 208.2 478.933 208.2ZM476.533 199.08C479.306 199.08 481.439 197.987 482.933 195.8C484.479 193.613 485.253 190.52 485.253 186.52C485.253 182.573 484.453 179.453 482.853 177.16C481.306 174.813 479.066 173.64 476.133 173.64C469.839 173.64 466.693 178.013 466.693 186.76C466.693 190.547 467.573 193.56 469.333 195.8C471.093 197.987 473.493 199.08 476.533 199.08ZM519.845 208.2C513.232 208.2 508.032 206.173 504.245 202.12C500.459 198.013 498.565 192.787 498.565 186.44C498.565 180.307 500.459 175.187 504.245 171.08C508.032 166.92 512.885 164.84 518.805 164.84C525.259 164.84 530.245 167.08 533.765 171.56C537.285 176.04 539.045 182.04 539.045 189.56H509.285C509.712 192.813 510.805 195.347 512.565 197.16C514.325 198.92 516.725 199.8 519.765 199.8C523.765 199.8 526.405 198.12 527.685 194.76H538.405C537.605 198.6 535.579 201.8 532.325 204.36C529.072 206.92 524.912 208.2 519.845 208.2ZM518.965 173.24C513.685 173.24 510.512 176.173 509.445 182.04H527.685C527.525 179.427 526.645 177.32 525.045 175.72C523.445 174.067 521.419 173.24 518.965 173.24ZM553.761 165.96V172.52H554.001C555.281 170.12 556.694 168.36 558.241 167.24C559.788 166.067 561.734 165.48 564.081 165.48C565.201 165.48 566.054 165.587 566.641 165.8V175.32H566.401C562.721 174.947 559.761 175.747 557.521 177.72C555.281 179.693 554.161 182.787 554.161 187V207H543.281V165.96H553.761ZM587.168 208.2C581.301 208.2 576.714 206.92 573.408 204.36C570.101 201.747 568.288 198.2 567.968 193.72H578.048C578.741 198.253 581.728 200.52 587.008 200.52C589.408 200.52 591.248 200.093 592.528 199.24C593.861 198.387 594.528 197.24 594.528 195.8C594.528 195.267 594.421 194.787 594.208 194.36C594.048 193.933 593.728 193.56 593.248 193.24C592.821 192.867 592.421 192.573 592.048 192.36C591.728 192.147 591.141 191.933 590.288 191.72C589.434 191.507 588.768 191.347 588.288 191.24C587.861 191.133 587.088 191 585.968 190.84C584.901 190.627 584.154 190.467 583.728 190.36C581.488 189.933 579.648 189.507 578.208 189.08C576.821 188.6 575.354 187.933 573.808 187.08C572.261 186.173 571.088 184.973 570.288 183.48C569.541 181.933 569.168 180.093 569.168 177.96C569.168 173.693 570.714 170.44 573.808 168.2C576.954 165.96 580.981 164.84 585.888 164.84C591.168 164.84 595.301 166.067 598.288 168.52C601.328 170.92 603.061 174.227 603.488 178.44H593.648C593.221 174.44 590.581 172.44 585.728 172.44C583.541 172.44 581.808 172.84 580.528 173.64C579.301 174.44 578.688 175.56 578.688 177C578.688 177.48 578.768 177.933 578.928 178.36C579.141 178.733 579.461 179.08 579.888 179.4C580.368 179.667 580.821 179.907 581.248 180.12C581.674 180.28 582.288 180.467 583.088 180.68C583.888 180.84 584.581 181 585.168 181.16C585.754 181.267 586.554 181.427 587.568 181.64C588.581 181.8 589.381 181.933 589.968 182.04C591.674 182.413 593.061 182.76 594.128 183.08C595.248 183.347 596.528 183.827 597.968 184.52C599.408 185.16 600.528 185.907 601.328 186.76C602.181 187.56 602.901 188.68 603.488 190.12C604.128 191.507 604.448 193.133 604.448 195C604.448 199.053 602.848 202.28 599.648 204.68C596.501 207.027 592.341 208.2 587.168 208.2Z" fill="url(#paint3_linear_574_334)"/>
</g>
<g filter="url(#filter4_f_574_334)">
<path d="M209.684 199.96C204.671 205.507 198.004 208.28 189.684 208.28C181.364 208.28 174.671 205.507 169.604 199.96C164.591 194.36 162.084 187.213 162.084 178.52C162.084 169.827 164.591 162.68 169.604 157.08C174.671 151.48 181.364 148.68 189.684 148.68C198.004 148.68 204.671 151.48 209.684 157.08C214.697 162.68 217.204 169.827 217.204 178.52C217.204 187.213 214.697 194.36 209.684 199.96ZM178.004 193.08C180.777 196.867 184.697 198.76 189.764 198.76C194.831 198.76 198.697 196.893 201.364 193.16C204.031 189.373 205.364 184.493 205.364 178.52C205.364 172.547 204.031 167.667 201.364 163.88C198.697 160.093 194.831 158.2 189.764 158.2C184.697 158.2 180.777 160.093 178.004 163.88C175.284 167.667 173.924 172.547 173.924 178.52C173.924 184.44 175.284 189.293 178.004 193.08ZM258.268 207H247.788V202.2H247.548C246.055 204.227 244.402 205.72 242.588 206.68C240.828 207.64 238.562 208.12 235.788 208.12C231.308 208.12 227.815 206.787 225.308 204.12C222.802 201.453 221.548 197.853 221.548 193.32V165.96H232.348V191.48C232.348 196.44 234.615 198.92 239.148 198.92C241.655 198.92 243.655 198.067 245.148 196.36C246.642 194.653 247.388 192.413 247.388 189.64V165.96H258.268V207ZM274.986 165.96V172.52H275.226C276.506 170.12 277.919 168.36 279.466 167.24C281.013 166.067 282.959 165.48 285.306 165.48C286.426 165.48 287.279 165.587 287.866 165.8V175.32H287.626C283.946 174.947 280.986 175.747 278.746 177.72C276.506 179.693 275.386 182.787 275.386 187V207H264.506V165.96H274.986ZM315.03 165.96V171.56H315.27C318.097 167.08 322.15 164.84 327.43 164.84C331.644 164.84 335.057 166.28 337.67 169.16C340.284 171.987 341.59 175.667 341.59 180.2V207H330.71V181.8C330.71 179.56 330.07 177.747 328.79 176.36C327.564 174.973 325.83 174.28 323.59 174.28C321.19 174.28 319.19 175.16 317.59 176.92C316.044 178.68 315.27 180.947 315.27 183.72V207H304.39V165.96H315.03ZM383.897 207H373.417V202.2H373.177C371.683 204.227 370.03 205.72 368.217 206.68C366.457 207.64 364.19 208.12 361.417 208.12C356.937 208.12 353.443 206.787 350.937 204.12C348.43 201.453 347.177 197.853 347.177 193.32V165.96H357.977V191.48C357.977 196.44 360.243 198.92 364.777 198.92C367.283 198.92 369.283 198.067 370.777 196.36C372.27 194.653 373.017 192.413 373.017 189.64V165.96H383.897V207ZM390.134 207V165.96H400.614V171.48H400.854C403.467 167.053 407.441 164.84 412.774 164.84C415.334 164.84 417.601 165.507 419.574 166.84C421.601 168.12 423.121 169.853 424.134 172.04H424.294C427.281 167.24 431.387 164.84 436.614 164.84C440.881 164.84 444.187 166.147 446.534 168.76C448.934 171.32 450.134 174.867 450.134 179.4V207H439.254V181.24C439.254 176.547 437.147 174.2 432.934 174.2C430.641 174.2 428.827 175.027 427.494 176.68C426.214 178.28 425.574 180.44 425.574 183.16V207H414.694V181.24C414.694 176.547 412.587 174.2 408.374 174.2C406.187 174.2 404.401 175.027 403.014 176.68C401.681 178.28 401.014 180.44 401.014 183.16V207H390.134ZM478.933 208.2C473.386 208.2 469.306 206.093 466.693 201.88H466.533V207H456.053V149.8H466.933V170.92H467.173C469.786 166.867 473.599 164.84 478.613 164.84C483.786 164.84 488.026 166.867 491.333 170.92C494.639 174.92 496.293 180.12 496.293 186.52C496.293 193.133 494.693 198.413 491.493 202.36C488.293 206.253 484.106 208.2 478.933 208.2ZM476.533 199.08C479.306 199.08 481.439 197.987 482.933 195.8C484.479 193.613 485.253 190.52 485.253 186.52C485.253 182.573 484.453 179.453 482.853 177.16C481.306 174.813 479.066 173.64 476.133 173.64C469.839 173.64 466.693 178.013 466.693 186.76C466.693 190.547 467.573 193.56 469.333 195.8C471.093 197.987 473.493 199.08 476.533 199.08ZM519.845 208.2C513.232 208.2 508.032 206.173 504.245 202.12C500.459 198.013 498.565 192.787 498.565 186.44C498.565 180.307 500.459 175.187 504.245 171.08C508.032 166.92 512.885 164.84 518.805 164.84C525.259 164.84 530.245 167.08 533.765 171.56C537.285 176.04 539.045 182.04 539.045 189.56H509.285C509.712 192.813 510.805 195.347 512.565 197.16C514.325 198.92 516.725 199.8 519.765 199.8C523.765 199.8 526.405 198.12 527.685 194.76H538.405C537.605 198.6 535.579 201.8 532.325 204.36C529.072 206.92 524.912 208.2 519.845 208.2ZM518.965 173.24C513.685 173.24 510.512 176.173 509.445 182.04H527.685C527.525 179.427 526.645 177.32 525.045 175.72C523.445 174.067 521.419 173.24 518.965 173.24ZM553.761 165.96V172.52H554.001C555.281 170.12 556.694 168.36 558.241 167.24C559.788 166.067 561.734 165.48 564.081 165.48C565.201 165.48 566.054 165.587 566.641 165.8V175.32H566.401C562.721 174.947 559.761 175.747 557.521 177.72C555.281 179.693 554.161 182.787 554.161 187V207H543.281V165.96H553.761ZM587.168 208.2C581.301 208.2 576.714 206.92 573.408 204.36C570.101 201.747 568.288 198.2 567.968 193.72H578.048C578.741 198.253 581.728 200.52 587.008 200.52C589.408 200.52 591.248 200.093 592.528 199.24C593.861 198.387 594.528 197.24 594.528 195.8C594.528 195.267 594.421 194.787 594.208 194.36C594.048 193.933 593.728 193.56 593.248 193.24C592.821 192.867 592.421 192.573 592.048 192.36C591.728 192.147 591.141 191.933 590.288 191.72C589.434 191.507 588.768 191.347 588.288 191.24C587.861 191.133 587.088 191 585.968 190.84C584.901 190.627 584.154 190.467 583.728 190.36C581.488 189.933 579.648 189.507 578.208 189.08C576.821 188.6 575.354 187.933 573.808 187.08C572.261 186.173 571.088 184.973 570.288 183.48C569.541 181.933 569.168 180.093 569.168 177.96C569.168 173.693 570.714 170.44 573.808 168.2C576.954 165.96 580.981 164.84 585.888 164.84C591.168 164.84 595.301 166.067 598.288 168.52C601.328 170.92 603.061 174.227 603.488 178.44H593.648C593.221 174.44 590.581 172.44 585.728 172.44C583.541 172.44 581.808 172.84 580.528 173.64C579.301 174.44 578.688 175.56 578.688 177C578.688 177.48 578.768 177.933 578.928 178.36C579.141 178.733 579.461 179.08 579.888 179.4C580.368 179.667 580.821 179.907 581.248 180.12C581.674 180.28 582.288 180.467 583.088 180.68C583.888 180.84 584.581 181 585.168 181.16C585.754 181.267 586.554 181.427 587.568 181.64C588.581 181.8 589.381 181.933 589.968 182.04C591.674 182.413 593.061 182.76 594.128 183.08C595.248 183.347 596.528 183.827 597.968 184.52C599.408 185.16 600.528 185.907 601.328 186.76C602.181 187.56 602.901 188.68 603.488 190.12C604.128 191.507 604.448 193.133 604.448 195C604.448 199.053 602.848 202.28 599.648 204.68C596.501 207.027 592.341 208.2 587.168 208.2Z" fill="url(#paint4_linear_574_334)"/>
</g>
<g filter="url(#filter5_f_574_334)">
<path opacity="0.25" d="M209.684 199.96C204.671 205.507 198.004 208.28 189.684 208.28C181.364 208.28 174.671 205.507 169.604 199.96C164.591 194.36 162.084 187.213 162.084 178.52C162.084 169.827 164.591 162.68 169.604 157.08C174.671 151.48 181.364 148.68 189.684 148.68C198.004 148.68 204.671 151.48 209.684 157.08C214.697 162.68 217.204 169.827 217.204 178.52C217.204 187.213 214.697 194.36 209.684 199.96ZM178.004 193.08C180.777 196.867 184.697 198.76 189.764 198.76C194.831 198.76 198.697 196.893 201.364 193.16C204.031 189.373 205.364 184.493 205.364 178.52C205.364 172.547 204.031 167.667 201.364 163.88C198.697 160.093 194.831 158.2 189.764 158.2C184.697 158.2 180.777 160.093 178.004 163.88C175.284 167.667 173.924 172.547 173.924 178.52C173.924 184.44 175.284 189.293 178.004 193.08ZM258.268 207H247.788V202.2H247.548C246.055 204.227 244.402 205.72 242.588 206.68C240.828 207.64 238.562 208.12 235.788 208.12C231.308 208.12 227.815 206.787 225.308 204.12C222.802 201.453 221.548 197.853 221.548 193.32V165.96H232.348V191.48C232.348 196.44 234.615 198.92 239.148 198.92C241.655 198.92 243.655 198.067 245.148 196.36C246.642 194.653 247.388 192.413 247.388 189.64V165.96H258.268V207ZM274.986 165.96V172.52H275.226C276.506 170.12 277.919 168.36 279.466 167.24C281.013 166.067 282.959 165.48 285.306 165.48C286.426 165.48 287.279 165.587 287.866 165.8V175.32H287.626C283.946 174.947 280.986 175.747 278.746 177.72C276.506 179.693 275.386 182.787 275.386 187V207H264.506V165.96H274.986ZM315.03 165.96V171.56H315.27C318.097 167.08 322.15 164.84 327.43 164.84C331.644 164.84 335.057 166.28 337.67 169.16C340.284 171.987 341.59 175.667 341.59 180.2V207H330.71V181.8C330.71 179.56 330.07 177.747 328.79 176.36C327.564 174.973 325.83 174.28 323.59 174.28C321.19 174.28 319.19 175.16 317.59 176.92C316.044 178.68 315.27 180.947 315.27 183.72V207H304.39V165.96H315.03ZM383.897 207H373.417V202.2H373.177C371.683 204.227 370.03 205.72 368.217 206.68C366.457 207.64 364.19 208.12 361.417 208.12C356.937 208.12 353.443 206.787 350.937 204.12C348.43 201.453 347.177 197.853 347.177 193.32V165.96H357.977V191.48C357.977 196.44 360.243 198.92 364.777 198.92C367.283 198.92 369.283 198.067 370.777 196.36C372.27 194.653 373.017 192.413 373.017 189.64V165.96H383.897V207ZM390.134 207V165.96H400.614V171.48H400.854C403.467 167.053 407.441 164.84 412.774 164.84C415.334 164.84 417.601 165.507 419.574 166.84C421.601 168.12 423.121 169.853 424.134 172.04H424.294C427.281 167.24 431.387 164.84 436.614 164.84C440.881 164.84 444.187 166.147 446.534 168.76C448.934 171.32 450.134 174.867 450.134 179.4V207H439.254V181.24C439.254 176.547 437.147 174.2 432.934 174.2C430.641 174.2 428.827 175.027 427.494 176.68C426.214 178.28 425.574 180.44 425.574 183.16V207H414.694V181.24C414.694 176.547 412.587 174.2 408.374 174.2C406.187 174.2 404.401 175.027 403.014 176.68C401.681 178.28 401.014 180.44 401.014 183.16V207H390.134ZM478.933 208.2C473.386 208.2 469.306 206.093 466.693 201.88H466.533V207H456.053V149.8H466.933V170.92H467.173C469.786 166.867 473.599 164.84 478.613 164.84C483.786 164.84 488.026 166.867 491.333 170.92C494.639 174.92 496.293 180.12 496.293 186.52C496.293 193.133 494.693 198.413 491.493 202.36C488.293 206.253 484.106 208.2 478.933 208.2ZM476.533 199.08C479.306 199.08 481.439 197.987 482.933 195.8C484.479 193.613 485.253 190.52 485.253 186.52C485.253 182.573 484.453 179.453 482.853 177.16C481.306 174.813 479.066 173.64 476.133 173.64C469.839 173.64 466.693 178.013 466.693 186.76C466.693 190.547 467.573 193.56 469.333 195.8C471.093 197.987 473.493 199.08 476.533 199.08ZM519.845 208.2C513.232 208.2 508.032 206.173 504.245 202.12C500.459 198.013 498.565 192.787 498.565 186.44C498.565 180.307 500.459 175.187 504.245 171.08C508.032 166.92 512.885 164.84 518.805 164.84C525.259 164.84 530.245 167.08 533.765 171.56C537.285 176.04 539.045 182.04 539.045 189.56H509.285C509.712 192.813 510.805 195.347 512.565 197.16C514.325 198.92 516.725 199.8 519.765 199.8C523.765 199.8 526.405 198.12 527.685 194.76H538.405C537.605 198.6 535.579 201.8 532.325 204.36C529.072 206.92 524.912 208.2 519.845 208.2ZM518.965 173.24C513.685 173.24 510.512 176.173 509.445 182.04H527.685C527.525 179.427 526.645 177.32 525.045 175.72C523.445 174.067 521.419 173.24 518.965 173.24ZM553.761 165.96V172.52H554.001C555.281 170.12 556.694 168.36 558.241 167.24C559.788 166.067 561.734 165.48 564.081 165.48C565.201 165.48 566.054 165.587 566.641 165.8V175.32H566.401C562.721 174.947 559.761 175.747 557.521 177.72C555.281 179.693 554.161 182.787 554.161 187V207H543.281V165.96H553.761ZM587.168 208.2C581.301 208.2 576.714 206.92 573.408 204.36C570.101 201.747 568.288 198.2 567.968 193.72H578.048C578.741 198.253 581.728 200.52 587.008 200.52C589.408 200.52 591.248 200.093 592.528 199.24C593.861 198.387 594.528 197.24 594.528 195.8C594.528 195.267 594.421 194.787 594.208 194.36C594.048 193.933 593.728 193.56 593.248 193.24C592.821 192.867 592.421 192.573 592.048 192.36C591.728 192.147 591.141 191.933 590.288 191.72C589.434 191.507 588.768 191.347 588.288 191.24C587.861 191.133 587.088 191 585.968 190.84C584.901 190.627 584.154 190.467 583.728 190.36C581.488 189.933 579.648 189.507 578.208 189.08C576.821 188.6 575.354 187.933 573.808 187.08C572.261 186.173 571.088 184.973 570.288 183.48C569.541 181.933 569.168 180.093 569.168 177.96C569.168 173.693 570.714 170.44 573.808 168.2C576.954 165.96 580.981 164.84 585.888 164.84C591.168 164.84 595.301 166.067 598.288 168.52C601.328 170.92 603.061 174.227 603.488 178.44H593.648C593.221 174.44 590.581 172.44 585.728 172.44C583.541 172.44 581.808 172.84 580.528 173.64C579.301 174.44 578.688 175.56 578.688 177C578.688 177.48 578.768 177.933 578.928 178.36C579.141 178.733 579.461 179.08 579.888 179.4C580.368 179.667 580.821 179.907 581.248 180.12C581.674 180.28 582.288 180.467 583.088 180.68C583.888 180.84 584.581 181 585.168 181.16C585.754 181.267 586.554 181.427 587.568 181.64C588.581 181.8 589.381 181.933 589.968 182.04C591.674 182.413 593.061 182.76 594.128 183.08C595.248 183.347 596.528 183.827 597.968 184.52C599.408 185.16 600.528 185.907 601.328 186.76C602.181 187.56 602.901 188.68 603.488 190.12C604.128 191.507 604.448 193.133 604.448 195C604.448 199.053 602.848 202.28 599.648 204.68C596.501 207.027 592.341 208.2 587.168 208.2Z" fill="url(#paint5_linear_574_334)"/>
</g>
<g filter="url(#filter6_f_574_334)">
<path d="M209.684 199.96C204.671 205.507 198.004 208.28 189.684 208.28C181.364 208.28 174.671 205.507 169.604 199.96C164.591 194.36 162.084 187.213 162.084 178.52C162.084 169.827 164.591 162.68 169.604 157.08C174.671 151.48 181.364 148.68 189.684 148.68C198.004 148.68 204.671 151.48 209.684 157.08C214.697 162.68 217.204 169.827 217.204 178.52C217.204 187.213 214.697 194.36 209.684 199.96ZM178.004 193.08C180.777 196.867 184.697 198.76 189.764 198.76C194.831 198.76 198.697 196.893 201.364 193.16C204.031 189.373 205.364 184.493 205.364 178.52C205.364 172.547 204.031 167.667 201.364 163.88C198.697 160.093 194.831 158.2 189.764 158.2C184.697 158.2 180.777 160.093 178.004 163.88C175.284 167.667 173.924 172.547 173.924 178.52C173.924 184.44 175.284 189.293 178.004 193.08ZM258.268 207H247.788V202.2H247.548C246.055 204.227 244.402 205.72 242.588 206.68C240.828 207.64 238.562 208.12 235.788 208.12C231.308 208.12 227.815 206.787 225.308 204.12C222.802 201.453 221.548 197.853 221.548 193.32V165.96H232.348V191.48C232.348 196.44 234.615 198.92 239.148 198.92C241.655 198.92 243.655 198.067 245.148 196.36C246.642 194.653 247.388 192.413 247.388 189.64V165.96H258.268V207ZM274.986 165.96V172.52H275.226C276.506 170.12 277.919 168.36 279.466 167.24C281.013 166.067 282.959 165.48 285.306 165.48C286.426 165.48 287.279 165.587 287.866 165.8V175.32H287.626C283.946 174.947 280.986 175.747 278.746 177.72C276.506 179.693 275.386 182.787 275.386 187V207H264.506V165.96H274.986ZM315.03 165.96V171.56H315.27C318.097 167.08 322.15 164.84 327.43 164.84C331.644 164.84 335.057 166.28 337.67 169.16C340.284 171.987 341.59 175.667 341.59 180.2V207H330.71V181.8C330.71 179.56 330.07 177.747 328.79 176.36C327.564 174.973 325.83 174.28 323.59 174.28C321.19 174.28 319.19 175.16 317.59 176.92C316.044 178.68 315.27 180.947 315.27 183.72V207H304.39V165.96H315.03ZM383.897 207H373.417V202.2H373.177C371.683 204.227 370.03 205.72 368.217 206.68C366.457 207.64 364.19 208.12 361.417 208.12C356.937 208.12 353.443 206.787 350.937 204.12C348.43 201.453 347.177 197.853 347.177 193.32V165.96H357.977V191.48C357.977 196.44 360.243 198.92 364.777 198.92C367.283 198.92 369.283 198.067 370.777 196.36C372.27 194.653 373.017 192.413 373.017 189.64V165.96H383.897V207ZM390.134 207V165.96H400.614V171.48H400.854C403.467 167.053 407.441 164.84 412.774 164.84C415.334 164.84 417.601 165.507 419.574 166.84C421.601 168.12 423.121 169.853 424.134 172.04H424.294C427.281 167.24 431.387 164.84 436.614 164.84C440.881 164.84 444.187 166.147 446.534 168.76C448.934 171.32 450.134 174.867 450.134 179.4V207H439.254V181.24C439.254 176.547 437.147 174.2 432.934 174.2C430.641 174.2 428.827 175.027 427.494 176.68C426.214 178.28 425.574 180.44 425.574 183.16V207H414.694V181.24C414.694 176.547 412.587 174.2 408.374 174.2C406.187 174.2 404.401 175.027 403.014 176.68C401.681 178.28 401.014 180.44 401.014 183.16V207H390.134ZM478.933 208.2C473.386 208.2 469.306 206.093 466.693 201.88H466.533V207H456.053V149.8H466.933V170.92H467.173C469.786 166.867 473.599 164.84 478.613 164.84C483.786 164.84 488.026 166.867 491.333 170.92C494.639 174.92 496.293 180.12 496.293 186.52C496.293 193.133 494.693 198.413 491.493 202.36C488.293 206.253 484.106 208.2 478.933 208.2ZM476.533 199.08C479.306 199.08 481.439 197.987 482.933 195.8C484.479 193.613 485.253 190.52 485.253 186.52C485.253 182.573 484.453 179.453 482.853 177.16C481.306 174.813 479.066 173.64 476.133 173.64C469.839 173.64 466.693 178.013 466.693 186.76C466.693 190.547 467.573 193.56 469.333 195.8C471.093 197.987 473.493 199.08 476.533 199.08ZM519.845 208.2C513.232 208.2 508.032 206.173 504.245 202.12C500.459 198.013 498.565 192.787 498.565 186.44C498.565 180.307 500.459 175.187 504.245 171.08C508.032 166.92 512.885 164.84 518.805 164.84C525.259 164.84 530.245 167.08 533.765 171.56C537.285 176.04 539.045 182.04 539.045 189.56H509.285C509.712 192.813 510.805 195.347 512.565 197.16C514.325 198.92 516.725 199.8 519.765 199.8C523.765 199.8 526.405 198.12 527.685 194.76H538.405C537.605 198.6 535.579 201.8 532.325 204.36C529.072 206.92 524.912 208.2 519.845 208.2ZM518.965 173.24C513.685 173.24 510.512 176.173 509.445 182.04H527.685C527.525 179.427 526.645 177.32 525.045 175.72C523.445 174.067 521.419 173.24 518.965 173.24ZM553.761 165.96V172.52H554.001C555.281 170.12 556.694 168.36 558.241 167.24C559.788 166.067 561.734 165.48 564.081 165.48C565.201 165.48 566.054 165.587 566.641 165.8V175.32H566.401C562.721 174.947 559.761 175.747 557.521 177.72C555.281 179.693 554.161 182.787 554.161 187V207H543.281V165.96H553.761ZM587.168 208.2C581.301 208.2 576.714 206.92 573.408 204.36C570.101 201.747 568.288 198.2 567.968 193.72H578.048C578.741 198.253 581.728 200.52 587.008 200.52C589.408 200.52 591.248 200.093 592.528 199.24C593.861 198.387 594.528 197.24 594.528 195.8C594.528 195.267 594.421 194.787 594.208 194.36C594.048 193.933 593.728 193.56 593.248 193.24C592.821 192.867 592.421 192.573 592.048 192.36C591.728 192.147 591.141 191.933 590.288 191.72C589.434 191.507 588.768 191.347 588.288 191.24C587.861 191.133 587.088 191 585.968 190.84C584.901 190.627 584.154 190.467 583.728 190.36C581.488 189.933 579.648 189.507 578.208 189.08C576.821 188.6 575.354 187.933 573.808 187.08C572.261 186.173 571.088 184.973 570.288 183.48C569.541 181.933 569.168 180.093 569.168 177.96C569.168 173.693 570.714 170.44 573.808 168.2C576.954 165.96 580.981 164.84 585.888 164.84C591.168 164.84 595.301 166.067 598.288 168.52C601.328 170.92 603.061 174.227 603.488 178.44H593.648C593.221 174.44 590.581 172.44 585.728 172.44C583.541 172.44 581.808 172.84 580.528 173.64C579.301 174.44 578.688 175.56 578.688 177C578.688 177.48 578.768 177.933 578.928 178.36C579.141 178.733 579.461 179.08 579.888 179.4C580.368 179.667 580.821 179.907 581.248 180.12C581.674 180.28 582.288 180.467 583.088 180.68C583.888 180.84 584.581 181 585.168 181.16C585.754 181.267 586.554 181.427 587.568 181.64C588.581 181.8 589.381 181.933 589.968 182.04C591.674 182.413 593.061 182.76 594.128 183.08C595.248 183.347 596.528 183.827 597.968 184.52C599.408 185.16 600.528 185.907 601.328 186.76C602.181 187.56 602.901 188.68 603.488 190.12C604.128 191.507 604.448 193.133 604.448 195C604.448 199.053 602.848 202.28 599.648 204.68C596.501 207.027 592.341 208.2 587.168 208.2Z" fill="url(#paint6_linear_574_334)"/>
</g>
<g style="mix-blend-mode:soft-light" filter="url(#filter7_f_574_334)">
<path d="M209.684 199.96C204.671 205.507 198.004 208.28 189.684 208.28C181.364 208.28 174.671 205.507 169.604 199.96C164.591 194.36 162.084 187.213 162.084 178.52C162.084 169.827 164.591 162.68 169.604 157.08C174.671 151.48 181.364 148.68 189.684 148.68C198.004 148.68 204.671 151.48 209.684 157.08C214.697 162.68 217.204 169.827 217.204 178.52C217.204 187.213 214.697 194.36 209.684 199.96ZM178.004 193.08C180.777 196.867 184.697 198.76 189.764 198.76C194.831 198.76 198.697 196.893 201.364 193.16C204.031 189.373 205.364 184.493 205.364 178.52C205.364 172.547 204.031 167.667 201.364 163.88C198.697 160.093 194.831 158.2 189.764 158.2C184.697 158.2 180.777 160.093 178.004 163.88C175.284 167.667 173.924 172.547 173.924 178.52C173.924 184.44 175.284 189.293 178.004 193.08ZM258.268 207H247.788V202.2H247.548C246.055 204.227 244.402 205.72 242.588 206.68C240.828 207.64 238.562 208.12 235.788 208.12C231.308 208.12 227.815 206.787 225.308 204.12C222.802 201.453 221.548 197.853 221.548 193.32V165.96H232.348V191.48C232.348 196.44 234.615 198.92 239.148 198.92C241.655 198.92 243.655 198.067 245.148 196.36C246.642 194.653 247.388 192.413 247.388 189.64V165.96H258.268V207ZM274.986 165.96V172.52H275.226C276.506 170.12 277.919 168.36 279.466 167.24C281.013 166.067 282.959 165.48 285.306 165.48C286.426 165.48 287.279 165.587 287.866 165.8V175.32H287.626C283.946 174.947 280.986 175.747 278.746 177.72C276.506 179.693 275.386 182.787 275.386 187V207H264.506V165.96H274.986ZM315.03 165.96V171.56H315.27C318.097 167.08 322.15 164.84 327.43 164.84C331.644 164.84 335.057 166.28 337.67 169.16C340.284 171.987 341.59 175.667 341.59 180.2V207H330.71V181.8C330.71 179.56 330.07 177.747 328.79 176.36C327.564 174.973 325.83 174.28 323.59 174.28C321.19 174.28 319.19 175.16 317.59 176.92C316.044 178.68 315.27 180.947 315.27 183.72V207H304.39V165.96H315.03ZM383.897 207H373.417V202.2H373.177C371.683 204.227 370.03 205.72 368.217 206.68C366.457 207.64 364.19 208.12 361.417 208.12C356.937 208.12 353.443 206.787 350.937 204.12C348.43 201.453 347.177 197.853 347.177 193.32V165.96H357.977V191.48C357.977 196.44 360.243 198.92 364.777 198.92C367.283 198.92 369.283 198.067 370.777 196.36C372.27 194.653 373.017 192.413 373.017 189.64V165.96H383.897V207ZM390.134 207V165.96H400.614V171.48H400.854C403.467 167.053 407.441 164.84 412.774 164.84C415.334 164.84 417.601 165.507 419.574 166.84C421.601 168.12 423.121 169.853 424.134 172.04H424.294C427.281 167.24 431.387 164.84 436.614 164.84C440.881 164.84 444.187 166.147 446.534 168.76C448.934 171.32 450.134 174.867 450.134 179.4V207H439.254V181.24C439.254 176.547 437.147 174.2 432.934 174.2C430.641 174.2 428.827 175.027 427.494 176.68C426.214 178.28 425.574 180.44 425.574 183.16V207H414.694V181.24C414.694 176.547 412.587 174.2 408.374 174.2C406.187 174.2 404.401 175.027 403.014 176.68C401.681 178.28 401.014 180.44 401.014 183.16V207H390.134ZM478.933 208.2C473.386 208.2 469.306 206.093 466.693 201.88H466.533V207H456.053V149.8H466.933V170.92H467.173C469.786 166.867 473.599 164.84 478.613 164.84C483.786 164.84 488.026 166.867 491.333 170.92C494.639 174.92 496.293 180.12 496.293 186.52C496.293 193.133 494.693 198.413 491.493 202.36C488.293 206.253 484.106 208.2 478.933 208.2ZM476.533 199.08C479.306 199.08 481.439 197.987 482.933 195.8C484.479 193.613 485.253 190.52 485.253 186.52C485.253 182.573 484.453 179.453 482.853 177.16C481.306 174.813 479.066 173.64 476.133 173.64C469.839 173.64 466.693 178.013 466.693 186.76C466.693 190.547 467.573 193.56 469.333 195.8C471.093 197.987 473.493 199.08 476.533 199.08ZM519.845 208.2C513.232 208.2 508.032 206.173 504.245 202.12C500.459 198.013 498.565 192.787 498.565 186.44C498.565 180.307 500.459 175.187 504.245 171.08C508.032 166.92 512.885 164.84 518.805 164.84C525.259 164.84 530.245 167.08 533.765 171.56C537.285 176.04 539.045 182.04 539.045 189.56H509.285C509.712 192.813 510.805 195.347 512.565 197.16C514.325 198.92 516.725 199.8 519.765 199.8C523.765 199.8 526.405 198.12 527.685 194.76H538.405C537.605 198.6 535.579 201.8 532.325 204.36C529.072 206.92 524.912 208.2 519.845 208.2ZM518.965 173.24C513.685 173.24 510.512 176.173 509.445 182.04H527.685C527.525 179.427 526.645 177.32 525.045 175.72C523.445 174.067 521.419 173.24 518.965 173.24ZM553.761 165.96V172.52H554.001C555.281 170.12 556.694 168.36 558.241 167.24C559.788 166.067 561.734 165.48 564.081 165.48C565.201 165.48 566.054 165.587 566.641 165.8V175.32H566.401C562.721 174.947 559.761 175.747 557.521 177.72C555.281 179.693 554.161 182.787 554.161 187V207H543.281V165.96H553.761ZM587.168 208.2C581.301 208.2 576.714 206.92 573.408 204.36C570.101 201.747 568.288 198.2 567.968 193.72H578.048C578.741 198.253 581.728 200.52 587.008 200.52C589.408 200.52 591.248 200.093 592.528 199.24C593.861 198.387 594.528 197.24 594.528 195.8C594.528 195.267 594.421 194.787 594.208 194.36C594.048 193.933 593.728 193.56 593.248 193.24C592.821 192.867 592.421 192.573 592.048 192.36C591.728 192.147 591.141 191.933 590.288 191.72C589.434 191.507 588.768 191.347 588.288 191.24C587.861 191.133 587.088 191 585.968 190.84C584.901 190.627 584.154 190.467 583.728 190.36C581.488 189.933 579.648 189.507 578.208 189.08C576.821 188.6 575.354 187.933 573.808 187.08C572.261 186.173 571.088 184.973 570.288 183.48C569.541 181.933 569.168 180.093 569.168 177.96C569.168 173.693 570.714 170.44 573.808 168.2C576.954 165.96 580.981 164.84 585.888 164.84C591.168 164.84 595.301 166.067 598.288 168.52C601.328 170.92 603.061 174.227 603.488 178.44H593.648C593.221 174.44 590.581 172.44 585.728 172.44C583.541 172.44 581.808 172.84 580.528 173.64C579.301 174.44 578.688 175.56 578.688 177C578.688 177.48 578.768 177.933 578.928 178.36C579.141 178.733 579.461 179.08 579.888 179.4C580.368 179.667 580.821 179.907 581.248 180.12C581.674 180.28 582.288 180.467 583.088 180.68C583.888 180.84 584.581 181 585.168 181.16C585.754 181.267 586.554 181.427 587.568 181.64C588.581 181.8 589.381 181.933 589.968 182.04C591.674 182.413 593.061 182.76 594.128 183.08C595.248 183.347 596.528 183.827 597.968 184.52C599.408 185.16 600.528 185.907 601.328 186.76C602.181 187.56 602.901 188.68 603.488 190.12C604.128 191.507 604.448 193.133 604.448 195C604.448 199.053 602.848 202.28 599.648 204.68C596.501 207.027 592.341 208.2 587.168 208.2Z" fill="white"/>
</g>
<path d="M209.684 199.96C204.671 205.507 198.004 208.28 189.684 208.28C181.364 208.28 174.671 205.507 169.604 199.96C164.591 194.36 162.084 187.213 162.084 178.52C162.084 169.827 164.591 162.68 169.604 157.08C174.671 151.48 181.364 148.68 189.684 148.68C198.004 148.68 204.671 151.48 209.684 157.08C214.697 162.68 217.204 169.827 217.204 178.52C217.204 187.213 214.697 194.36 209.684 199.96ZM178.004 193.08C180.777 196.867 184.697 198.76 189.764 198.76C194.831 198.76 198.697 196.893 201.364 193.16C204.031 189.373 205.364 184.493 205.364 178.52C205.364 172.547 204.031 167.667 201.364 163.88C198.697 160.093 194.831 158.2 189.764 158.2C184.697 158.2 180.777 160.093 178.004 163.88C175.284 167.667 173.924 172.547 173.924 178.52C173.924 184.44 175.284 189.293 178.004 193.08ZM258.268 207H247.788V202.2H247.548C246.055 204.227 244.402 205.72 242.588 206.68C240.828 207.64 238.562 208.12 235.788 208.12C231.308 208.12 227.815 206.787 225.308 204.12C222.802 201.453 221.548 197.853 221.548 193.32V165.96H232.348V191.48C232.348 196.44 234.615 198.92 239.148 198.92C241.655 198.92 243.655 198.067 245.148 196.36C246.642 194.653 247.388 192.413 247.388 189.64V165.96H258.268V207ZM274.986 165.96V172.52H275.226C276.506 170.12 277.919 168.36 279.466 167.24C281.013 166.067 282.959 165.48 285.306 165.48C286.426 165.48 287.279 165.587 287.866 165.8V175.32H287.626C283.946 174.947 280.986 175.747 278.746 177.72C276.506 179.693 275.386 182.787 275.386 187V207H264.506V165.96H274.986ZM315.03 165.96V171.56H315.27C318.097 167.08 322.15 164.84 327.43 164.84C331.644 164.84 335.057 166.28 337.67 169.16C340.284 171.987 341.59 175.667 341.59 180.2V207H330.71V181.8C330.71 179.56 330.07 177.747 328.79 176.36C327.564 174.973 325.83 174.28 323.59 174.28C321.19 174.28 319.19 175.16 317.59 176.92C316.044 178.68 315.27 180.947 315.27 183.72V207H304.39V165.96H315.03ZM383.897 207H373.417V202.2H373.177C371.683 204.227 370.03 205.72 368.217 206.68C366.457 207.64 364.19 208.12 361.417 208.12C356.937 208.12 353.443 206.787 350.937 204.12C348.43 201.453 347.177 197.853 347.177 193.32V165.96H357.977V191.48C357.977 196.44 360.243 198.92 364.777 198.92C367.283 198.92 369.283 198.067 370.777 196.36C372.27 194.653 373.017 192.413 373.017 189.64V165.96H383.897V207ZM390.134 207V165.96H400.614V171.48H400.854C403.467 167.053 407.441 164.84 412.774 164.84C415.334 164.84 417.601 165.507 419.574 166.84C421.601 168.12 423.121 169.853 424.134 172.04H424.294C427.281 167.24 431.387 164.84 436.614 164.84C440.881 164.84 444.187 166.147 446.534 168.76C448.934 171.32 450.134 174.867 450.134 179.4V207H439.254V181.24C439.254 176.547 437.147 174.2 432.934 174.2C430.641 174.2 428.827 175.027 427.494 176.68C426.214 178.28 425.574 180.44 425.574 183.16V207H414.694V181.24C414.694 176.547 412.587 174.2 408.374 174.2C406.187 174.2 404.401 175.027 403.014 176.68C401.681 178.28 401.014 180.44 401.014 183.16V207H390.134ZM478.933 208.2C473.386 208.2 469.306 206.093 466.693 201.88H466.533V207H456.053V149.8H466.933V170.92H467.173C469.786 166.867 473.599 164.84 478.613 164.84C483.786 164.84 488.026 166.867 491.333 170.92C494.639 174.92 496.293 180.12 496.293 186.52C496.293 193.133 494.693 198.413 491.493 202.36C488.293 206.253 484.106 208.2 478.933 208.2ZM476.533 199.08C479.306 199.08 481.439 197.987 482.933 195.8C484.479 193.613 485.253 190.52 485.253 186.52C485.253 182.573 484.453 179.453 482.853 177.16C481.306 174.813 479.066 173.64 476.133 173.64C469.839 173.64 466.693 178.013 466.693 186.76C466.693 190.547 467.573 193.56 469.333 195.8C471.093 197.987 473.493 199.08 476.533 199.08ZM519.845 208.2C513.232 208.2 508.032 206.173 504.245 202.12C500.459 198.013 498.565 192.787 498.565 186.44C498.565 180.307 500.459 175.187 504.245 171.08C508.032 166.92 512.885 164.84 518.805 164.84C525.259 164.84 530.245 167.08 533.765 171.56C537.285 176.04 539.045 182.04 539.045 189.56H509.285C509.712 192.813 510.805 195.347 512.565 197.16C514.325 198.92 516.725 199.8 519.765 199.8C523.765 199.8 526.405 198.12 527.685 194.76H538.405C537.605 198.6 535.579 201.8 532.325 204.36C529.072 206.92 524.912 208.2 519.845 208.2ZM518.965 173.24C513.685 173.24 510.512 176.173 509.445 182.04H527.685C527.525 179.427 526.645 177.32 525.045 175.72C523.445 174.067 521.419 173.24 518.965 173.24ZM553.761 165.96V172.52H554.001C555.281 170.12 556.694 168.36 558.241 167.24C559.788 166.067 561.734 165.48 564.081 165.48C565.201 165.48 566.054 165.587 566.641 165.8V175.32H566.401C562.721 174.947 559.761 175.747 557.521 177.72C555.281 179.693 554.161 182.787 554.161 187V207H543.281V165.96H553.761ZM587.168 208.2C581.301 208.2 576.714 206.92 573.408 204.36C570.101 201.747 568.288 198.2 567.968 193.72H578.048C578.741 198.253 581.728 200.52 587.008 200.52C589.408 200.52 591.248 200.093 592.528 199.24C593.861 198.387 594.528 197.24 594.528 195.8C594.528 195.267 594.421 194.787 594.208 194.36C594.048 193.933 593.728 193.56 593.248 193.24C592.821 192.867 592.421 192.573 592.048 192.36C591.728 192.147 591.141 191.933 590.288 191.72C589.434 191.507 588.768 191.347 588.288 191.24C587.861 191.133 587.088 191 585.968 190.84C584.901 190.627 584.154 190.467 583.728 190.36C581.488 189.933 579.648 189.507 578.208 189.08C576.821 188.6 575.354 187.933 573.808 187.08C572.261 186.173 571.088 184.973 570.288 183.48C569.541 181.933 569.168 180.093 569.168 177.96C569.168 173.693 570.714 170.44 573.808 168.2C576.954 165.96 580.981 164.84 585.888 164.84C591.168 164.84 595.301 166.067 598.288 168.52C601.328 170.92 603.061 174.227 603.488 178.44H593.648C593.221 174.44 590.581 172.44 585.728 172.44C583.541 172.44 581.808 172.84 580.528 173.64C579.301 174.44 578.688 175.56 578.688 177C578.688 177.48 578.768 177.933 578.928 178.36C579.141 178.733 579.461 179.08 579.888 179.4C580.368 179.667 580.821 179.907 581.248 180.12C581.674 180.28 582.288 180.467 583.088 180.68C583.888 180.84 584.581 181 585.168 181.16C585.754 181.267 586.554 181.427 587.568 181.64C588.581 181.8 589.381 181.933 589.968 182.04C591.674 182.413 593.061 182.76 594.128 183.08C595.248 183.347 596.528 183.827 597.968 184.52C599.408 185.16 600.528 185.907 601.328 186.76C602.181 187.56 602.901 188.68 603.488 190.12C604.128 191.507 604.448 193.133 604.448 195C604.448 199.053 602.848 202.28 599.648 204.68C596.501 207.027 592.341 208.2 587.168 208.2Z" fill="white"/>
<defs>
<filter id="filter0_f_574_334" x="0" y="0" width="766" height="380" filterUnits="userSpaceOnUse" color-interpolation-filters="sRGB">
<feFlood flood-opacity="0" result="BackgroundImageFix"/>
<feBlend mode="normal" in="SourceGraphic" in2="BackgroundImageFix" result="shape"/>
<feGaussianBlur stdDeviation="80" result="effect1_foregroundBlur_574_334"/>
</filter>
<filter id="filter1_f_574_334" x="130" y="112" width="506" height="140" filterUnits="userSpaceOnUse" color-interpolation-filters="sRGB">
<feFlood flood-opacity="0" result="BackgroundImageFix"/>
<feBlend mode="normal" in="SourceGraphic" in2="BackgroundImageFix" result="shape"/>
<feGaussianBlur stdDeviation="15" result="effect1_foregroundBlur_574_334"/>
</filter>
<filter id="filter2_f_574_334" x="130" y="112" width="506" height="140" filterUnits="userSpaceOnUse" color-interpolation-filters="sRGB">
<feFlood flood-opacity="0" result="BackgroundImageFix"/>
<feBlend mode="normal" in="SourceGraphic" in2="BackgroundImageFix" result="shape"/>
<feGaussianBlur stdDeviation="15" result="effect1_foregroundBlur_574_334"/>
</filter>
<filter id="filter3_f_574_334" x="100" y="82" width="566" height="200" filterUnits="userSpaceOnUse" color-interpolation-filters="sRGB">
<feFlood flood-opacity="0" result="BackgroundImageFix"/>
<feBlend mode="normal" in="SourceGraphic" in2="BackgroundImageFix" result="shape"/>
<feGaussianBlur stdDeviation="30" result="effect1_foregroundBlur_574_334"/>
</filter>
<filter id="filter4_f_574_334" x="150" y="132" width="466" height="100" filterUnits="userSpaceOnUse" color-interpolation-filters="sRGB">
<feFlood flood-opacity="0" result="BackgroundImageFix"/>
<feBlend mode="normal" in="SourceGraphic" in2="BackgroundImageFix" result="shape"/>
<feGaussianBlur stdDeviation="5" result="effect1_foregroundBlur_574_334"/>
</filter>
<filter id="filter5_f_574_334" x="130" y="112" width="506" height="140" filterUnits="userSpaceOnUse" color-interpolation-filters="sRGB">
<feFlood flood-opacity="0" result="BackgroundImageFix"/>
<feBlend mode="normal" in="SourceGraphic" in2="BackgroundImageFix" result="shape"/>
<feGaussianBlur stdDeviation="15" result="effect1_foregroundBlur_574_334"/>
</filter>
<filter id="filter6_f_574_334" x="140" y="122" width="486" height="120" filterUnits="userSpaceOnUse" color-interpolation-filters="sRGB">
<feFlood flood-opacity="0" result="BackgroundImageFix"/>
<feBlend mode="normal" in="SourceGraphic" in2="BackgroundImageFix" result="shape"/>
<feGaussianBlur stdDeviation="10" result="effect1_foregroundBlur_574_334"/>
</filter>
<filter id="filter7_f_574_334" x="152" y="134" width="462" height="96" filterUnits="userSpaceOnUse" color-interpolation-filters="sRGB">
<feFlood flood-opacity="0" result="BackgroundImageFix"/>
<feBlend mode="normal" in="SourceGraphic" in2="BackgroundImageFix" result="shape"/>
<feGaussianBlur stdDeviation="4" result="effect1_foregroundBlur_574_334"/>
</filter>
<linearGradient id="paint0_linear_574_334" x1="383" y1="160" x2="383" y2="220" gradientUnits="userSpaceOnUse">
<stop stop-color="#C6561E"/>
<stop offset="1" stop-color="#292594"/>
</linearGradient>
<linearGradient id="paint1_linear_574_334" x1="383" y1="142" x2="383" y2="222" gradientUnits="userSpaceOnUse">
<stop stop-color="#321607"/>
<stop offset="1" stop-color="#0A0925"/>
</linearGradient>
<linearGradient id="paint2_linear_574_334" x1="383" y1="142" x2="383" y2="222" gradientUnits="userSpaceOnUse">
<stop stop-color="#954116"/>
<stop offset="1" stop-color="#292594"/>
</linearGradient>
<linearGradient id="paint3_linear_574_334" x1="383" y1="142" x2="383" y2="222" gradientUnits="userSpaceOnUse">
<stop stop-color="#F9915C"/>
<stop offset="1" stop-color="#5C58C7"/>
</linearGradient>
<linearGradient id="paint4_linear_574_334" x1="383" y1="142" x2="383" y2="222" gradientUnits="userSpaceOnUse">
<stop stop-color="#FDD3BE"/>
<stop offset="1" stop-color="#C2C0EA"/>
</linearGradient>
<linearGradient id="paint5_linear_574_334" x1="383" y1="142" x2="383" y2="222" gradientUnits="userSpaceOnUse">
<stop stop-color="#FEE2D3"/>
<stop offset="1" stop-color="#EBEAF8"/>
</linearGradient>
<linearGradient id="paint6_linear_574_334" x1="383" y1="142" x2="383" y2="222" gradientUnits="userSpaceOnUse">
<stop stop-color="#F86C25"/>
<stop offset="1" stop-color="#8582D5"/>
</linearGradient>
</defs>
</svg>
