<svg width="1184" height="512" viewBox="0 0 1184 512" fill="none" xmlns="http://www.w3.org/2000/svg">
<g filter="url(#filter0_f_559_1795)">
<rect x="160" y="160" width="864" height="192" fill="url(#paint0_linear_559_1795)"/>
</g>
<g filter="url(#filter1_f_559_1795)">
<path d="M222.257 273V202.344L161.329 89.96H201.777L229.425 144.232L241.457 170.344H241.969C246.577 160.275 250.673 151.571 254.257 144.232L281.393 89.96H320.305L259.377 202.344V273H222.257ZM364.705 276.84C343.542 276.84 326.902 270.355 314.785 257.384C302.668 244.243 296.609 227.517 296.609 207.208C296.609 187.581 302.668 171.197 314.785 158.056C326.902 144.744 342.433 138.088 361.377 138.088C382.028 138.088 397.985 145.256 409.249 159.592C420.513 173.928 426.145 193.128 426.145 217.192H330.913C332.278 227.603 335.777 235.709 341.409 241.512C347.041 247.144 354.721 249.96 364.449 249.96C377.249 249.96 385.697 244.584 389.793 233.832H424.097C421.537 246.12 415.052 256.36 404.641 264.552C394.23 272.744 380.918 276.84 364.705 276.84ZM361.889 164.968C344.993 164.968 334.838 174.355 331.425 193.128H389.793C389.281 184.765 386.465 178.024 381.345 172.904C376.225 167.613 369.74 164.968 361.889 164.968ZM492.947 276.84C474.174 276.84 459.496 272.744 448.915 264.552C438.334 256.189 432.531 244.84 431.507 230.504H463.763C465.982 245.011 475.539 252.264 492.435 252.264C500.115 252.264 506.003 250.899 510.099 248.168C514.366 245.437 516.499 241.768 516.499 237.16C516.499 235.453 516.158 233.917 515.475 232.552C514.963 231.187 513.939 229.992 512.403 228.968C511.038 227.773 509.758 226.835 508.563 226.152C507.539 225.469 505.662 224.787 502.931 224.104C500.2 223.421 498.067 222.909 496.531 222.568C495.166 222.227 492.691 221.8 489.107 221.288C485.694 220.605 483.304 220.093 481.939 219.752C474.771 218.387 468.883 217.021 464.275 215.656C459.838 214.12 455.144 211.987 450.195 209.256C445.246 206.355 441.491 202.515 438.931 197.736C436.542 192.787 435.347 186.899 435.347 180.072C435.347 166.419 440.296 156.008 450.195 148.84C460.264 141.672 473.15 138.088 488.851 138.088C505.747 138.088 518.974 142.013 528.531 149.864C538.259 157.544 543.806 168.125 545.171 181.608H513.683C512.318 168.808 503.87 162.408 488.339 162.408C481.342 162.408 475.795 163.688 471.699 166.248C467.774 168.808 465.811 172.392 465.811 177C465.811 178.536 466.067 179.987 466.579 181.352C467.262 182.547 468.286 183.656 469.651 184.68C471.187 185.533 472.638 186.301 474.003 186.984C475.368 187.496 477.331 188.093 479.891 188.776C482.451 189.288 484.67 189.8 486.547 190.312C488.424 190.653 490.984 191.165 494.227 191.848C497.47 192.36 500.03 192.787 501.907 193.128C507.368 194.323 511.806 195.432 515.219 196.456C518.803 197.309 522.899 198.845 527.507 201.064C532.115 203.112 535.699 205.501 538.259 208.232C540.99 210.792 543.294 214.376 545.171 218.984C547.219 223.421 548.243 228.627 548.243 234.6C548.243 247.571 543.123 257.896 532.883 265.576C522.814 273.085 509.502 276.84 492.947 276.84ZM623.567 276.84C603.258 276.84 586.959 270.269 574.671 257.128C562.383 243.987 556.239 227.432 556.239 207.464C556.239 187.496 562.212 170.941 574.159 157.8C586.276 144.659 602.148 138.088 621.775 138.088C638.33 138.088 651.812 142.44 662.223 151.144C672.634 159.848 679.034 171.539 681.423 186.216H647.375C646.18 180.243 643.45 175.379 639.183 171.624C634.916 167.869 629.626 165.992 623.311 165.992C613.071 165.992 605.22 169.661 599.759 177C594.298 184.339 591.567 194.493 591.567 207.464C591.567 220.264 594.212 230.419 599.503 237.928C604.794 245.267 612.559 248.936 622.799 248.936C637.988 248.936 646.778 241.512 649.167 226.664H682.703C681.508 241.171 675.62 253.203 665.039 262.76C654.458 272.147 640.634 276.84 623.567 276.84ZM806.945 257.128C794.145 270.269 777.676 276.84 757.537 276.84C737.398 276.84 720.929 270.269 708.129 257.128C695.329 243.816 688.929 227.261 688.929 207.464C688.929 187.667 695.329 171.197 708.129 158.056C720.929 144.744 737.398 138.088 757.537 138.088C777.676 138.088 794.145 144.744 806.945 158.056C819.745 171.197 826.145 187.667 826.145 207.464C826.145 227.261 819.745 243.816 806.945 257.128ZM757.537 250.216C767.948 250.216 776.054 246.376 781.857 238.696C787.83 230.845 790.817 220.435 790.817 207.464C790.817 194.493 787.83 184.083 781.857 176.232C776.054 168.381 767.948 164.456 757.537 164.456C746.956 164.456 738.764 168.381 732.961 176.232C727.158 183.912 724.257 194.323 724.257 207.464C724.257 220.435 727.158 230.845 732.961 238.696C738.764 246.376 746.956 250.216 757.537 250.216ZM839.769 273V141.672H874.585V273H839.769ZM839.769 121.192V89.96H874.585V121.192H839.769ZM928.507 141.672V159.592H929.275C938.32 145.256 951.291 138.088 968.187 138.088C981.67 138.088 992.592 142.696 1000.96 151.912C1009.32 160.957 1013.5 172.733 1013.5 187.24V273H978.683V192.36C978.683 185.192 976.635 179.389 972.539 174.952C968.614 170.515 963.067 168.296 955.899 168.296C948.219 168.296 941.819 171.112 936.699 176.744C931.75 182.376 929.275 189.629 929.275 198.504V273H894.459V141.672H928.507Z" fill="url(#paint1_linear_559_1795)"/>
</g>
<g filter="url(#filter2_f_559_1795)">
<path d="M222.257 273V202.344L161.329 89.96H201.777L229.425 144.232L241.457 170.344H241.969C246.577 160.275 250.673 151.571 254.257 144.232L281.393 89.96H320.305L259.377 202.344V273H222.257ZM364.705 276.84C343.542 276.84 326.902 270.355 314.785 257.384C302.668 244.243 296.609 227.517 296.609 207.208C296.609 187.581 302.668 171.197 314.785 158.056C326.902 144.744 342.433 138.088 361.377 138.088C382.028 138.088 397.985 145.256 409.249 159.592C420.513 173.928 426.145 193.128 426.145 217.192H330.913C332.278 227.603 335.777 235.709 341.409 241.512C347.041 247.144 354.721 249.96 364.449 249.96C377.249 249.96 385.697 244.584 389.793 233.832H424.097C421.537 246.12 415.052 256.36 404.641 264.552C394.23 272.744 380.918 276.84 364.705 276.84ZM361.889 164.968C344.993 164.968 334.838 174.355 331.425 193.128H389.793C389.281 184.765 386.465 178.024 381.345 172.904C376.225 167.613 369.74 164.968 361.889 164.968ZM492.947 276.84C474.174 276.84 459.496 272.744 448.915 264.552C438.334 256.189 432.531 244.84 431.507 230.504H463.763C465.982 245.011 475.539 252.264 492.435 252.264C500.115 252.264 506.003 250.899 510.099 248.168C514.366 245.437 516.499 241.768 516.499 237.16C516.499 235.453 516.158 233.917 515.475 232.552C514.963 231.187 513.939 229.992 512.403 228.968C511.038 227.773 509.758 226.835 508.563 226.152C507.539 225.469 505.662 224.787 502.931 224.104C500.2 223.421 498.067 222.909 496.531 222.568C495.166 222.227 492.691 221.8 489.107 221.288C485.694 220.605 483.304 220.093 481.939 219.752C474.771 218.387 468.883 217.021 464.275 215.656C459.838 214.12 455.144 211.987 450.195 209.256C445.246 206.355 441.491 202.515 438.931 197.736C436.542 192.787 435.347 186.899 435.347 180.072C435.347 166.419 440.296 156.008 450.195 148.84C460.264 141.672 473.15 138.088 488.851 138.088C505.747 138.088 518.974 142.013 528.531 149.864C538.259 157.544 543.806 168.125 545.171 181.608H513.683C512.318 168.808 503.87 162.408 488.339 162.408C481.342 162.408 475.795 163.688 471.699 166.248C467.774 168.808 465.811 172.392 465.811 177C465.811 178.536 466.067 179.987 466.579 181.352C467.262 182.547 468.286 183.656 469.651 184.68C471.187 185.533 472.638 186.301 474.003 186.984C475.368 187.496 477.331 188.093 479.891 188.776C482.451 189.288 484.67 189.8 486.547 190.312C488.424 190.653 490.984 191.165 494.227 191.848C497.47 192.36 500.03 192.787 501.907 193.128C507.368 194.323 511.806 195.432 515.219 196.456C518.803 197.309 522.899 198.845 527.507 201.064C532.115 203.112 535.699 205.501 538.259 208.232C540.99 210.792 543.294 214.376 545.171 218.984C547.219 223.421 548.243 228.627 548.243 234.6C548.243 247.571 543.123 257.896 532.883 265.576C522.814 273.085 509.502 276.84 492.947 276.84ZM623.567 276.84C603.258 276.84 586.959 270.269 574.671 257.128C562.383 243.987 556.239 227.432 556.239 207.464C556.239 187.496 562.212 170.941 574.159 157.8C586.276 144.659 602.148 138.088 621.775 138.088C638.33 138.088 651.812 142.44 662.223 151.144C672.634 159.848 679.034 171.539 681.423 186.216H647.375C646.18 180.243 643.45 175.379 639.183 171.624C634.916 167.869 629.626 165.992 623.311 165.992C613.071 165.992 605.22 169.661 599.759 177C594.298 184.339 591.567 194.493 591.567 207.464C591.567 220.264 594.212 230.419 599.503 237.928C604.794 245.267 612.559 248.936 622.799 248.936C637.988 248.936 646.778 241.512 649.167 226.664H682.703C681.508 241.171 675.62 253.203 665.039 262.76C654.458 272.147 640.634 276.84 623.567 276.84ZM806.945 257.128C794.145 270.269 777.676 276.84 757.537 276.84C737.398 276.84 720.929 270.269 708.129 257.128C695.329 243.816 688.929 227.261 688.929 207.464C688.929 187.667 695.329 171.197 708.129 158.056C720.929 144.744 737.398 138.088 757.537 138.088C777.676 138.088 794.145 144.744 806.945 158.056C819.745 171.197 826.145 187.667 826.145 207.464C826.145 227.261 819.745 243.816 806.945 257.128ZM757.537 250.216C767.948 250.216 776.054 246.376 781.857 238.696C787.83 230.845 790.817 220.435 790.817 207.464C790.817 194.493 787.83 184.083 781.857 176.232C776.054 168.381 767.948 164.456 757.537 164.456C746.956 164.456 738.764 168.381 732.961 176.232C727.158 183.912 724.257 194.323 724.257 207.464C724.257 220.435 727.158 230.845 732.961 238.696C738.764 246.376 746.956 250.216 757.537 250.216ZM839.769 273V141.672H874.585V273H839.769ZM839.769 121.192V89.96H874.585V121.192H839.769ZM928.507 141.672V159.592H929.275C938.32 145.256 951.291 138.088 968.187 138.088C981.67 138.088 992.592 142.696 1000.96 151.912C1009.32 160.957 1013.5 172.733 1013.5 187.24V273H978.683V192.36C978.683 185.192 976.635 179.389 972.539 174.952C968.614 170.515 963.067 168.296 955.899 168.296C948.219 168.296 941.819 171.112 936.699 176.744C931.75 182.376 929.275 189.629 929.275 198.504V273H894.459V141.672H928.507Z" fill="url(#paint2_linear_559_1795)"/>
</g>
<g filter="url(#filter3_f_559_1795)">
<path d="M222.257 273V202.344L161.329 89.96H201.777L229.425 144.232L241.457 170.344H241.969C246.577 160.275 250.673 151.571 254.257 144.232L281.393 89.96H320.305L259.377 202.344V273H222.257ZM364.705 276.84C343.542 276.84 326.902 270.355 314.785 257.384C302.668 244.243 296.609 227.517 296.609 207.208C296.609 187.581 302.668 171.197 314.785 158.056C326.902 144.744 342.433 138.088 361.377 138.088C382.028 138.088 397.985 145.256 409.249 159.592C420.513 173.928 426.145 193.128 426.145 217.192H330.913C332.278 227.603 335.777 235.709 341.409 241.512C347.041 247.144 354.721 249.96 364.449 249.96C377.249 249.96 385.697 244.584 389.793 233.832H424.097C421.537 246.12 415.052 256.36 404.641 264.552C394.23 272.744 380.918 276.84 364.705 276.84ZM361.889 164.968C344.993 164.968 334.838 174.355 331.425 193.128H389.793C389.281 184.765 386.465 178.024 381.345 172.904C376.225 167.613 369.74 164.968 361.889 164.968ZM492.947 276.84C474.174 276.84 459.496 272.744 448.915 264.552C438.334 256.189 432.531 244.84 431.507 230.504H463.763C465.982 245.011 475.539 252.264 492.435 252.264C500.115 252.264 506.003 250.899 510.099 248.168C514.366 245.437 516.499 241.768 516.499 237.16C516.499 235.453 516.158 233.917 515.475 232.552C514.963 231.187 513.939 229.992 512.403 228.968C511.038 227.773 509.758 226.835 508.563 226.152C507.539 225.469 505.662 224.787 502.931 224.104C500.2 223.421 498.067 222.909 496.531 222.568C495.166 222.227 492.691 221.8 489.107 221.288C485.694 220.605 483.304 220.093 481.939 219.752C474.771 218.387 468.883 217.021 464.275 215.656C459.838 214.12 455.144 211.987 450.195 209.256C445.246 206.355 441.491 202.515 438.931 197.736C436.542 192.787 435.347 186.899 435.347 180.072C435.347 166.419 440.296 156.008 450.195 148.84C460.264 141.672 473.15 138.088 488.851 138.088C505.747 138.088 518.974 142.013 528.531 149.864C538.259 157.544 543.806 168.125 545.171 181.608H513.683C512.318 168.808 503.87 162.408 488.339 162.408C481.342 162.408 475.795 163.688 471.699 166.248C467.774 168.808 465.811 172.392 465.811 177C465.811 178.536 466.067 179.987 466.579 181.352C467.262 182.547 468.286 183.656 469.651 184.68C471.187 185.533 472.638 186.301 474.003 186.984C475.368 187.496 477.331 188.093 479.891 188.776C482.451 189.288 484.67 189.8 486.547 190.312C488.424 190.653 490.984 191.165 494.227 191.848C497.47 192.36 500.03 192.787 501.907 193.128C507.368 194.323 511.806 195.432 515.219 196.456C518.803 197.309 522.899 198.845 527.507 201.064C532.115 203.112 535.699 205.501 538.259 208.232C540.99 210.792 543.294 214.376 545.171 218.984C547.219 223.421 548.243 228.627 548.243 234.6C548.243 247.571 543.123 257.896 532.883 265.576C522.814 273.085 509.502 276.84 492.947 276.84ZM623.567 276.84C603.258 276.84 586.959 270.269 574.671 257.128C562.383 243.987 556.239 227.432 556.239 207.464C556.239 187.496 562.212 170.941 574.159 157.8C586.276 144.659 602.148 138.088 621.775 138.088C638.33 138.088 651.812 142.44 662.223 151.144C672.634 159.848 679.034 171.539 681.423 186.216H647.375C646.18 180.243 643.45 175.379 639.183 171.624C634.916 167.869 629.626 165.992 623.311 165.992C613.071 165.992 605.22 169.661 599.759 177C594.298 184.339 591.567 194.493 591.567 207.464C591.567 220.264 594.212 230.419 599.503 237.928C604.794 245.267 612.559 248.936 622.799 248.936C637.988 248.936 646.778 241.512 649.167 226.664H682.703C681.508 241.171 675.62 253.203 665.039 262.76C654.458 272.147 640.634 276.84 623.567 276.84ZM806.945 257.128C794.145 270.269 777.676 276.84 757.537 276.84C737.398 276.84 720.929 270.269 708.129 257.128C695.329 243.816 688.929 227.261 688.929 207.464C688.929 187.667 695.329 171.197 708.129 158.056C720.929 144.744 737.398 138.088 757.537 138.088C777.676 138.088 794.145 144.744 806.945 158.056C819.745 171.197 826.145 187.667 826.145 207.464C826.145 227.261 819.745 243.816 806.945 257.128ZM757.537 250.216C767.948 250.216 776.054 246.376 781.857 238.696C787.83 230.845 790.817 220.435 790.817 207.464C790.817 194.493 787.83 184.083 781.857 176.232C776.054 168.381 767.948 164.456 757.537 164.456C746.956 164.456 738.764 168.381 732.961 176.232C727.158 183.912 724.257 194.323 724.257 207.464C724.257 220.435 727.158 230.845 732.961 238.696C738.764 246.376 746.956 250.216 757.537 250.216ZM839.769 273V141.672H874.585V273H839.769ZM839.769 121.192V89.96H874.585V121.192H839.769ZM928.507 141.672V159.592H929.275C938.32 145.256 951.291 138.088 968.187 138.088C981.67 138.088 992.592 142.696 1000.96 151.912C1009.32 160.957 1013.5 172.733 1013.5 187.24V273H978.683V192.36C978.683 185.192 976.635 179.389 972.539 174.952C968.614 170.515 963.067 168.296 955.899 168.296C948.219 168.296 941.819 171.112 936.699 176.744C931.75 182.376 929.275 189.629 929.275 198.504V273H894.459V141.672H928.507Z" fill="url(#paint3_linear_559_1795)"/>
</g>
<g filter="url(#filter4_f_559_1795)">
<path d="M222.257 273V202.344L161.329 89.96H201.777L229.425 144.232L241.457 170.344H241.969C246.577 160.275 250.673 151.571 254.257 144.232L281.393 89.96H320.305L259.377 202.344V273H222.257ZM364.705 276.84C343.542 276.84 326.902 270.355 314.785 257.384C302.668 244.243 296.609 227.517 296.609 207.208C296.609 187.581 302.668 171.197 314.785 158.056C326.902 144.744 342.433 138.088 361.377 138.088C382.028 138.088 397.985 145.256 409.249 159.592C420.513 173.928 426.145 193.128 426.145 217.192H330.913C332.278 227.603 335.777 235.709 341.409 241.512C347.041 247.144 354.721 249.96 364.449 249.96C377.249 249.96 385.697 244.584 389.793 233.832H424.097C421.537 246.12 415.052 256.36 404.641 264.552C394.23 272.744 380.918 276.84 364.705 276.84ZM361.889 164.968C344.993 164.968 334.838 174.355 331.425 193.128H389.793C389.281 184.765 386.465 178.024 381.345 172.904C376.225 167.613 369.74 164.968 361.889 164.968ZM492.947 276.84C474.174 276.84 459.496 272.744 448.915 264.552C438.334 256.189 432.531 244.84 431.507 230.504H463.763C465.982 245.011 475.539 252.264 492.435 252.264C500.115 252.264 506.003 250.899 510.099 248.168C514.366 245.437 516.499 241.768 516.499 237.16C516.499 235.453 516.158 233.917 515.475 232.552C514.963 231.187 513.939 229.992 512.403 228.968C511.038 227.773 509.758 226.835 508.563 226.152C507.539 225.469 505.662 224.787 502.931 224.104C500.2 223.421 498.067 222.909 496.531 222.568C495.166 222.227 492.691 221.8 489.107 221.288C485.694 220.605 483.304 220.093 481.939 219.752C474.771 218.387 468.883 217.021 464.275 215.656C459.838 214.12 455.144 211.987 450.195 209.256C445.246 206.355 441.491 202.515 438.931 197.736C436.542 192.787 435.347 186.899 435.347 180.072C435.347 166.419 440.296 156.008 450.195 148.84C460.264 141.672 473.15 138.088 488.851 138.088C505.747 138.088 518.974 142.013 528.531 149.864C538.259 157.544 543.806 168.125 545.171 181.608H513.683C512.318 168.808 503.87 162.408 488.339 162.408C481.342 162.408 475.795 163.688 471.699 166.248C467.774 168.808 465.811 172.392 465.811 177C465.811 178.536 466.067 179.987 466.579 181.352C467.262 182.547 468.286 183.656 469.651 184.68C471.187 185.533 472.638 186.301 474.003 186.984C475.368 187.496 477.331 188.093 479.891 188.776C482.451 189.288 484.67 189.8 486.547 190.312C488.424 190.653 490.984 191.165 494.227 191.848C497.47 192.36 500.03 192.787 501.907 193.128C507.368 194.323 511.806 195.432 515.219 196.456C518.803 197.309 522.899 198.845 527.507 201.064C532.115 203.112 535.699 205.501 538.259 208.232C540.99 210.792 543.294 214.376 545.171 218.984C547.219 223.421 548.243 228.627 548.243 234.6C548.243 247.571 543.123 257.896 532.883 265.576C522.814 273.085 509.502 276.84 492.947 276.84ZM623.567 276.84C603.258 276.84 586.959 270.269 574.671 257.128C562.383 243.987 556.239 227.432 556.239 207.464C556.239 187.496 562.212 170.941 574.159 157.8C586.276 144.659 602.148 138.088 621.775 138.088C638.33 138.088 651.812 142.44 662.223 151.144C672.634 159.848 679.034 171.539 681.423 186.216H647.375C646.18 180.243 643.45 175.379 639.183 171.624C634.916 167.869 629.626 165.992 623.311 165.992C613.071 165.992 605.22 169.661 599.759 177C594.298 184.339 591.567 194.493 591.567 207.464C591.567 220.264 594.212 230.419 599.503 237.928C604.794 245.267 612.559 248.936 622.799 248.936C637.988 248.936 646.778 241.512 649.167 226.664H682.703C681.508 241.171 675.62 253.203 665.039 262.76C654.458 272.147 640.634 276.84 623.567 276.84ZM806.945 257.128C794.145 270.269 777.676 276.84 757.537 276.84C737.398 276.84 720.929 270.269 708.129 257.128C695.329 243.816 688.929 227.261 688.929 207.464C688.929 187.667 695.329 171.197 708.129 158.056C720.929 144.744 737.398 138.088 757.537 138.088C777.676 138.088 794.145 144.744 806.945 158.056C819.745 171.197 826.145 187.667 826.145 207.464C826.145 227.261 819.745 243.816 806.945 257.128ZM757.537 250.216C767.948 250.216 776.054 246.376 781.857 238.696C787.83 230.845 790.817 220.435 790.817 207.464C790.817 194.493 787.83 184.083 781.857 176.232C776.054 168.381 767.948 164.456 757.537 164.456C746.956 164.456 738.764 168.381 732.961 176.232C727.158 183.912 724.257 194.323 724.257 207.464C724.257 220.435 727.158 230.845 732.961 238.696C738.764 246.376 746.956 250.216 757.537 250.216ZM839.769 273V141.672H874.585V273H839.769ZM839.769 121.192V89.96H874.585V121.192H839.769ZM928.507 141.672V159.592H929.275C938.32 145.256 951.291 138.088 968.187 138.088C981.67 138.088 992.592 142.696 1000.96 151.912C1009.32 160.957 1013.5 172.733 1013.5 187.24V273H978.683V192.36C978.683 185.192 976.635 179.389 972.539 174.952C968.614 170.515 963.067 168.296 955.899 168.296C948.219 168.296 941.819 171.112 936.699 176.744C931.75 182.376 929.275 189.629 929.275 198.504V273H894.459V141.672H928.507Z" fill="url(#paint4_linear_559_1795)"/>
</g>
<g filter="url(#filter5_f_559_1795)">
<path opacity="0.25" d="M222.257 273V202.344L161.329 89.96H201.777L229.425 144.232L241.457 170.344H241.969C246.577 160.275 250.673 151.571 254.257 144.232L281.393 89.96H320.305L259.377 202.344V273H222.257ZM364.705 276.84C343.542 276.84 326.902 270.355 314.785 257.384C302.668 244.243 296.609 227.517 296.609 207.208C296.609 187.581 302.668 171.197 314.785 158.056C326.902 144.744 342.433 138.088 361.377 138.088C382.028 138.088 397.985 145.256 409.249 159.592C420.513 173.928 426.145 193.128 426.145 217.192H330.913C332.278 227.603 335.777 235.709 341.409 241.512C347.041 247.144 354.721 249.96 364.449 249.96C377.249 249.96 385.697 244.584 389.793 233.832H424.097C421.537 246.12 415.052 256.36 404.641 264.552C394.23 272.744 380.918 276.84 364.705 276.84ZM361.889 164.968C344.993 164.968 334.838 174.355 331.425 193.128H389.793C389.281 184.765 386.465 178.024 381.345 172.904C376.225 167.613 369.74 164.968 361.889 164.968ZM492.947 276.84C474.174 276.84 459.496 272.744 448.915 264.552C438.334 256.189 432.531 244.84 431.507 230.504H463.763C465.982 245.011 475.539 252.264 492.435 252.264C500.115 252.264 506.003 250.899 510.099 248.168C514.366 245.437 516.499 241.768 516.499 237.16C516.499 235.453 516.158 233.917 515.475 232.552C514.963 231.187 513.939 229.992 512.403 228.968C511.038 227.773 509.758 226.835 508.563 226.152C507.539 225.469 505.662 224.787 502.931 224.104C500.2 223.421 498.067 222.909 496.531 222.568C495.166 222.227 492.691 221.8 489.107 221.288C485.694 220.605 483.304 220.093 481.939 219.752C474.771 218.387 468.883 217.021 464.275 215.656C459.838 214.12 455.144 211.987 450.195 209.256C445.246 206.355 441.491 202.515 438.931 197.736C436.542 192.787 435.347 186.899 435.347 180.072C435.347 166.419 440.296 156.008 450.195 148.84C460.264 141.672 473.15 138.088 488.851 138.088C505.747 138.088 518.974 142.013 528.531 149.864C538.259 157.544 543.806 168.125 545.171 181.608H513.683C512.318 168.808 503.87 162.408 488.339 162.408C481.342 162.408 475.795 163.688 471.699 166.248C467.774 168.808 465.811 172.392 465.811 177C465.811 178.536 466.067 179.987 466.579 181.352C467.262 182.547 468.286 183.656 469.651 184.68C471.187 185.533 472.638 186.301 474.003 186.984C475.368 187.496 477.331 188.093 479.891 188.776C482.451 189.288 484.67 189.8 486.547 190.312C488.424 190.653 490.984 191.165 494.227 191.848C497.47 192.36 500.03 192.787 501.907 193.128C507.368 194.323 511.806 195.432 515.219 196.456C518.803 197.309 522.899 198.845 527.507 201.064C532.115 203.112 535.699 205.501 538.259 208.232C540.99 210.792 543.294 214.376 545.171 218.984C547.219 223.421 548.243 228.627 548.243 234.6C548.243 247.571 543.123 257.896 532.883 265.576C522.814 273.085 509.502 276.84 492.947 276.84ZM623.567 276.84C603.258 276.84 586.959 270.269 574.671 257.128C562.383 243.987 556.239 227.432 556.239 207.464C556.239 187.496 562.212 170.941 574.159 157.8C586.276 144.659 602.148 138.088 621.775 138.088C638.33 138.088 651.812 142.44 662.223 151.144C672.634 159.848 679.034 171.539 681.423 186.216H647.375C646.18 180.243 643.45 175.379 639.183 171.624C634.916 167.869 629.626 165.992 623.311 165.992C613.071 165.992 605.22 169.661 599.759 177C594.298 184.339 591.567 194.493 591.567 207.464C591.567 220.264 594.212 230.419 599.503 237.928C604.794 245.267 612.559 248.936 622.799 248.936C637.988 248.936 646.778 241.512 649.167 226.664H682.703C681.508 241.171 675.62 253.203 665.039 262.76C654.458 272.147 640.634 276.84 623.567 276.84ZM806.945 257.128C794.145 270.269 777.676 276.84 757.537 276.84C737.398 276.84 720.929 270.269 708.129 257.128C695.329 243.816 688.929 227.261 688.929 207.464C688.929 187.667 695.329 171.197 708.129 158.056C720.929 144.744 737.398 138.088 757.537 138.088C777.676 138.088 794.145 144.744 806.945 158.056C819.745 171.197 826.145 187.667 826.145 207.464C826.145 227.261 819.745 243.816 806.945 257.128ZM757.537 250.216C767.948 250.216 776.054 246.376 781.857 238.696C787.83 230.845 790.817 220.435 790.817 207.464C790.817 194.493 787.83 184.083 781.857 176.232C776.054 168.381 767.948 164.456 757.537 164.456C746.956 164.456 738.764 168.381 732.961 176.232C727.158 183.912 724.257 194.323 724.257 207.464C724.257 220.435 727.158 230.845 732.961 238.696C738.764 246.376 746.956 250.216 757.537 250.216ZM839.769 273V141.672H874.585V273H839.769ZM839.769 121.192V89.96H874.585V121.192H839.769ZM928.507 141.672V159.592H929.275C938.32 145.256 951.291 138.088 968.187 138.088C981.67 138.088 992.592 142.696 1000.96 151.912C1009.32 160.957 1013.5 172.733 1013.5 187.24V273H978.683V192.36C978.683 185.192 976.635 179.389 972.539 174.952C968.614 170.515 963.067 168.296 955.899 168.296C948.219 168.296 941.819 171.112 936.699 176.744C931.75 182.376 929.275 189.629 929.275 198.504V273H894.459V141.672H928.507Z" fill="url(#paint5_linear_559_1795)"/>
</g>
<g filter="url(#filter6_f_559_1795)">
<path d="M222.257 273V202.344L161.329 89.96H201.777L229.425 144.232L241.457 170.344H241.969C246.577 160.275 250.673 151.571 254.257 144.232L281.393 89.96H320.305L259.377 202.344V273H222.257ZM364.705 276.84C343.542 276.84 326.902 270.355 314.785 257.384C302.668 244.243 296.609 227.517 296.609 207.208C296.609 187.581 302.668 171.197 314.785 158.056C326.902 144.744 342.433 138.088 361.377 138.088C382.028 138.088 397.985 145.256 409.249 159.592C420.513 173.928 426.145 193.128 426.145 217.192H330.913C332.278 227.603 335.777 235.709 341.409 241.512C347.041 247.144 354.721 249.96 364.449 249.96C377.249 249.96 385.697 244.584 389.793 233.832H424.097C421.537 246.12 415.052 256.36 404.641 264.552C394.23 272.744 380.918 276.84 364.705 276.84ZM361.889 164.968C344.993 164.968 334.838 174.355 331.425 193.128H389.793C389.281 184.765 386.465 178.024 381.345 172.904C376.225 167.613 369.74 164.968 361.889 164.968ZM492.947 276.84C474.174 276.84 459.496 272.744 448.915 264.552C438.334 256.189 432.531 244.84 431.507 230.504H463.763C465.982 245.011 475.539 252.264 492.435 252.264C500.115 252.264 506.003 250.899 510.099 248.168C514.366 245.437 516.499 241.768 516.499 237.16C516.499 235.453 516.158 233.917 515.475 232.552C514.963 231.187 513.939 229.992 512.403 228.968C511.038 227.773 509.758 226.835 508.563 226.152C507.539 225.469 505.662 224.787 502.931 224.104C500.2 223.421 498.067 222.909 496.531 222.568C495.166 222.227 492.691 221.8 489.107 221.288C485.694 220.605 483.304 220.093 481.939 219.752C474.771 218.387 468.883 217.021 464.275 215.656C459.838 214.12 455.144 211.987 450.195 209.256C445.246 206.355 441.491 202.515 438.931 197.736C436.542 192.787 435.347 186.899 435.347 180.072C435.347 166.419 440.296 156.008 450.195 148.84C460.264 141.672 473.15 138.088 488.851 138.088C505.747 138.088 518.974 142.013 528.531 149.864C538.259 157.544 543.806 168.125 545.171 181.608H513.683C512.318 168.808 503.87 162.408 488.339 162.408C481.342 162.408 475.795 163.688 471.699 166.248C467.774 168.808 465.811 172.392 465.811 177C465.811 178.536 466.067 179.987 466.579 181.352C467.262 182.547 468.286 183.656 469.651 184.68C471.187 185.533 472.638 186.301 474.003 186.984C475.368 187.496 477.331 188.093 479.891 188.776C482.451 189.288 484.67 189.8 486.547 190.312C488.424 190.653 490.984 191.165 494.227 191.848C497.47 192.36 500.03 192.787 501.907 193.128C507.368 194.323 511.806 195.432 515.219 196.456C518.803 197.309 522.899 198.845 527.507 201.064C532.115 203.112 535.699 205.501 538.259 208.232C540.99 210.792 543.294 214.376 545.171 218.984C547.219 223.421 548.243 228.627 548.243 234.6C548.243 247.571 543.123 257.896 532.883 265.576C522.814 273.085 509.502 276.84 492.947 276.84ZM623.567 276.84C603.258 276.84 586.959 270.269 574.671 257.128C562.383 243.987 556.239 227.432 556.239 207.464C556.239 187.496 562.212 170.941 574.159 157.8C586.276 144.659 602.148 138.088 621.775 138.088C638.33 138.088 651.812 142.44 662.223 151.144C672.634 159.848 679.034 171.539 681.423 186.216H647.375C646.18 180.243 643.45 175.379 639.183 171.624C634.916 167.869 629.626 165.992 623.311 165.992C613.071 165.992 605.22 169.661 599.759 177C594.298 184.339 591.567 194.493 591.567 207.464C591.567 220.264 594.212 230.419 599.503 237.928C604.794 245.267 612.559 248.936 622.799 248.936C637.988 248.936 646.778 241.512 649.167 226.664H682.703C681.508 241.171 675.62 253.203 665.039 262.76C654.458 272.147 640.634 276.84 623.567 276.84ZM806.945 257.128C794.145 270.269 777.676 276.84 757.537 276.84C737.398 276.84 720.929 270.269 708.129 257.128C695.329 243.816 688.929 227.261 688.929 207.464C688.929 187.667 695.329 171.197 708.129 158.056C720.929 144.744 737.398 138.088 757.537 138.088C777.676 138.088 794.145 144.744 806.945 158.056C819.745 171.197 826.145 187.667 826.145 207.464C826.145 227.261 819.745 243.816 806.945 257.128ZM757.537 250.216C767.948 250.216 776.054 246.376 781.857 238.696C787.83 230.845 790.817 220.435 790.817 207.464C790.817 194.493 787.83 184.083 781.857 176.232C776.054 168.381 767.948 164.456 757.537 164.456C746.956 164.456 738.764 168.381 732.961 176.232C727.158 183.912 724.257 194.323 724.257 207.464C724.257 220.435 727.158 230.845 732.961 238.696C738.764 246.376 746.956 250.216 757.537 250.216ZM839.769 273V141.672H874.585V273H839.769ZM839.769 121.192V89.96H874.585V121.192H839.769ZM928.507 141.672V159.592H929.275C938.32 145.256 951.291 138.088 968.187 138.088C981.67 138.088 992.592 142.696 1000.96 151.912C1009.32 160.957 1013.5 172.733 1013.5 187.24V273H978.683V192.36C978.683 185.192 976.635 179.389 972.539 174.952C968.614 170.515 963.067 168.296 955.899 168.296C948.219 168.296 941.819 171.112 936.699 176.744C931.75 182.376 929.275 189.629 929.275 198.504V273H894.459V141.672H928.507Z" fill="url(#paint6_linear_559_1795)"/>
</g>
<g style="mix-blend-mode:soft-light" filter="url(#filter7_f_559_1795)">
<path d="M222.257 273V202.344L161.329 89.96H201.777L229.425 144.232L241.457 170.344H241.969C246.577 160.275 250.673 151.571 254.257 144.232L281.393 89.96H320.305L259.377 202.344V273H222.257ZM364.705 276.84C343.542 276.84 326.902 270.355 314.785 257.384C302.668 244.243 296.609 227.517 296.609 207.208C296.609 187.581 302.668 171.197 314.785 158.056C326.902 144.744 342.433 138.088 361.377 138.088C382.028 138.088 397.985 145.256 409.249 159.592C420.513 173.928 426.145 193.128 426.145 217.192H330.913C332.278 227.603 335.777 235.709 341.409 241.512C347.041 247.144 354.721 249.96 364.449 249.96C377.249 249.96 385.697 244.584 389.793 233.832H424.097C421.537 246.12 415.052 256.36 404.641 264.552C394.23 272.744 380.918 276.84 364.705 276.84ZM361.889 164.968C344.993 164.968 334.838 174.355 331.425 193.128H389.793C389.281 184.765 386.465 178.024 381.345 172.904C376.225 167.613 369.74 164.968 361.889 164.968ZM492.947 276.84C474.174 276.84 459.496 272.744 448.915 264.552C438.334 256.189 432.531 244.84 431.507 230.504H463.763C465.982 245.011 475.539 252.264 492.435 252.264C500.115 252.264 506.003 250.899 510.099 248.168C514.366 245.437 516.499 241.768 516.499 237.16C516.499 235.453 516.158 233.917 515.475 232.552C514.963 231.187 513.939 229.992 512.403 228.968C511.038 227.773 509.758 226.835 508.563 226.152C507.539 225.469 505.662 224.787 502.931 224.104C500.2 223.421 498.067 222.909 496.531 222.568C495.166 222.227 492.691 221.8 489.107 221.288C485.694 220.605 483.304 220.093 481.939 219.752C474.771 218.387 468.883 217.021 464.275 215.656C459.838 214.12 455.144 211.987 450.195 209.256C445.246 206.355 441.491 202.515 438.931 197.736C436.542 192.787 435.347 186.899 435.347 180.072C435.347 166.419 440.296 156.008 450.195 148.84C460.264 141.672 473.15 138.088 488.851 138.088C505.747 138.088 518.974 142.013 528.531 149.864C538.259 157.544 543.806 168.125 545.171 181.608H513.683C512.318 168.808 503.87 162.408 488.339 162.408C481.342 162.408 475.795 163.688 471.699 166.248C467.774 168.808 465.811 172.392 465.811 177C465.811 178.536 466.067 179.987 466.579 181.352C467.262 182.547 468.286 183.656 469.651 184.68C471.187 185.533 472.638 186.301 474.003 186.984C475.368 187.496 477.331 188.093 479.891 188.776C482.451 189.288 484.67 189.8 486.547 190.312C488.424 190.653 490.984 191.165 494.227 191.848C497.47 192.36 500.03 192.787 501.907 193.128C507.368 194.323 511.806 195.432 515.219 196.456C518.803 197.309 522.899 198.845 527.507 201.064C532.115 203.112 535.699 205.501 538.259 208.232C540.99 210.792 543.294 214.376 545.171 218.984C547.219 223.421 548.243 228.627 548.243 234.6C548.243 247.571 543.123 257.896 532.883 265.576C522.814 273.085 509.502 276.84 492.947 276.84ZM623.567 276.84C603.258 276.84 586.959 270.269 574.671 257.128C562.383 243.987 556.239 227.432 556.239 207.464C556.239 187.496 562.212 170.941 574.159 157.8C586.276 144.659 602.148 138.088 621.775 138.088C638.33 138.088 651.812 142.44 662.223 151.144C672.634 159.848 679.034 171.539 681.423 186.216H647.375C646.18 180.243 643.45 175.379 639.183 171.624C634.916 167.869 629.626 165.992 623.311 165.992C613.071 165.992 605.22 169.661 599.759 177C594.298 184.339 591.567 194.493 591.567 207.464C591.567 220.264 594.212 230.419 599.503 237.928C604.794 245.267 612.559 248.936 622.799 248.936C637.988 248.936 646.778 241.512 649.167 226.664H682.703C681.508 241.171 675.62 253.203 665.039 262.76C654.458 272.147 640.634 276.84 623.567 276.84ZM806.945 257.128C794.145 270.269 777.676 276.84 757.537 276.84C737.398 276.84 720.929 270.269 708.129 257.128C695.329 243.816 688.929 227.261 688.929 207.464C688.929 187.667 695.329 171.197 708.129 158.056C720.929 144.744 737.398 138.088 757.537 138.088C777.676 138.088 794.145 144.744 806.945 158.056C819.745 171.197 826.145 187.667 826.145 207.464C826.145 227.261 819.745 243.816 806.945 257.128ZM757.537 250.216C767.948 250.216 776.054 246.376 781.857 238.696C787.83 230.845 790.817 220.435 790.817 207.464C790.817 194.493 787.83 184.083 781.857 176.232C776.054 168.381 767.948 164.456 757.537 164.456C746.956 164.456 738.764 168.381 732.961 176.232C727.158 183.912 724.257 194.323 724.257 207.464C724.257 220.435 727.158 230.845 732.961 238.696C738.764 246.376 746.956 250.216 757.537 250.216ZM839.769 273V141.672H874.585V273H839.769ZM839.769 121.192V89.96H874.585V121.192H839.769ZM928.507 141.672V159.592H929.275C938.32 145.256 951.291 138.088 968.187 138.088C981.67 138.088 992.592 142.696 1000.96 151.912C1009.32 160.957 1013.5 172.733 1013.5 187.24V273H978.683V192.36C978.683 185.192 976.635 179.389 972.539 174.952C968.614 170.515 963.067 168.296 955.899 168.296C948.219 168.296 941.819 171.112 936.699 176.744C931.75 182.376 929.275 189.629 929.275 198.504V273H894.459V141.672H928.507Z" fill="white"/>
</g>
<path d="M222.257 273V202.344L161.329 89.96H201.777L229.425 144.232L241.457 170.344H241.969C246.577 160.275 250.673 151.571 254.257 144.232L281.393 89.96H320.305L259.377 202.344V273H222.257ZM364.705 276.84C343.542 276.84 326.902 270.355 314.785 257.384C302.668 244.243 296.609 227.517 296.609 207.208C296.609 187.581 302.668 171.197 314.785 158.056C326.902 144.744 342.433 138.088 361.377 138.088C382.028 138.088 397.985 145.256 409.249 159.592C420.513 173.928 426.145 193.128 426.145 217.192H330.913C332.278 227.603 335.777 235.709 341.409 241.512C347.041 247.144 354.721 249.96 364.449 249.96C377.249 249.96 385.697 244.584 389.793 233.832H424.097C421.537 246.12 415.052 256.36 404.641 264.552C394.23 272.744 380.918 276.84 364.705 276.84ZM361.889 164.968C344.993 164.968 334.838 174.355 331.425 193.128H389.793C389.281 184.765 386.465 178.024 381.345 172.904C376.225 167.613 369.74 164.968 361.889 164.968ZM492.947 276.84C474.174 276.84 459.496 272.744 448.915 264.552C438.334 256.189 432.531 244.84 431.507 230.504H463.763C465.982 245.011 475.539 252.264 492.435 252.264C500.115 252.264 506.003 250.899 510.099 248.168C514.366 245.437 516.499 241.768 516.499 237.16C516.499 235.453 516.158 233.917 515.475 232.552C514.963 231.187 513.939 229.992 512.403 228.968C511.038 227.773 509.758 226.835 508.563 226.152C507.539 225.469 505.662 224.787 502.931 224.104C500.2 223.421 498.067 222.909 496.531 222.568C495.166 222.227 492.691 221.8 489.107 221.288C485.694 220.605 483.304 220.093 481.939 219.752C474.771 218.387 468.883 217.021 464.275 215.656C459.838 214.12 455.144 211.987 450.195 209.256C445.246 206.355 441.491 202.515 438.931 197.736C436.542 192.787 435.347 186.899 435.347 180.072C435.347 166.419 440.296 156.008 450.195 148.84C460.264 141.672 473.15 138.088 488.851 138.088C505.747 138.088 518.974 142.013 528.531 149.864C538.259 157.544 543.806 168.125 545.171 181.608H513.683C512.318 168.808 503.87 162.408 488.339 162.408C481.342 162.408 475.795 163.688 471.699 166.248C467.774 168.808 465.811 172.392 465.811 177C465.811 178.536 466.067 179.987 466.579 181.352C467.262 182.547 468.286 183.656 469.651 184.68C471.187 185.533 472.638 186.301 474.003 186.984C475.368 187.496 477.331 188.093 479.891 188.776C482.451 189.288 484.67 189.8 486.547 190.312C488.424 190.653 490.984 191.165 494.227 191.848C497.47 192.36 500.03 192.787 501.907 193.128C507.368 194.323 511.806 195.432 515.219 196.456C518.803 197.309 522.899 198.845 527.507 201.064C532.115 203.112 535.699 205.501 538.259 208.232C540.99 210.792 543.294 214.376 545.171 218.984C547.219 223.421 548.243 228.627 548.243 234.6C548.243 247.571 543.123 257.896 532.883 265.576C522.814 273.085 509.502 276.84 492.947 276.84ZM623.567 276.84C603.258 276.84 586.959 270.269 574.671 257.128C562.383 243.987 556.239 227.432 556.239 207.464C556.239 187.496 562.212 170.941 574.159 157.8C586.276 144.659 602.148 138.088 621.775 138.088C638.33 138.088 651.812 142.44 662.223 151.144C672.634 159.848 679.034 171.539 681.423 186.216H647.375C646.18 180.243 643.45 175.379 639.183 171.624C634.916 167.869 629.626 165.992 623.311 165.992C613.071 165.992 605.22 169.661 599.759 177C594.298 184.339 591.567 194.493 591.567 207.464C591.567 220.264 594.212 230.419 599.503 237.928C604.794 245.267 612.559 248.936 622.799 248.936C637.988 248.936 646.778 241.512 649.167 226.664H682.703C681.508 241.171 675.62 253.203 665.039 262.76C654.458 272.147 640.634 276.84 623.567 276.84ZM806.945 257.128C794.145 270.269 777.676 276.84 757.537 276.84C737.398 276.84 720.929 270.269 708.129 257.128C695.329 243.816 688.929 227.261 688.929 207.464C688.929 187.667 695.329 171.197 708.129 158.056C720.929 144.744 737.398 138.088 757.537 138.088C777.676 138.088 794.145 144.744 806.945 158.056C819.745 171.197 826.145 187.667 826.145 207.464C826.145 227.261 819.745 243.816 806.945 257.128ZM757.537 250.216C767.948 250.216 776.054 246.376 781.857 238.696C787.83 230.845 790.817 220.435 790.817 207.464C790.817 194.493 787.83 184.083 781.857 176.232C776.054 168.381 767.948 164.456 757.537 164.456C746.956 164.456 738.764 168.381 732.961 176.232C727.158 183.912 724.257 194.323 724.257 207.464C724.257 220.435 727.158 230.845 732.961 238.696C738.764 246.376 746.956 250.216 757.537 250.216ZM839.769 273V141.672H874.585V273H839.769ZM839.769 121.192V89.96H874.585V121.192H839.769ZM928.507 141.672V159.592H929.275C938.32 145.256 951.291 138.088 968.187 138.088C981.67 138.088 992.592 142.696 1000.96 151.912C1009.32 160.957 1013.5 172.733 1013.5 187.24V273H978.683V192.36C978.683 185.192 976.635 179.389 972.539 174.952C968.614 170.515 963.067 168.296 955.899 168.296C948.219 168.296 941.819 171.112 936.699 176.744C931.75 182.376 929.275 189.629 929.275 198.504V273H894.459V141.672H928.507Z" fill="white"/>
<defs>
<filter id="filter0_f_559_1795" x="0" y="0" width="1184" height="512" filterUnits="userSpaceOnUse" color-interpolation-filters="sRGB">
<feFlood flood-opacity="0" result="BackgroundImageFix"/>
<feBlend mode="normal" in="SourceGraphic" in2="BackgroundImageFix" result="shape"/>
<feGaussianBlur stdDeviation="80" result="effect1_foregroundBlur_559_1795"/>
</filter>
<filter id="filter1_f_559_1795" x="130" y="34" width="924" height="316" filterUnits="userSpaceOnUse" color-interpolation-filters="sRGB">
<feFlood flood-opacity="0" result="BackgroundImageFix"/>
<feBlend mode="normal" in="SourceGraphic" in2="BackgroundImageFix" result="shape"/>
<feGaussianBlur stdDeviation="15" result="effect1_foregroundBlur_559_1795"/>
</filter>
<filter id="filter2_f_559_1795" x="130" y="34" width="924" height="316" filterUnits="userSpaceOnUse" color-interpolation-filters="sRGB">
<feFlood flood-opacity="0" result="BackgroundImageFix"/>
<feBlend mode="normal" in="SourceGraphic" in2="BackgroundImageFix" result="shape"/>
<feGaussianBlur stdDeviation="15" result="effect1_foregroundBlur_559_1795"/>
</filter>
<filter id="filter3_f_559_1795" x="100" y="4" width="984" height="376" filterUnits="userSpaceOnUse" color-interpolation-filters="sRGB">
<feFlood flood-opacity="0" result="BackgroundImageFix"/>
<feBlend mode="normal" in="SourceGraphic" in2="BackgroundImageFix" result="shape"/>
<feGaussianBlur stdDeviation="30" result="effect1_foregroundBlur_559_1795"/>
</filter>
<filter id="filter4_f_559_1795" x="150" y="54" width="884" height="276" filterUnits="userSpaceOnUse" color-interpolation-filters="sRGB">
<feFlood flood-opacity="0" result="BackgroundImageFix"/>
<feBlend mode="normal" in="SourceGraphic" in2="BackgroundImageFix" result="shape"/>
<feGaussianBlur stdDeviation="5" result="effect1_foregroundBlur_559_1795"/>
</filter>
<filter id="filter5_f_559_1795" x="130" y="34" width="924" height="316" filterUnits="userSpaceOnUse" color-interpolation-filters="sRGB">
<feFlood flood-opacity="0" result="BackgroundImageFix"/>
<feBlend mode="normal" in="SourceGraphic" in2="BackgroundImageFix" result="shape"/>
<feGaussianBlur stdDeviation="15" result="effect1_foregroundBlur_559_1795"/>
</filter>
<filter id="filter6_f_559_1795" x="140" y="44" width="904" height="296" filterUnits="userSpaceOnUse" color-interpolation-filters="sRGB">
<feFlood flood-opacity="0" result="BackgroundImageFix"/>
<feBlend mode="normal" in="SourceGraphic" in2="BackgroundImageFix" result="shape"/>
<feGaussianBlur stdDeviation="10" result="effect1_foregroundBlur_559_1795"/>
</filter>
<filter id="filter7_f_559_1795" x="152" y="56" width="880" height="272" filterUnits="userSpaceOnUse" color-interpolation-filters="sRGB">
<feFlood flood-opacity="0" result="BackgroundImageFix"/>
<feBlend mode="normal" in="SourceGraphic" in2="BackgroundImageFix" result="shape"/>
<feGaussianBlur stdDeviation="4" result="effect1_foregroundBlur_559_1795"/>
</filter>
<linearGradient id="paint0_linear_559_1795" x1="592" y1="160" x2="592" y2="352" gradientUnits="userSpaceOnUse">
<stop stop-color="#C6561E"/>
<stop offset="1" stop-color="#292594"/>
</linearGradient>
<linearGradient id="paint1_linear_559_1795" x1="592" y1="64" x2="592" y2="320" gradientUnits="userSpaceOnUse">
<stop stop-color="#321607"/>
<stop offset="1" stop-color="#0A0925"/>
</linearGradient>
<linearGradient id="paint2_linear_559_1795" x1="592" y1="64" x2="592" y2="320" gradientUnits="userSpaceOnUse">
<stop stop-color="#954116"/>
<stop offset="1" stop-color="#292594"/>
</linearGradient>
<linearGradient id="paint3_linear_559_1795" x1="592" y1="64" x2="592" y2="320" gradientUnits="userSpaceOnUse">
<stop stop-color="#F9915C"/>
<stop offset="1" stop-color="#5C58C7"/>
</linearGradient>
<linearGradient id="paint4_linear_559_1795" x1="592" y1="64" x2="592" y2="320" gradientUnits="userSpaceOnUse">
<stop stop-color="#FDD3BE"/>
<stop offset="1" stop-color="#C2C0EA"/>
</linearGradient>
<linearGradient id="paint5_linear_559_1795" x1="592" y1="64" x2="592" y2="320" gradientUnits="userSpaceOnUse">
<stop stop-color="#FEE2D3"/>
<stop offset="1" stop-color="#EBEAF8"/>
</linearGradient>
<linearGradient id="paint6_linear_559_1795" x1="592" y1="64" x2="592" y2="320" gradientUnits="userSpaceOnUse">
<stop stop-color="#F86C25"/>
<stop offset="1" stop-color="#8582D5"/>
</linearGradient>
</defs>
</svg>
