<svg width="884" height="416" viewBox="0 0 884 416" fill="none" xmlns="http://www.w3.org/2000/svg">
<g filter="url(#filter0_f_559_317)">
<rect x="120" y="160" width="604" height="96" fill="url(#paint0_linear_559_317)"/>
</g>
<g filter="url(#filter1_f_559_317)">
<path d="M162.616 219.048C150.243 219.048 140.643 216.445 133.816 211.24C126.989 205.949 123.405 198.44 123.064 188.712H141.24C141.837 194.173 143.757 198.099 147 200.488C150.328 202.877 155.277 204.072 161.848 204.072C167.053 204.072 171.32 203.133 174.648 201.256C177.976 199.293 179.64 196.307 179.64 192.296C179.64 190.845 179.427 189.565 179 188.456C178.659 187.261 177.891 186.237 176.696 185.384C175.501 184.445 174.477 183.72 173.624 183.208C172.771 182.611 171.192 182.013 168.888 181.416C166.584 180.733 164.835 180.264 163.64 180.008C162.445 179.667 160.227 179.112 156.984 178.344C153.059 177.405 149.816 176.595 147.256 175.912C144.781 175.229 142.008 174.163 138.936 172.712C135.949 171.261 133.56 169.683 131.768 167.976C130.061 166.184 128.611 163.88 127.416 161.064C126.221 158.163 125.624 154.877 125.624 151.208C125.624 142.419 128.824 135.677 135.224 130.984C141.709 126.205 150.2 123.816 160.696 123.816C171.107 123.816 179.427 126.291 185.656 131.24C191.885 136.189 195.341 143.229 196.024 152.36H178.232C177.72 147.923 175.843 144.509 172.6 142.12C169.443 139.731 165.432 138.536 160.568 138.536C155.533 138.536 151.523 139.517 148.536 141.48C145.549 143.443 144.056 146.045 144.056 149.288C144.056 152.787 145.507 155.347 148.408 156.968C151.395 158.589 156.6 160.211 164.024 161.832C168.461 162.771 172.088 163.667 174.904 164.52C177.72 165.288 180.749 166.44 183.992 167.976C187.32 169.427 189.88 171.048 191.672 172.84C193.549 174.632 195.085 177.021 196.28 180.008C197.56 182.909 198.2 186.28 198.2 190.12C198.2 199.165 194.915 206.248 188.344 211.368C181.773 216.488 173.197 219.048 162.616 219.048ZM262.405 209.064C256.005 215.635 247.77 218.92 237.701 218.92C227.632 218.92 219.397 215.635 212.997 209.064C206.597 202.408 203.397 194.131 203.397 184.232C203.397 174.333 206.597 166.099 212.997 159.528C219.397 152.872 227.632 149.544 237.701 149.544C247.77 149.544 256.005 152.872 262.405 159.528C268.805 166.099 272.005 174.333 272.005 184.232C272.005 194.131 268.805 202.408 262.405 209.064ZM237.701 205.608C242.906 205.608 246.96 203.688 249.861 199.848C252.848 195.923 254.341 190.717 254.341 184.232C254.341 177.747 252.848 172.541 249.861 168.616C246.96 164.691 242.906 162.728 237.701 162.728C232.41 162.728 228.314 164.691 225.413 168.616C222.512 172.456 221.061 177.661 221.061 184.232C221.061 190.717 222.512 195.923 225.413 199.848C228.314 203.688 232.41 205.608 237.701 205.608ZM278.817 217V151.336H295.585V160.168H295.969C300.15 153.085 306.508 149.544 315.041 149.544C319.137 149.544 322.764 150.611 325.921 152.744C329.164 154.792 331.596 157.565 333.217 161.064H333.473C338.252 153.384 344.822 149.544 353.185 149.544C360.012 149.544 365.302 151.635 369.057 155.816C372.897 159.912 374.817 165.587 374.817 172.84V217H357.409V175.784C357.409 168.275 354.038 164.52 347.297 164.52C343.628 164.52 340.726 165.843 338.593 168.488C336.545 171.048 335.521 174.504 335.521 178.856V217H318.113V175.784C318.113 168.275 314.742 164.52 308.001 164.52C304.502 164.52 301.644 165.843 299.425 168.488C297.292 171.048 296.225 174.504 296.225 178.856V217H278.817ZM415.135 218.92C404.554 218.92 396.234 215.677 390.175 209.192C384.116 202.621 381.087 194.259 381.087 184.104C381.087 174.291 384.116 166.099 390.175 159.528C396.234 152.872 403.999 149.544 413.471 149.544C423.796 149.544 431.775 153.128 437.407 160.296C443.039 167.464 445.855 177.064 445.855 189.096H398.239C398.922 194.301 400.671 198.355 403.487 201.256C406.303 204.072 410.143 205.48 415.007 205.48C421.407 205.48 425.631 202.792 427.679 197.416H444.831C443.551 203.56 440.308 208.68 435.103 212.776C429.898 216.872 423.242 218.92 415.135 218.92ZM413.727 162.984C405.279 162.984 400.202 167.677 398.495 177.064H427.679C427.423 172.883 426.015 169.512 423.455 166.952C420.895 164.307 417.652 162.984 413.727 162.984ZM447.542 162.856V151.336H456.63V130.856H473.654V151.336H484.918V162.856H473.654V197.672C473.654 202.024 475.83 204.2 480.182 204.2L485.302 204.072V216.872C482.657 217.043 479.03 217.128 474.422 217.128C469.387 217.128 465.163 215.933 461.75 213.544C458.337 211.069 456.63 207.016 456.63 201.384V162.856H447.542ZM510.01 125.48V159.912H510.394C512.869 156.328 515.557 153.725 518.458 152.104C521.445 150.397 525.114 149.544 529.466 149.544C536.207 149.544 541.669 151.848 545.85 156.456C550.031 160.979 552.122 166.867 552.122 174.12V217H534.714V176.68C534.714 173.096 533.69 170.195 531.642 167.976C529.679 165.757 526.906 164.648 523.322 164.648C519.482 164.648 516.282 166.056 513.722 168.872C511.247 171.688 510.01 175.315 510.01 179.752V217H492.602V125.48H510.01ZM561.572 217V151.336H578.98V217H561.572ZM561.572 141.096V125.48H578.98V141.096H561.572ZM605.941 151.336V160.296H606.325C610.848 153.128 617.333 149.544 625.781 149.544C632.522 149.544 637.984 151.848 642.165 156.456C646.346 160.979 648.437 166.867 648.437 174.12V217H631.029V176.68C631.029 173.096 630.005 170.195 627.957 167.976C625.994 165.757 623.221 164.648 619.637 164.648C615.797 164.648 612.597 166.056 610.037 168.872C607.562 171.688 606.325 175.315 606.325 179.752V217H588.917V151.336H605.941ZM686.815 239.4C677.94 239.4 670.815 237.608 665.439 234.024C660.148 230.44 657.034 225.405 656.095 218.92H673.375C675.082 223.784 679.476 226.216 686.559 226.216C696.287 226.216 701.151 221.651 701.151 212.52V205.352H700.767C696.244 210.472 690.527 213.032 683.615 213.032C675.85 213.032 669.066 210.173 663.263 204.456C657.546 198.739 654.687 191.144 654.687 181.672C654.687 171.944 657.332 164.179 662.623 158.376C667.914 152.488 674.74 149.544 683.103 149.544C691.039 149.544 697.098 152.445 701.279 158.248H701.535V151.336H718.303V212.008C718.303 220.541 715.7 227.197 710.495 231.976C705.204 236.925 697.311 239.4 686.815 239.4ZM686.559 199.08C691.764 199.08 695.647 197.416 698.207 194.088C700.767 190.76 702.047 186.493 702.047 181.288C702.047 176.168 700.682 171.944 697.951 168.616C695.306 165.203 691.466 163.496 686.431 163.496C681.994 163.496 678.41 165.117 675.679 168.36C673.034 171.603 671.711 175.955 671.711 181.416C671.711 186.963 673.034 191.315 675.679 194.472C678.41 197.544 682.036 199.08 686.559 199.08Z" fill="url(#paint1_linear_559_317)"/>
</g>
<g filter="url(#filter2_f_559_317)">
<path d="M162.616 219.048C150.243 219.048 140.643 216.445 133.816 211.24C126.989 205.949 123.405 198.44 123.064 188.712H141.24C141.837 194.173 143.757 198.099 147 200.488C150.328 202.877 155.277 204.072 161.848 204.072C167.053 204.072 171.32 203.133 174.648 201.256C177.976 199.293 179.64 196.307 179.64 192.296C179.64 190.845 179.427 189.565 179 188.456C178.659 187.261 177.891 186.237 176.696 185.384C175.501 184.445 174.477 183.72 173.624 183.208C172.771 182.611 171.192 182.013 168.888 181.416C166.584 180.733 164.835 180.264 163.64 180.008C162.445 179.667 160.227 179.112 156.984 178.344C153.059 177.405 149.816 176.595 147.256 175.912C144.781 175.229 142.008 174.163 138.936 172.712C135.949 171.261 133.56 169.683 131.768 167.976C130.061 166.184 128.611 163.88 127.416 161.064C126.221 158.163 125.624 154.877 125.624 151.208C125.624 142.419 128.824 135.677 135.224 130.984C141.709 126.205 150.2 123.816 160.696 123.816C171.107 123.816 179.427 126.291 185.656 131.24C191.885 136.189 195.341 143.229 196.024 152.36H178.232C177.72 147.923 175.843 144.509 172.6 142.12C169.443 139.731 165.432 138.536 160.568 138.536C155.533 138.536 151.523 139.517 148.536 141.48C145.549 143.443 144.056 146.045 144.056 149.288C144.056 152.787 145.507 155.347 148.408 156.968C151.395 158.589 156.6 160.211 164.024 161.832C168.461 162.771 172.088 163.667 174.904 164.52C177.72 165.288 180.749 166.44 183.992 167.976C187.32 169.427 189.88 171.048 191.672 172.84C193.549 174.632 195.085 177.021 196.28 180.008C197.56 182.909 198.2 186.28 198.2 190.12C198.2 199.165 194.915 206.248 188.344 211.368C181.773 216.488 173.197 219.048 162.616 219.048ZM262.405 209.064C256.005 215.635 247.77 218.92 237.701 218.92C227.632 218.92 219.397 215.635 212.997 209.064C206.597 202.408 203.397 194.131 203.397 184.232C203.397 174.333 206.597 166.099 212.997 159.528C219.397 152.872 227.632 149.544 237.701 149.544C247.77 149.544 256.005 152.872 262.405 159.528C268.805 166.099 272.005 174.333 272.005 184.232C272.005 194.131 268.805 202.408 262.405 209.064ZM237.701 205.608C242.906 205.608 246.96 203.688 249.861 199.848C252.848 195.923 254.341 190.717 254.341 184.232C254.341 177.747 252.848 172.541 249.861 168.616C246.96 164.691 242.906 162.728 237.701 162.728C232.41 162.728 228.314 164.691 225.413 168.616C222.512 172.456 221.061 177.661 221.061 184.232C221.061 190.717 222.512 195.923 225.413 199.848C228.314 203.688 232.41 205.608 237.701 205.608ZM278.817 217V151.336H295.585V160.168H295.969C300.15 153.085 306.508 149.544 315.041 149.544C319.137 149.544 322.764 150.611 325.921 152.744C329.164 154.792 331.596 157.565 333.217 161.064H333.473C338.252 153.384 344.822 149.544 353.185 149.544C360.012 149.544 365.302 151.635 369.057 155.816C372.897 159.912 374.817 165.587 374.817 172.84V217H357.409V175.784C357.409 168.275 354.038 164.52 347.297 164.52C343.628 164.52 340.726 165.843 338.593 168.488C336.545 171.048 335.521 174.504 335.521 178.856V217H318.113V175.784C318.113 168.275 314.742 164.52 308.001 164.52C304.502 164.52 301.644 165.843 299.425 168.488C297.292 171.048 296.225 174.504 296.225 178.856V217H278.817ZM415.135 218.92C404.554 218.92 396.234 215.677 390.175 209.192C384.116 202.621 381.087 194.259 381.087 184.104C381.087 174.291 384.116 166.099 390.175 159.528C396.234 152.872 403.999 149.544 413.471 149.544C423.796 149.544 431.775 153.128 437.407 160.296C443.039 167.464 445.855 177.064 445.855 189.096H398.239C398.922 194.301 400.671 198.355 403.487 201.256C406.303 204.072 410.143 205.48 415.007 205.48C421.407 205.48 425.631 202.792 427.679 197.416H444.831C443.551 203.56 440.308 208.68 435.103 212.776C429.898 216.872 423.242 218.92 415.135 218.92ZM413.727 162.984C405.279 162.984 400.202 167.677 398.495 177.064H427.679C427.423 172.883 426.015 169.512 423.455 166.952C420.895 164.307 417.652 162.984 413.727 162.984ZM447.542 162.856V151.336H456.63V130.856H473.654V151.336H484.918V162.856H473.654V197.672C473.654 202.024 475.83 204.2 480.182 204.2L485.302 204.072V216.872C482.657 217.043 479.03 217.128 474.422 217.128C469.387 217.128 465.163 215.933 461.75 213.544C458.337 211.069 456.63 207.016 456.63 201.384V162.856H447.542ZM510.01 125.48V159.912H510.394C512.869 156.328 515.557 153.725 518.458 152.104C521.445 150.397 525.114 149.544 529.466 149.544C536.207 149.544 541.669 151.848 545.85 156.456C550.031 160.979 552.122 166.867 552.122 174.12V217H534.714V176.68C534.714 173.096 533.69 170.195 531.642 167.976C529.679 165.757 526.906 164.648 523.322 164.648C519.482 164.648 516.282 166.056 513.722 168.872C511.247 171.688 510.01 175.315 510.01 179.752V217H492.602V125.48H510.01ZM561.572 217V151.336H578.98V217H561.572ZM561.572 141.096V125.48H578.98V141.096H561.572ZM605.941 151.336V160.296H606.325C610.848 153.128 617.333 149.544 625.781 149.544C632.522 149.544 637.984 151.848 642.165 156.456C646.346 160.979 648.437 166.867 648.437 174.12V217H631.029V176.68C631.029 173.096 630.005 170.195 627.957 167.976C625.994 165.757 623.221 164.648 619.637 164.648C615.797 164.648 612.597 166.056 610.037 168.872C607.562 171.688 606.325 175.315 606.325 179.752V217H588.917V151.336H605.941ZM686.815 239.4C677.94 239.4 670.815 237.608 665.439 234.024C660.148 230.44 657.034 225.405 656.095 218.92H673.375C675.082 223.784 679.476 226.216 686.559 226.216C696.287 226.216 701.151 221.651 701.151 212.52V205.352H700.767C696.244 210.472 690.527 213.032 683.615 213.032C675.85 213.032 669.066 210.173 663.263 204.456C657.546 198.739 654.687 191.144 654.687 181.672C654.687 171.944 657.332 164.179 662.623 158.376C667.914 152.488 674.74 149.544 683.103 149.544C691.039 149.544 697.098 152.445 701.279 158.248H701.535V151.336H718.303V212.008C718.303 220.541 715.7 227.197 710.495 231.976C705.204 236.925 697.311 239.4 686.815 239.4ZM686.559 199.08C691.764 199.08 695.647 197.416 698.207 194.088C700.767 190.76 702.047 186.493 702.047 181.288C702.047 176.168 700.682 171.944 697.951 168.616C695.306 165.203 691.466 163.496 686.431 163.496C681.994 163.496 678.41 165.117 675.679 168.36C673.034 171.603 671.711 175.955 671.711 181.416C671.711 186.963 673.034 191.315 675.679 194.472C678.41 197.544 682.036 199.08 686.559 199.08Z" fill="url(#paint2_linear_559_317)"/>
</g>
<g filter="url(#filter3_f_559_317)">
<path d="M162.616 219.048C150.243 219.048 140.643 216.445 133.816 211.24C126.989 205.949 123.405 198.44 123.064 188.712H141.24C141.837 194.173 143.757 198.099 147 200.488C150.328 202.877 155.277 204.072 161.848 204.072C167.053 204.072 171.32 203.133 174.648 201.256C177.976 199.293 179.64 196.307 179.64 192.296C179.64 190.845 179.427 189.565 179 188.456C178.659 187.261 177.891 186.237 176.696 185.384C175.501 184.445 174.477 183.72 173.624 183.208C172.771 182.611 171.192 182.013 168.888 181.416C166.584 180.733 164.835 180.264 163.64 180.008C162.445 179.667 160.227 179.112 156.984 178.344C153.059 177.405 149.816 176.595 147.256 175.912C144.781 175.229 142.008 174.163 138.936 172.712C135.949 171.261 133.56 169.683 131.768 167.976C130.061 166.184 128.611 163.88 127.416 161.064C126.221 158.163 125.624 154.877 125.624 151.208C125.624 142.419 128.824 135.677 135.224 130.984C141.709 126.205 150.2 123.816 160.696 123.816C171.107 123.816 179.427 126.291 185.656 131.24C191.885 136.189 195.341 143.229 196.024 152.36H178.232C177.72 147.923 175.843 144.509 172.6 142.12C169.443 139.731 165.432 138.536 160.568 138.536C155.533 138.536 151.523 139.517 148.536 141.48C145.549 143.443 144.056 146.045 144.056 149.288C144.056 152.787 145.507 155.347 148.408 156.968C151.395 158.589 156.6 160.211 164.024 161.832C168.461 162.771 172.088 163.667 174.904 164.52C177.72 165.288 180.749 166.44 183.992 167.976C187.32 169.427 189.88 171.048 191.672 172.84C193.549 174.632 195.085 177.021 196.28 180.008C197.56 182.909 198.2 186.28 198.2 190.12C198.2 199.165 194.915 206.248 188.344 211.368C181.773 216.488 173.197 219.048 162.616 219.048ZM262.405 209.064C256.005 215.635 247.77 218.92 237.701 218.92C227.632 218.92 219.397 215.635 212.997 209.064C206.597 202.408 203.397 194.131 203.397 184.232C203.397 174.333 206.597 166.099 212.997 159.528C219.397 152.872 227.632 149.544 237.701 149.544C247.77 149.544 256.005 152.872 262.405 159.528C268.805 166.099 272.005 174.333 272.005 184.232C272.005 194.131 268.805 202.408 262.405 209.064ZM237.701 205.608C242.906 205.608 246.96 203.688 249.861 199.848C252.848 195.923 254.341 190.717 254.341 184.232C254.341 177.747 252.848 172.541 249.861 168.616C246.96 164.691 242.906 162.728 237.701 162.728C232.41 162.728 228.314 164.691 225.413 168.616C222.512 172.456 221.061 177.661 221.061 184.232C221.061 190.717 222.512 195.923 225.413 199.848C228.314 203.688 232.41 205.608 237.701 205.608ZM278.817 217V151.336H295.585V160.168H295.969C300.15 153.085 306.508 149.544 315.041 149.544C319.137 149.544 322.764 150.611 325.921 152.744C329.164 154.792 331.596 157.565 333.217 161.064H333.473C338.252 153.384 344.822 149.544 353.185 149.544C360.012 149.544 365.302 151.635 369.057 155.816C372.897 159.912 374.817 165.587 374.817 172.84V217H357.409V175.784C357.409 168.275 354.038 164.52 347.297 164.52C343.628 164.52 340.726 165.843 338.593 168.488C336.545 171.048 335.521 174.504 335.521 178.856V217H318.113V175.784C318.113 168.275 314.742 164.52 308.001 164.52C304.502 164.52 301.644 165.843 299.425 168.488C297.292 171.048 296.225 174.504 296.225 178.856V217H278.817ZM415.135 218.92C404.554 218.92 396.234 215.677 390.175 209.192C384.116 202.621 381.087 194.259 381.087 184.104C381.087 174.291 384.116 166.099 390.175 159.528C396.234 152.872 403.999 149.544 413.471 149.544C423.796 149.544 431.775 153.128 437.407 160.296C443.039 167.464 445.855 177.064 445.855 189.096H398.239C398.922 194.301 400.671 198.355 403.487 201.256C406.303 204.072 410.143 205.48 415.007 205.48C421.407 205.48 425.631 202.792 427.679 197.416H444.831C443.551 203.56 440.308 208.68 435.103 212.776C429.898 216.872 423.242 218.92 415.135 218.92ZM413.727 162.984C405.279 162.984 400.202 167.677 398.495 177.064H427.679C427.423 172.883 426.015 169.512 423.455 166.952C420.895 164.307 417.652 162.984 413.727 162.984ZM447.542 162.856V151.336H456.63V130.856H473.654V151.336H484.918V162.856H473.654V197.672C473.654 202.024 475.83 204.2 480.182 204.2L485.302 204.072V216.872C482.657 217.043 479.03 217.128 474.422 217.128C469.387 217.128 465.163 215.933 461.75 213.544C458.337 211.069 456.63 207.016 456.63 201.384V162.856H447.542ZM510.01 125.48V159.912H510.394C512.869 156.328 515.557 153.725 518.458 152.104C521.445 150.397 525.114 149.544 529.466 149.544C536.207 149.544 541.669 151.848 545.85 156.456C550.031 160.979 552.122 166.867 552.122 174.12V217H534.714V176.68C534.714 173.096 533.69 170.195 531.642 167.976C529.679 165.757 526.906 164.648 523.322 164.648C519.482 164.648 516.282 166.056 513.722 168.872C511.247 171.688 510.01 175.315 510.01 179.752V217H492.602V125.48H510.01ZM561.572 217V151.336H578.98V217H561.572ZM561.572 141.096V125.48H578.98V141.096H561.572ZM605.941 151.336V160.296H606.325C610.848 153.128 617.333 149.544 625.781 149.544C632.522 149.544 637.984 151.848 642.165 156.456C646.346 160.979 648.437 166.867 648.437 174.12V217H631.029V176.68C631.029 173.096 630.005 170.195 627.957 167.976C625.994 165.757 623.221 164.648 619.637 164.648C615.797 164.648 612.597 166.056 610.037 168.872C607.562 171.688 606.325 175.315 606.325 179.752V217H588.917V151.336H605.941ZM686.815 239.4C677.94 239.4 670.815 237.608 665.439 234.024C660.148 230.44 657.034 225.405 656.095 218.92H673.375C675.082 223.784 679.476 226.216 686.559 226.216C696.287 226.216 701.151 221.651 701.151 212.52V205.352H700.767C696.244 210.472 690.527 213.032 683.615 213.032C675.85 213.032 669.066 210.173 663.263 204.456C657.546 198.739 654.687 191.144 654.687 181.672C654.687 171.944 657.332 164.179 662.623 158.376C667.914 152.488 674.74 149.544 683.103 149.544C691.039 149.544 697.098 152.445 701.279 158.248H701.535V151.336H718.303V212.008C718.303 220.541 715.7 227.197 710.495 231.976C705.204 236.925 697.311 239.4 686.815 239.4ZM686.559 199.08C691.764 199.08 695.647 197.416 698.207 194.088C700.767 190.76 702.047 186.493 702.047 181.288C702.047 176.168 700.682 171.944 697.951 168.616C695.306 165.203 691.466 163.496 686.431 163.496C681.994 163.496 678.41 165.117 675.679 168.36C673.034 171.603 671.711 175.955 671.711 181.416C671.711 186.963 673.034 191.315 675.679 194.472C678.41 197.544 682.036 199.08 686.559 199.08Z" fill="url(#paint3_linear_559_317)"/>
</g>
<g filter="url(#filter4_f_559_317)">
<path d="M162.616 219.048C150.243 219.048 140.643 216.445 133.816 211.24C126.989 205.949 123.405 198.44 123.064 188.712H141.24C141.837 194.173 143.757 198.099 147 200.488C150.328 202.877 155.277 204.072 161.848 204.072C167.053 204.072 171.32 203.133 174.648 201.256C177.976 199.293 179.64 196.307 179.64 192.296C179.64 190.845 179.427 189.565 179 188.456C178.659 187.261 177.891 186.237 176.696 185.384C175.501 184.445 174.477 183.72 173.624 183.208C172.771 182.611 171.192 182.013 168.888 181.416C166.584 180.733 164.835 180.264 163.64 180.008C162.445 179.667 160.227 179.112 156.984 178.344C153.059 177.405 149.816 176.595 147.256 175.912C144.781 175.229 142.008 174.163 138.936 172.712C135.949 171.261 133.56 169.683 131.768 167.976C130.061 166.184 128.611 163.88 127.416 161.064C126.221 158.163 125.624 154.877 125.624 151.208C125.624 142.419 128.824 135.677 135.224 130.984C141.709 126.205 150.2 123.816 160.696 123.816C171.107 123.816 179.427 126.291 185.656 131.24C191.885 136.189 195.341 143.229 196.024 152.36H178.232C177.72 147.923 175.843 144.509 172.6 142.12C169.443 139.731 165.432 138.536 160.568 138.536C155.533 138.536 151.523 139.517 148.536 141.48C145.549 143.443 144.056 146.045 144.056 149.288C144.056 152.787 145.507 155.347 148.408 156.968C151.395 158.589 156.6 160.211 164.024 161.832C168.461 162.771 172.088 163.667 174.904 164.52C177.72 165.288 180.749 166.44 183.992 167.976C187.32 169.427 189.88 171.048 191.672 172.84C193.549 174.632 195.085 177.021 196.28 180.008C197.56 182.909 198.2 186.28 198.2 190.12C198.2 199.165 194.915 206.248 188.344 211.368C181.773 216.488 173.197 219.048 162.616 219.048ZM262.405 209.064C256.005 215.635 247.77 218.92 237.701 218.92C227.632 218.92 219.397 215.635 212.997 209.064C206.597 202.408 203.397 194.131 203.397 184.232C203.397 174.333 206.597 166.099 212.997 159.528C219.397 152.872 227.632 149.544 237.701 149.544C247.77 149.544 256.005 152.872 262.405 159.528C268.805 166.099 272.005 174.333 272.005 184.232C272.005 194.131 268.805 202.408 262.405 209.064ZM237.701 205.608C242.906 205.608 246.96 203.688 249.861 199.848C252.848 195.923 254.341 190.717 254.341 184.232C254.341 177.747 252.848 172.541 249.861 168.616C246.96 164.691 242.906 162.728 237.701 162.728C232.41 162.728 228.314 164.691 225.413 168.616C222.512 172.456 221.061 177.661 221.061 184.232C221.061 190.717 222.512 195.923 225.413 199.848C228.314 203.688 232.41 205.608 237.701 205.608ZM278.817 217V151.336H295.585V160.168H295.969C300.15 153.085 306.508 149.544 315.041 149.544C319.137 149.544 322.764 150.611 325.921 152.744C329.164 154.792 331.596 157.565 333.217 161.064H333.473C338.252 153.384 344.822 149.544 353.185 149.544C360.012 149.544 365.302 151.635 369.057 155.816C372.897 159.912 374.817 165.587 374.817 172.84V217H357.409V175.784C357.409 168.275 354.038 164.52 347.297 164.52C343.628 164.52 340.726 165.843 338.593 168.488C336.545 171.048 335.521 174.504 335.521 178.856V217H318.113V175.784C318.113 168.275 314.742 164.52 308.001 164.52C304.502 164.52 301.644 165.843 299.425 168.488C297.292 171.048 296.225 174.504 296.225 178.856V217H278.817ZM415.135 218.92C404.554 218.92 396.234 215.677 390.175 209.192C384.116 202.621 381.087 194.259 381.087 184.104C381.087 174.291 384.116 166.099 390.175 159.528C396.234 152.872 403.999 149.544 413.471 149.544C423.796 149.544 431.775 153.128 437.407 160.296C443.039 167.464 445.855 177.064 445.855 189.096H398.239C398.922 194.301 400.671 198.355 403.487 201.256C406.303 204.072 410.143 205.48 415.007 205.48C421.407 205.48 425.631 202.792 427.679 197.416H444.831C443.551 203.56 440.308 208.68 435.103 212.776C429.898 216.872 423.242 218.92 415.135 218.92ZM413.727 162.984C405.279 162.984 400.202 167.677 398.495 177.064H427.679C427.423 172.883 426.015 169.512 423.455 166.952C420.895 164.307 417.652 162.984 413.727 162.984ZM447.542 162.856V151.336H456.63V130.856H473.654V151.336H484.918V162.856H473.654V197.672C473.654 202.024 475.83 204.2 480.182 204.2L485.302 204.072V216.872C482.657 217.043 479.03 217.128 474.422 217.128C469.387 217.128 465.163 215.933 461.75 213.544C458.337 211.069 456.63 207.016 456.63 201.384V162.856H447.542ZM510.01 125.48V159.912H510.394C512.869 156.328 515.557 153.725 518.458 152.104C521.445 150.397 525.114 149.544 529.466 149.544C536.207 149.544 541.669 151.848 545.85 156.456C550.031 160.979 552.122 166.867 552.122 174.12V217H534.714V176.68C534.714 173.096 533.69 170.195 531.642 167.976C529.679 165.757 526.906 164.648 523.322 164.648C519.482 164.648 516.282 166.056 513.722 168.872C511.247 171.688 510.01 175.315 510.01 179.752V217H492.602V125.48H510.01ZM561.572 217V151.336H578.98V217H561.572ZM561.572 141.096V125.48H578.98V141.096H561.572ZM605.941 151.336V160.296H606.325C610.848 153.128 617.333 149.544 625.781 149.544C632.522 149.544 637.984 151.848 642.165 156.456C646.346 160.979 648.437 166.867 648.437 174.12V217H631.029V176.68C631.029 173.096 630.005 170.195 627.957 167.976C625.994 165.757 623.221 164.648 619.637 164.648C615.797 164.648 612.597 166.056 610.037 168.872C607.562 171.688 606.325 175.315 606.325 179.752V217H588.917V151.336H605.941ZM686.815 239.4C677.94 239.4 670.815 237.608 665.439 234.024C660.148 230.44 657.034 225.405 656.095 218.92H673.375C675.082 223.784 679.476 226.216 686.559 226.216C696.287 226.216 701.151 221.651 701.151 212.52V205.352H700.767C696.244 210.472 690.527 213.032 683.615 213.032C675.85 213.032 669.066 210.173 663.263 204.456C657.546 198.739 654.687 191.144 654.687 181.672C654.687 171.944 657.332 164.179 662.623 158.376C667.914 152.488 674.74 149.544 683.103 149.544C691.039 149.544 697.098 152.445 701.279 158.248H701.535V151.336H718.303V212.008C718.303 220.541 715.7 227.197 710.495 231.976C705.204 236.925 697.311 239.4 686.815 239.4ZM686.559 199.08C691.764 199.08 695.647 197.416 698.207 194.088C700.767 190.76 702.047 186.493 702.047 181.288C702.047 176.168 700.682 171.944 697.951 168.616C695.306 165.203 691.466 163.496 686.431 163.496C681.994 163.496 678.41 165.117 675.679 168.36C673.034 171.603 671.711 175.955 671.711 181.416C671.711 186.963 673.034 191.315 675.679 194.472C678.41 197.544 682.036 199.08 686.559 199.08Z" fill="url(#paint4_linear_559_317)"/>
</g>
<g filter="url(#filter5_f_559_317)">
<path opacity="0.25" d="M162.616 219.048C150.243 219.048 140.643 216.445 133.816 211.24C126.989 205.949 123.405 198.44 123.064 188.712H141.24C141.837 194.173 143.757 198.099 147 200.488C150.328 202.877 155.277 204.072 161.848 204.072C167.053 204.072 171.32 203.133 174.648 201.256C177.976 199.293 179.64 196.307 179.64 192.296C179.64 190.845 179.427 189.565 179 188.456C178.659 187.261 177.891 186.237 176.696 185.384C175.501 184.445 174.477 183.72 173.624 183.208C172.771 182.611 171.192 182.013 168.888 181.416C166.584 180.733 164.835 180.264 163.64 180.008C162.445 179.667 160.227 179.112 156.984 178.344C153.059 177.405 149.816 176.595 147.256 175.912C144.781 175.229 142.008 174.163 138.936 172.712C135.949 171.261 133.56 169.683 131.768 167.976C130.061 166.184 128.611 163.88 127.416 161.064C126.221 158.163 125.624 154.877 125.624 151.208C125.624 142.419 128.824 135.677 135.224 130.984C141.709 126.205 150.2 123.816 160.696 123.816C171.107 123.816 179.427 126.291 185.656 131.24C191.885 136.189 195.341 143.229 196.024 152.36H178.232C177.72 147.923 175.843 144.509 172.6 142.12C169.443 139.731 165.432 138.536 160.568 138.536C155.533 138.536 151.523 139.517 148.536 141.48C145.549 143.443 144.056 146.045 144.056 149.288C144.056 152.787 145.507 155.347 148.408 156.968C151.395 158.589 156.6 160.211 164.024 161.832C168.461 162.771 172.088 163.667 174.904 164.52C177.72 165.288 180.749 166.44 183.992 167.976C187.32 169.427 189.88 171.048 191.672 172.84C193.549 174.632 195.085 177.021 196.28 180.008C197.56 182.909 198.2 186.28 198.2 190.12C198.2 199.165 194.915 206.248 188.344 211.368C181.773 216.488 173.197 219.048 162.616 219.048ZM262.405 209.064C256.005 215.635 247.77 218.92 237.701 218.92C227.632 218.92 219.397 215.635 212.997 209.064C206.597 202.408 203.397 194.131 203.397 184.232C203.397 174.333 206.597 166.099 212.997 159.528C219.397 152.872 227.632 149.544 237.701 149.544C247.77 149.544 256.005 152.872 262.405 159.528C268.805 166.099 272.005 174.333 272.005 184.232C272.005 194.131 268.805 202.408 262.405 209.064ZM237.701 205.608C242.906 205.608 246.96 203.688 249.861 199.848C252.848 195.923 254.341 190.717 254.341 184.232C254.341 177.747 252.848 172.541 249.861 168.616C246.96 164.691 242.906 162.728 237.701 162.728C232.41 162.728 228.314 164.691 225.413 168.616C222.512 172.456 221.061 177.661 221.061 184.232C221.061 190.717 222.512 195.923 225.413 199.848C228.314 203.688 232.41 205.608 237.701 205.608ZM278.817 217V151.336H295.585V160.168H295.969C300.15 153.085 306.508 149.544 315.041 149.544C319.137 149.544 322.764 150.611 325.921 152.744C329.164 154.792 331.596 157.565 333.217 161.064H333.473C338.252 153.384 344.822 149.544 353.185 149.544C360.012 149.544 365.302 151.635 369.057 155.816C372.897 159.912 374.817 165.587 374.817 172.84V217H357.409V175.784C357.409 168.275 354.038 164.52 347.297 164.52C343.628 164.52 340.726 165.843 338.593 168.488C336.545 171.048 335.521 174.504 335.521 178.856V217H318.113V175.784C318.113 168.275 314.742 164.52 308.001 164.52C304.502 164.52 301.644 165.843 299.425 168.488C297.292 171.048 296.225 174.504 296.225 178.856V217H278.817ZM415.135 218.92C404.554 218.92 396.234 215.677 390.175 209.192C384.116 202.621 381.087 194.259 381.087 184.104C381.087 174.291 384.116 166.099 390.175 159.528C396.234 152.872 403.999 149.544 413.471 149.544C423.796 149.544 431.775 153.128 437.407 160.296C443.039 167.464 445.855 177.064 445.855 189.096H398.239C398.922 194.301 400.671 198.355 403.487 201.256C406.303 204.072 410.143 205.48 415.007 205.48C421.407 205.48 425.631 202.792 427.679 197.416H444.831C443.551 203.56 440.308 208.68 435.103 212.776C429.898 216.872 423.242 218.92 415.135 218.92ZM413.727 162.984C405.279 162.984 400.202 167.677 398.495 177.064H427.679C427.423 172.883 426.015 169.512 423.455 166.952C420.895 164.307 417.652 162.984 413.727 162.984ZM447.542 162.856V151.336H456.63V130.856H473.654V151.336H484.918V162.856H473.654V197.672C473.654 202.024 475.83 204.2 480.182 204.2L485.302 204.072V216.872C482.657 217.043 479.03 217.128 474.422 217.128C469.387 217.128 465.163 215.933 461.75 213.544C458.337 211.069 456.63 207.016 456.63 201.384V162.856H447.542ZM510.01 125.48V159.912H510.394C512.869 156.328 515.557 153.725 518.458 152.104C521.445 150.397 525.114 149.544 529.466 149.544C536.207 149.544 541.669 151.848 545.85 156.456C550.031 160.979 552.122 166.867 552.122 174.12V217H534.714V176.68C534.714 173.096 533.69 170.195 531.642 167.976C529.679 165.757 526.906 164.648 523.322 164.648C519.482 164.648 516.282 166.056 513.722 168.872C511.247 171.688 510.01 175.315 510.01 179.752V217H492.602V125.48H510.01ZM561.572 217V151.336H578.98V217H561.572ZM561.572 141.096V125.48H578.98V141.096H561.572ZM605.941 151.336V160.296H606.325C610.848 153.128 617.333 149.544 625.781 149.544C632.522 149.544 637.984 151.848 642.165 156.456C646.346 160.979 648.437 166.867 648.437 174.12V217H631.029V176.68C631.029 173.096 630.005 170.195 627.957 167.976C625.994 165.757 623.221 164.648 619.637 164.648C615.797 164.648 612.597 166.056 610.037 168.872C607.562 171.688 606.325 175.315 606.325 179.752V217H588.917V151.336H605.941ZM686.815 239.4C677.94 239.4 670.815 237.608 665.439 234.024C660.148 230.44 657.034 225.405 656.095 218.92H673.375C675.082 223.784 679.476 226.216 686.559 226.216C696.287 226.216 701.151 221.651 701.151 212.52V205.352H700.767C696.244 210.472 690.527 213.032 683.615 213.032C675.85 213.032 669.066 210.173 663.263 204.456C657.546 198.739 654.687 191.144 654.687 181.672C654.687 171.944 657.332 164.179 662.623 158.376C667.914 152.488 674.74 149.544 683.103 149.544C691.039 149.544 697.098 152.445 701.279 158.248H701.535V151.336H718.303V212.008C718.303 220.541 715.7 227.197 710.495 231.976C705.204 236.925 697.311 239.4 686.815 239.4ZM686.559 199.08C691.764 199.08 695.647 197.416 698.207 194.088C700.767 190.76 702.047 186.493 702.047 181.288C702.047 176.168 700.682 171.944 697.951 168.616C695.306 165.203 691.466 163.496 686.431 163.496C681.994 163.496 678.41 165.117 675.679 168.36C673.034 171.603 671.711 175.955 671.711 181.416C671.711 186.963 673.034 191.315 675.679 194.472C678.41 197.544 682.036 199.08 686.559 199.08Z" fill="url(#paint5_linear_559_317)"/>
</g>
<g filter="url(#filter6_f_559_317)">
<path d="M162.616 219.048C150.243 219.048 140.643 216.445 133.816 211.24C126.989 205.949 123.405 198.44 123.064 188.712H141.24C141.837 194.173 143.757 198.099 147 200.488C150.328 202.877 155.277 204.072 161.848 204.072C167.053 204.072 171.32 203.133 174.648 201.256C177.976 199.293 179.64 196.307 179.64 192.296C179.64 190.845 179.427 189.565 179 188.456C178.659 187.261 177.891 186.237 176.696 185.384C175.501 184.445 174.477 183.72 173.624 183.208C172.771 182.611 171.192 182.013 168.888 181.416C166.584 180.733 164.835 180.264 163.64 180.008C162.445 179.667 160.227 179.112 156.984 178.344C153.059 177.405 149.816 176.595 147.256 175.912C144.781 175.229 142.008 174.163 138.936 172.712C135.949 171.261 133.56 169.683 131.768 167.976C130.061 166.184 128.611 163.88 127.416 161.064C126.221 158.163 125.624 154.877 125.624 151.208C125.624 142.419 128.824 135.677 135.224 130.984C141.709 126.205 150.2 123.816 160.696 123.816C171.107 123.816 179.427 126.291 185.656 131.24C191.885 136.189 195.341 143.229 196.024 152.36H178.232C177.72 147.923 175.843 144.509 172.6 142.12C169.443 139.731 165.432 138.536 160.568 138.536C155.533 138.536 151.523 139.517 148.536 141.48C145.549 143.443 144.056 146.045 144.056 149.288C144.056 152.787 145.507 155.347 148.408 156.968C151.395 158.589 156.6 160.211 164.024 161.832C168.461 162.771 172.088 163.667 174.904 164.52C177.72 165.288 180.749 166.44 183.992 167.976C187.32 169.427 189.88 171.048 191.672 172.84C193.549 174.632 195.085 177.021 196.28 180.008C197.56 182.909 198.2 186.28 198.2 190.12C198.2 199.165 194.915 206.248 188.344 211.368C181.773 216.488 173.197 219.048 162.616 219.048ZM262.405 209.064C256.005 215.635 247.77 218.92 237.701 218.92C227.632 218.92 219.397 215.635 212.997 209.064C206.597 202.408 203.397 194.131 203.397 184.232C203.397 174.333 206.597 166.099 212.997 159.528C219.397 152.872 227.632 149.544 237.701 149.544C247.77 149.544 256.005 152.872 262.405 159.528C268.805 166.099 272.005 174.333 272.005 184.232C272.005 194.131 268.805 202.408 262.405 209.064ZM237.701 205.608C242.906 205.608 246.96 203.688 249.861 199.848C252.848 195.923 254.341 190.717 254.341 184.232C254.341 177.747 252.848 172.541 249.861 168.616C246.96 164.691 242.906 162.728 237.701 162.728C232.41 162.728 228.314 164.691 225.413 168.616C222.512 172.456 221.061 177.661 221.061 184.232C221.061 190.717 222.512 195.923 225.413 199.848C228.314 203.688 232.41 205.608 237.701 205.608ZM278.817 217V151.336H295.585V160.168H295.969C300.15 153.085 306.508 149.544 315.041 149.544C319.137 149.544 322.764 150.611 325.921 152.744C329.164 154.792 331.596 157.565 333.217 161.064H333.473C338.252 153.384 344.822 149.544 353.185 149.544C360.012 149.544 365.302 151.635 369.057 155.816C372.897 159.912 374.817 165.587 374.817 172.84V217H357.409V175.784C357.409 168.275 354.038 164.52 347.297 164.52C343.628 164.52 340.726 165.843 338.593 168.488C336.545 171.048 335.521 174.504 335.521 178.856V217H318.113V175.784C318.113 168.275 314.742 164.52 308.001 164.52C304.502 164.52 301.644 165.843 299.425 168.488C297.292 171.048 296.225 174.504 296.225 178.856V217H278.817ZM415.135 218.92C404.554 218.92 396.234 215.677 390.175 209.192C384.116 202.621 381.087 194.259 381.087 184.104C381.087 174.291 384.116 166.099 390.175 159.528C396.234 152.872 403.999 149.544 413.471 149.544C423.796 149.544 431.775 153.128 437.407 160.296C443.039 167.464 445.855 177.064 445.855 189.096H398.239C398.922 194.301 400.671 198.355 403.487 201.256C406.303 204.072 410.143 205.48 415.007 205.48C421.407 205.48 425.631 202.792 427.679 197.416H444.831C443.551 203.56 440.308 208.68 435.103 212.776C429.898 216.872 423.242 218.92 415.135 218.92ZM413.727 162.984C405.279 162.984 400.202 167.677 398.495 177.064H427.679C427.423 172.883 426.015 169.512 423.455 166.952C420.895 164.307 417.652 162.984 413.727 162.984ZM447.542 162.856V151.336H456.63V130.856H473.654V151.336H484.918V162.856H473.654V197.672C473.654 202.024 475.83 204.2 480.182 204.2L485.302 204.072V216.872C482.657 217.043 479.03 217.128 474.422 217.128C469.387 217.128 465.163 215.933 461.75 213.544C458.337 211.069 456.63 207.016 456.63 201.384V162.856H447.542ZM510.01 125.48V159.912H510.394C512.869 156.328 515.557 153.725 518.458 152.104C521.445 150.397 525.114 149.544 529.466 149.544C536.207 149.544 541.669 151.848 545.85 156.456C550.031 160.979 552.122 166.867 552.122 174.12V217H534.714V176.68C534.714 173.096 533.69 170.195 531.642 167.976C529.679 165.757 526.906 164.648 523.322 164.648C519.482 164.648 516.282 166.056 513.722 168.872C511.247 171.688 510.01 175.315 510.01 179.752V217H492.602V125.48H510.01ZM561.572 217V151.336H578.98V217H561.572ZM561.572 141.096V125.48H578.98V141.096H561.572ZM605.941 151.336V160.296H606.325C610.848 153.128 617.333 149.544 625.781 149.544C632.522 149.544 637.984 151.848 642.165 156.456C646.346 160.979 648.437 166.867 648.437 174.12V217H631.029V176.68C631.029 173.096 630.005 170.195 627.957 167.976C625.994 165.757 623.221 164.648 619.637 164.648C615.797 164.648 612.597 166.056 610.037 168.872C607.562 171.688 606.325 175.315 606.325 179.752V217H588.917V151.336H605.941ZM686.815 239.4C677.94 239.4 670.815 237.608 665.439 234.024C660.148 230.44 657.034 225.405 656.095 218.92H673.375C675.082 223.784 679.476 226.216 686.559 226.216C696.287 226.216 701.151 221.651 701.151 212.52V205.352H700.767C696.244 210.472 690.527 213.032 683.615 213.032C675.85 213.032 669.066 210.173 663.263 204.456C657.546 198.739 654.687 191.144 654.687 181.672C654.687 171.944 657.332 164.179 662.623 158.376C667.914 152.488 674.74 149.544 683.103 149.544C691.039 149.544 697.098 152.445 701.279 158.248H701.535V151.336H718.303V212.008C718.303 220.541 715.7 227.197 710.495 231.976C705.204 236.925 697.311 239.4 686.815 239.4ZM686.559 199.08C691.764 199.08 695.647 197.416 698.207 194.088C700.767 190.76 702.047 186.493 702.047 181.288C702.047 176.168 700.682 171.944 697.951 168.616C695.306 165.203 691.466 163.496 686.431 163.496C681.994 163.496 678.41 165.117 675.679 168.36C673.034 171.603 671.711 175.955 671.711 181.416C671.711 186.963 673.034 191.315 675.679 194.472C678.41 197.544 682.036 199.08 686.559 199.08Z" fill="url(#paint6_linear_559_317)"/>
</g>
<g style="mix-blend-mode:soft-light" filter="url(#filter7_f_559_317)">
<path d="M162.616 219.048C150.243 219.048 140.643 216.445 133.816 211.24C126.989 205.949 123.405 198.44 123.064 188.712H141.24C141.837 194.173 143.757 198.099 147 200.488C150.328 202.877 155.277 204.072 161.848 204.072C167.053 204.072 171.32 203.133 174.648 201.256C177.976 199.293 179.64 196.307 179.64 192.296C179.64 190.845 179.427 189.565 179 188.456C178.659 187.261 177.891 186.237 176.696 185.384C175.501 184.445 174.477 183.72 173.624 183.208C172.771 182.611 171.192 182.013 168.888 181.416C166.584 180.733 164.835 180.264 163.64 180.008C162.445 179.667 160.227 179.112 156.984 178.344C153.059 177.405 149.816 176.595 147.256 175.912C144.781 175.229 142.008 174.163 138.936 172.712C135.949 171.261 133.56 169.683 131.768 167.976C130.061 166.184 128.611 163.88 127.416 161.064C126.221 158.163 125.624 154.877 125.624 151.208C125.624 142.419 128.824 135.677 135.224 130.984C141.709 126.205 150.2 123.816 160.696 123.816C171.107 123.816 179.427 126.291 185.656 131.24C191.885 136.189 195.341 143.229 196.024 152.36H178.232C177.72 147.923 175.843 144.509 172.6 142.12C169.443 139.731 165.432 138.536 160.568 138.536C155.533 138.536 151.523 139.517 148.536 141.48C145.549 143.443 144.056 146.045 144.056 149.288C144.056 152.787 145.507 155.347 148.408 156.968C151.395 158.589 156.6 160.211 164.024 161.832C168.461 162.771 172.088 163.667 174.904 164.52C177.72 165.288 180.749 166.44 183.992 167.976C187.32 169.427 189.88 171.048 191.672 172.84C193.549 174.632 195.085 177.021 196.28 180.008C197.56 182.909 198.2 186.28 198.2 190.12C198.2 199.165 194.915 206.248 188.344 211.368C181.773 216.488 173.197 219.048 162.616 219.048ZM262.405 209.064C256.005 215.635 247.77 218.92 237.701 218.92C227.632 218.92 219.397 215.635 212.997 209.064C206.597 202.408 203.397 194.131 203.397 184.232C203.397 174.333 206.597 166.099 212.997 159.528C219.397 152.872 227.632 149.544 237.701 149.544C247.77 149.544 256.005 152.872 262.405 159.528C268.805 166.099 272.005 174.333 272.005 184.232C272.005 194.131 268.805 202.408 262.405 209.064ZM237.701 205.608C242.906 205.608 246.96 203.688 249.861 199.848C252.848 195.923 254.341 190.717 254.341 184.232C254.341 177.747 252.848 172.541 249.861 168.616C246.96 164.691 242.906 162.728 237.701 162.728C232.41 162.728 228.314 164.691 225.413 168.616C222.512 172.456 221.061 177.661 221.061 184.232C221.061 190.717 222.512 195.923 225.413 199.848C228.314 203.688 232.41 205.608 237.701 205.608ZM278.817 217V151.336H295.585V160.168H295.969C300.15 153.085 306.508 149.544 315.041 149.544C319.137 149.544 322.764 150.611 325.921 152.744C329.164 154.792 331.596 157.565 333.217 161.064H333.473C338.252 153.384 344.822 149.544 353.185 149.544C360.012 149.544 365.302 151.635 369.057 155.816C372.897 159.912 374.817 165.587 374.817 172.84V217H357.409V175.784C357.409 168.275 354.038 164.52 347.297 164.52C343.628 164.52 340.726 165.843 338.593 168.488C336.545 171.048 335.521 174.504 335.521 178.856V217H318.113V175.784C318.113 168.275 314.742 164.52 308.001 164.52C304.502 164.52 301.644 165.843 299.425 168.488C297.292 171.048 296.225 174.504 296.225 178.856V217H278.817ZM415.135 218.92C404.554 218.92 396.234 215.677 390.175 209.192C384.116 202.621 381.087 194.259 381.087 184.104C381.087 174.291 384.116 166.099 390.175 159.528C396.234 152.872 403.999 149.544 413.471 149.544C423.796 149.544 431.775 153.128 437.407 160.296C443.039 167.464 445.855 177.064 445.855 189.096H398.239C398.922 194.301 400.671 198.355 403.487 201.256C406.303 204.072 410.143 205.48 415.007 205.48C421.407 205.48 425.631 202.792 427.679 197.416H444.831C443.551 203.56 440.308 208.68 435.103 212.776C429.898 216.872 423.242 218.92 415.135 218.92ZM413.727 162.984C405.279 162.984 400.202 167.677 398.495 177.064H427.679C427.423 172.883 426.015 169.512 423.455 166.952C420.895 164.307 417.652 162.984 413.727 162.984ZM447.542 162.856V151.336H456.63V130.856H473.654V151.336H484.918V162.856H473.654V197.672C473.654 202.024 475.83 204.2 480.182 204.2L485.302 204.072V216.872C482.657 217.043 479.03 217.128 474.422 217.128C469.387 217.128 465.163 215.933 461.75 213.544C458.337 211.069 456.63 207.016 456.63 201.384V162.856H447.542ZM510.01 125.48V159.912H510.394C512.869 156.328 515.557 153.725 518.458 152.104C521.445 150.397 525.114 149.544 529.466 149.544C536.207 149.544 541.669 151.848 545.85 156.456C550.031 160.979 552.122 166.867 552.122 174.12V217H534.714V176.68C534.714 173.096 533.69 170.195 531.642 167.976C529.679 165.757 526.906 164.648 523.322 164.648C519.482 164.648 516.282 166.056 513.722 168.872C511.247 171.688 510.01 175.315 510.01 179.752V217H492.602V125.48H510.01ZM561.572 217V151.336H578.98V217H561.572ZM561.572 141.096V125.48H578.98V141.096H561.572ZM605.941 151.336V160.296H606.325C610.848 153.128 617.333 149.544 625.781 149.544C632.522 149.544 637.984 151.848 642.165 156.456C646.346 160.979 648.437 166.867 648.437 174.12V217H631.029V176.68C631.029 173.096 630.005 170.195 627.957 167.976C625.994 165.757 623.221 164.648 619.637 164.648C615.797 164.648 612.597 166.056 610.037 168.872C607.562 171.688 606.325 175.315 606.325 179.752V217H588.917V151.336H605.941ZM686.815 239.4C677.94 239.4 670.815 237.608 665.439 234.024C660.148 230.44 657.034 225.405 656.095 218.92H673.375C675.082 223.784 679.476 226.216 686.559 226.216C696.287 226.216 701.151 221.651 701.151 212.52V205.352H700.767C696.244 210.472 690.527 213.032 683.615 213.032C675.85 213.032 669.066 210.173 663.263 204.456C657.546 198.739 654.687 191.144 654.687 181.672C654.687 171.944 657.332 164.179 662.623 158.376C667.914 152.488 674.74 149.544 683.103 149.544C691.039 149.544 697.098 152.445 701.279 158.248H701.535V151.336H718.303V212.008C718.303 220.541 715.7 227.197 710.495 231.976C705.204 236.925 697.311 239.4 686.815 239.4ZM686.559 199.08C691.764 199.08 695.647 197.416 698.207 194.088C700.767 190.76 702.047 186.493 702.047 181.288C702.047 176.168 700.682 171.944 697.951 168.616C695.306 165.203 691.466 163.496 686.431 163.496C681.994 163.496 678.41 165.117 675.679 168.36C673.034 171.603 671.711 175.955 671.711 181.416C671.711 186.963 673.034 191.315 675.679 194.472C678.41 197.544 682.036 199.08 686.559 199.08Z" fill="white"/>
</g>
<path d="M162.616 219.048C150.243 219.048 140.643 216.445 133.816 211.24C126.989 205.949 123.405 198.44 123.064 188.712H141.24C141.837 194.173 143.757 198.099 147 200.488C150.328 202.877 155.277 204.072 161.848 204.072C167.053 204.072 171.32 203.133 174.648 201.256C177.976 199.293 179.64 196.307 179.64 192.296C179.64 190.845 179.427 189.565 179 188.456C178.659 187.261 177.891 186.237 176.696 185.384C175.501 184.445 174.477 183.72 173.624 183.208C172.771 182.611 171.192 182.013 168.888 181.416C166.584 180.733 164.835 180.264 163.64 180.008C162.445 179.667 160.227 179.112 156.984 178.344C153.059 177.405 149.816 176.595 147.256 175.912C144.781 175.229 142.008 174.163 138.936 172.712C135.949 171.261 133.56 169.683 131.768 167.976C130.061 166.184 128.611 163.88 127.416 161.064C126.221 158.163 125.624 154.877 125.624 151.208C125.624 142.419 128.824 135.677 135.224 130.984C141.709 126.205 150.2 123.816 160.696 123.816C171.107 123.816 179.427 126.291 185.656 131.24C191.885 136.189 195.341 143.229 196.024 152.36H178.232C177.72 147.923 175.843 144.509 172.6 142.12C169.443 139.731 165.432 138.536 160.568 138.536C155.533 138.536 151.523 139.517 148.536 141.48C145.549 143.443 144.056 146.045 144.056 149.288C144.056 152.787 145.507 155.347 148.408 156.968C151.395 158.589 156.6 160.211 164.024 161.832C168.461 162.771 172.088 163.667 174.904 164.52C177.72 165.288 180.749 166.44 183.992 167.976C187.32 169.427 189.88 171.048 191.672 172.84C193.549 174.632 195.085 177.021 196.28 180.008C197.56 182.909 198.2 186.28 198.2 190.12C198.2 199.165 194.915 206.248 188.344 211.368C181.773 216.488 173.197 219.048 162.616 219.048ZM262.405 209.064C256.005 215.635 247.77 218.92 237.701 218.92C227.632 218.92 219.397 215.635 212.997 209.064C206.597 202.408 203.397 194.131 203.397 184.232C203.397 174.333 206.597 166.099 212.997 159.528C219.397 152.872 227.632 149.544 237.701 149.544C247.77 149.544 256.005 152.872 262.405 159.528C268.805 166.099 272.005 174.333 272.005 184.232C272.005 194.131 268.805 202.408 262.405 209.064ZM237.701 205.608C242.906 205.608 246.96 203.688 249.861 199.848C252.848 195.923 254.341 190.717 254.341 184.232C254.341 177.747 252.848 172.541 249.861 168.616C246.96 164.691 242.906 162.728 237.701 162.728C232.41 162.728 228.314 164.691 225.413 168.616C222.512 172.456 221.061 177.661 221.061 184.232C221.061 190.717 222.512 195.923 225.413 199.848C228.314 203.688 232.41 205.608 237.701 205.608ZM278.817 217V151.336H295.585V160.168H295.969C300.15 153.085 306.508 149.544 315.041 149.544C319.137 149.544 322.764 150.611 325.921 152.744C329.164 154.792 331.596 157.565 333.217 161.064H333.473C338.252 153.384 344.822 149.544 353.185 149.544C360.012 149.544 365.302 151.635 369.057 155.816C372.897 159.912 374.817 165.587 374.817 172.84V217H357.409V175.784C357.409 168.275 354.038 164.52 347.297 164.52C343.628 164.52 340.726 165.843 338.593 168.488C336.545 171.048 335.521 174.504 335.521 178.856V217H318.113V175.784C318.113 168.275 314.742 164.52 308.001 164.52C304.502 164.52 301.644 165.843 299.425 168.488C297.292 171.048 296.225 174.504 296.225 178.856V217H278.817ZM415.135 218.92C404.554 218.92 396.234 215.677 390.175 209.192C384.116 202.621 381.087 194.259 381.087 184.104C381.087 174.291 384.116 166.099 390.175 159.528C396.234 152.872 403.999 149.544 413.471 149.544C423.796 149.544 431.775 153.128 437.407 160.296C443.039 167.464 445.855 177.064 445.855 189.096H398.239C398.922 194.301 400.671 198.355 403.487 201.256C406.303 204.072 410.143 205.48 415.007 205.48C421.407 205.48 425.631 202.792 427.679 197.416H444.831C443.551 203.56 440.308 208.68 435.103 212.776C429.898 216.872 423.242 218.92 415.135 218.92ZM413.727 162.984C405.279 162.984 400.202 167.677 398.495 177.064H427.679C427.423 172.883 426.015 169.512 423.455 166.952C420.895 164.307 417.652 162.984 413.727 162.984ZM447.542 162.856V151.336H456.63V130.856H473.654V151.336H484.918V162.856H473.654V197.672C473.654 202.024 475.83 204.2 480.182 204.2L485.302 204.072V216.872C482.657 217.043 479.03 217.128 474.422 217.128C469.387 217.128 465.163 215.933 461.75 213.544C458.337 211.069 456.63 207.016 456.63 201.384V162.856H447.542ZM510.01 125.48V159.912H510.394C512.869 156.328 515.557 153.725 518.458 152.104C521.445 150.397 525.114 149.544 529.466 149.544C536.207 149.544 541.669 151.848 545.85 156.456C550.031 160.979 552.122 166.867 552.122 174.12V217H534.714V176.68C534.714 173.096 533.69 170.195 531.642 167.976C529.679 165.757 526.906 164.648 523.322 164.648C519.482 164.648 516.282 166.056 513.722 168.872C511.247 171.688 510.01 175.315 510.01 179.752V217H492.602V125.48H510.01ZM561.572 217V151.336H578.98V217H561.572ZM561.572 141.096V125.48H578.98V141.096H561.572ZM605.941 151.336V160.296H606.325C610.848 153.128 617.333 149.544 625.781 149.544C632.522 149.544 637.984 151.848 642.165 156.456C646.346 160.979 648.437 166.867 648.437 174.12V217H631.029V176.68C631.029 173.096 630.005 170.195 627.957 167.976C625.994 165.757 623.221 164.648 619.637 164.648C615.797 164.648 612.597 166.056 610.037 168.872C607.562 171.688 606.325 175.315 606.325 179.752V217H588.917V151.336H605.941ZM686.815 239.4C677.94 239.4 670.815 237.608 665.439 234.024C660.148 230.44 657.034 225.405 656.095 218.92H673.375C675.082 223.784 679.476 226.216 686.559 226.216C696.287 226.216 701.151 221.651 701.151 212.52V205.352H700.767C696.244 210.472 690.527 213.032 683.615 213.032C675.85 213.032 669.066 210.173 663.263 204.456C657.546 198.739 654.687 191.144 654.687 181.672C654.687 171.944 657.332 164.179 662.623 158.376C667.914 152.488 674.74 149.544 683.103 149.544C691.039 149.544 697.098 152.445 701.279 158.248H701.535V151.336H718.303V212.008C718.303 220.541 715.7 227.197 710.495 231.976C705.204 236.925 697.311 239.4 686.815 239.4ZM686.559 199.08C691.764 199.08 695.647 197.416 698.207 194.088C700.767 190.76 702.047 186.493 702.047 181.288C702.047 176.168 700.682 171.944 697.951 168.616C695.306 165.203 691.466 163.496 686.431 163.496C681.994 163.496 678.41 165.117 675.679 168.36C673.034 171.603 671.711 175.955 671.711 181.416C671.711 186.963 673.034 191.315 675.679 194.472C678.41 197.544 682.036 199.08 686.559 199.08Z" fill="white"/>
<defs>
<filter id="filter0_f_559_317" x="-40" y="0" width="924" height="416" filterUnits="userSpaceOnUse" color-interpolation-filters="sRGB">
<feFlood flood-opacity="0" result="BackgroundImageFix"/>
<feBlend mode="normal" in="SourceGraphic" in2="BackgroundImageFix" result="shape"/>
<feGaussianBlur stdDeviation="80" result="effect1_foregroundBlur_559_317"/>
</filter>
<filter id="filter1_f_559_317" x="90" y="82" width="664" height="188" filterUnits="userSpaceOnUse" color-interpolation-filters="sRGB">
<feFlood flood-opacity="0" result="BackgroundImageFix"/>
<feBlend mode="normal" in="SourceGraphic" in2="BackgroundImageFix" result="shape"/>
<feGaussianBlur stdDeviation="15" result="effect1_foregroundBlur_559_317"/>
</filter>
<filter id="filter2_f_559_317" x="90" y="82" width="664" height="188" filterUnits="userSpaceOnUse" color-interpolation-filters="sRGB">
<feFlood flood-opacity="0" result="BackgroundImageFix"/>
<feBlend mode="normal" in="SourceGraphic" in2="BackgroundImageFix" result="shape"/>
<feGaussianBlur stdDeviation="15" result="effect1_foregroundBlur_559_317"/>
</filter>
<filter id="filter3_f_559_317" x="60" y="52" width="724" height="248" filterUnits="userSpaceOnUse" color-interpolation-filters="sRGB">
<feFlood flood-opacity="0" result="BackgroundImageFix"/>
<feBlend mode="normal" in="SourceGraphic" in2="BackgroundImageFix" result="shape"/>
<feGaussianBlur stdDeviation="30" result="effect1_foregroundBlur_559_317"/>
</filter>
<filter id="filter4_f_559_317" x="110" y="102" width="624" height="148" filterUnits="userSpaceOnUse" color-interpolation-filters="sRGB">
<feFlood flood-opacity="0" result="BackgroundImageFix"/>
<feBlend mode="normal" in="SourceGraphic" in2="BackgroundImageFix" result="shape"/>
<feGaussianBlur stdDeviation="5" result="effect1_foregroundBlur_559_317"/>
</filter>
<filter id="filter5_f_559_317" x="90" y="82" width="664" height="188" filterUnits="userSpaceOnUse" color-interpolation-filters="sRGB">
<feFlood flood-opacity="0" result="BackgroundImageFix"/>
<feBlend mode="normal" in="SourceGraphic" in2="BackgroundImageFix" result="shape"/>
<feGaussianBlur stdDeviation="15" result="effect1_foregroundBlur_559_317"/>
</filter>
<filter id="filter6_f_559_317" x="100" y="92" width="644" height="168" filterUnits="userSpaceOnUse" color-interpolation-filters="sRGB">
<feFlood flood-opacity="0" result="BackgroundImageFix"/>
<feBlend mode="normal" in="SourceGraphic" in2="BackgroundImageFix" result="shape"/>
<feGaussianBlur stdDeviation="10" result="effect1_foregroundBlur_559_317"/>
</filter>
<filter id="filter7_f_559_317" x="112" y="104" width="620" height="144" filterUnits="userSpaceOnUse" color-interpolation-filters="sRGB">
<feFlood flood-opacity="0" result="BackgroundImageFix"/>
<feBlend mode="normal" in="SourceGraphic" in2="BackgroundImageFix" result="shape"/>
<feGaussianBlur stdDeviation="4" result="effect1_foregroundBlur_559_317"/>
</filter>
<linearGradient id="paint0_linear_559_317" x1="422" y1="160" x2="422" y2="256" gradientUnits="userSpaceOnUse">
<stop stop-color="#C6561E"/>
<stop offset="1" stop-color="#292594"/>
</linearGradient>
<linearGradient id="paint1_linear_559_317" x1="422" y1="112" x2="422" y2="240" gradientUnits="userSpaceOnUse">
<stop stop-color="#321607"/>
<stop offset="1" stop-color="#0A0925"/>
</linearGradient>
<linearGradient id="paint2_linear_559_317" x1="422" y1="112" x2="422" y2="240" gradientUnits="userSpaceOnUse">
<stop stop-color="#954116"/>
<stop offset="1" stop-color="#292594"/>
</linearGradient>
<linearGradient id="paint3_linear_559_317" x1="422" y1="112" x2="422" y2="240" gradientUnits="userSpaceOnUse">
<stop stop-color="#F9915C"/>
<stop offset="1" stop-color="#5C58C7"/>
</linearGradient>
<linearGradient id="paint4_linear_559_317" x1="422" y1="112" x2="422" y2="240" gradientUnits="userSpaceOnUse">
<stop stop-color="#FDD3BE"/>
<stop offset="1" stop-color="#C2C0EA"/>
</linearGradient>
<linearGradient id="paint5_linear_559_317" x1="422" y1="112" x2="422" y2="240" gradientUnits="userSpaceOnUse">
<stop stop-color="#FEE2D3"/>
<stop offset="1" stop-color="#EBEAF8"/>
</linearGradient>
<linearGradient id="paint6_linear_559_317" x1="422" y1="112" x2="422" y2="240" gradientUnits="userSpaceOnUse">
<stop stop-color="#F86C25"/>
<stop offset="1" stop-color="#8582D5"/>
</linearGradient>
</defs>
</svg>
