<svg width="118" height="24" viewBox="0 0 118 24" fill="none" xmlns="http://www.w3.org/2000/svg">
<g clip-path="url(#clip0_559_1822)">
<path d="M15.4841 22.9023L26.8018 3.3789C27.6512 1.91145 26.5949 0.0737305 24.896 0.0737305H22.8405C22.0536 0.0737305 21.3267 0.493 20.932 1.17636L10.6652 19.0009C10.2677 19.6897 10.2732 20.5392 10.6788 21.2225L11.6862 22.9214C12.5438 24.3671 14.6401 24.3589 15.4841 22.9023Z" fill="white"/>
<path d="M6.94348 14.702L0.305895 3.3898C-0.554431 1.92234 0.501919 0.0737305 2.20351 0.0737305H4.02762C4.80083 0.0737305 5.51958 0.479389 5.91707 1.14369L11.6998 10.7951C12.1109 11.4839 12.1163 12.3415 11.7134 13.0358L10.7469 14.6938C9.90017 16.1477 7.79836 16.1531 6.9462 14.6993L6.94348 14.702Z" fill="white"/>
<path d="M17.7874 0.868487C17.6077 0.394762 17.0904 0.00544211 16.5841 0.00544211C15.5767 0.00271956 11.6208 0.0054451 10.6489 0C10.442 0 10.2487 0.0353855 10.0581 0.119785C9.45641 0.383872 9.09158 1.08902 9.2876 1.71793C9.38834 2.04191 9.57348 2.34139 9.74227 2.64087C10.1724 3.40319 12.3614 7.16304 12.9984 8.29562C13.2544 8.75301 13.8833 8.76934 14.1283 8.28473C14.2699 8.0043 14.436 7.73749 14.5939 7.46523C15.1084 6.57768 17.1449 3.04381 17.6567 2.16987C17.9018 1.7506 17.9617 1.32588 17.7874 0.86577V0.868487Z" fill="white"/>
<path d="M40.4499 21.2711H36.6329V14.4593L30.2867 3.03271H34.444L38.5278 10.8192H38.6177L42.7124 3.03271H46.8071L40.4499 14.4593V21.2711Z" fill="white"/>
<path d="M53.8966 17.1274H57.2835C57.082 18.4587 56.4177 19.5314 55.2933 20.3428C54.1689 21.1568 52.7722 21.5625 51.1033 21.5625C49.0232 21.5625 47.3897 20.939 46.2054 19.6921C45.0211 18.4451 44.4303 16.7354 44.4303 14.5601C44.4303 12.3847 45.0211 10.6641 46.2 9.37087C47.3788 8.07766 48.9688 7.42969 50.9644 7.42969C52.9601 7.42969 54.4901 8.04498 55.6527 9.27558C56.8152 10.5062 57.3978 12.1533 57.3978 14.217V15.3414H48.0567V15.5701C48.0567 16.5393 48.3399 17.3262 48.9089 17.9278C49.4779 18.5295 50.2293 18.8317 51.1659 18.8317C51.8411 18.8317 52.421 18.6766 52.9111 18.3689C53.3984 18.0613 53.7278 17.6474 53.8966 17.1247V17.1274ZM51.0025 10.1631C50.2021 10.1631 49.5351 10.4381 48.9987 10.9853C48.4624 11.5326 48.1629 12.2323 48.0949 13.0844H53.8449C53.8013 12.2159 53.5236 11.5135 53.0036 10.9745C52.4863 10.4354 51.8166 10.1659 50.9998 10.1659L51.0025 10.1631Z" fill="white"/>
<path d="M58.4188 11.7043C58.4188 10.4138 58.9361 9.38197 59.9734 8.60059C61.0107 7.82194 62.3964 7.43262 64.1307 7.43262C65.865 7.43262 67.1854 7.83011 68.2145 8.62237C69.2437 9.41463 69.7691 10.4683 69.7936 11.7833H66.3931C66.3496 11.236 66.1263 10.8059 65.7179 10.4928C65.3096 10.1824 64.7623 10.0245 64.0817 10.0245C63.4419 10.0245 62.9301 10.1579 62.5462 10.422C62.1623 10.6861 61.9717 11.04 61.9717 11.4783C61.9717 12.1345 62.5625 12.6027 63.7414 12.8804L66.3332 13.4358C67.6891 13.738 68.6665 14.1791 69.26 14.7563C69.8535 15.3335 70.1503 16.1284 70.1503 17.1385C70.1503 18.4698 69.5949 19.5398 68.4813 20.3484C67.3678 21.157 65.9167 21.5627 64.1198 21.5627C62.3229 21.5627 60.9045 21.1679 59.8345 20.3729C58.7645 19.5806 58.1792 18.5161 58.0785 17.1739H61.6804C61.773 17.7484 62.0371 18.1894 62.4699 18.5025C62.9028 18.8156 63.4882 18.9708 64.2205 18.9708C64.9529 18.9708 65.4702 18.8428 65.8704 18.5842C66.2706 18.3283 66.4694 17.9743 66.4694 17.5278C66.4694 17.1821 66.3441 16.9071 66.0909 16.7002C65.8377 16.4933 65.4076 16.319 64.8004 16.1747L62.2984 15.6193C59.712 15.0285 58.4188 13.7244 58.4188 11.7016V11.7043Z" fill="white"/>
<path d="M95.9955 19.6868C94.7894 20.9392 93.1558 21.5627 91.0921 21.5627C89.0284 21.5627 87.3922 20.9338 86.1888 19.6787C84.9827 18.4236 84.381 16.692 84.381 14.484C84.381 12.276 84.9909 10.5799 86.2079 9.32207C87.4249 8.06153 89.0529 7.43262 91.0921 7.43262C93.1313 7.43262 94.7703 8.06153 95.9846 9.32207C97.1988 10.5826 97.8032 12.3033 97.8032 14.484C97.8032 16.6648 97.2016 18.4345 95.9955 19.6841V19.6868ZM91.0921 18.7448C92.0015 18.7448 92.7229 18.3746 93.2538 17.6313C93.7847 16.8908 94.0488 15.8453 94.0488 14.4976C94.0488 13.15 93.782 12.1263 93.2538 11.3749C92.7229 10.6235 92.0015 10.2505 91.0921 10.2505C90.1828 10.2505 89.4586 10.6262 88.925 11.3749C88.3886 12.1236 88.1218 13.1663 88.1218 14.4976C88.1218 15.829 88.3886 16.8908 88.9168 17.6313C89.4477 18.3718 90.1719 18.7448 91.0921 18.7448Z" fill="white"/>
<path d="M102.364 5.67373C101.985 6.044 101.517 6.22912 100.961 6.22912C100.406 6.22912 99.9377 6.044 99.5593 5.67373C99.1808 5.30346 98.9903 4.85152 98.9903 4.32062C98.9903 3.78972 99.1808 3.32961 99.5593 2.96206C99.9377 2.59452 100.406 2.41211 100.961 2.41211C101.517 2.41211 101.985 2.59452 102.364 2.96206C102.742 3.32961 102.933 3.78156 102.933 4.32062C102.933 4.85969 102.742 5.30346 102.364 5.67373ZM99.1155 21.2712V7.72109H102.807V21.2712H99.1155Z" fill="white"/>
<path d="M104.61 21.2711V7.72097H108.173V10.1359H108.25C108.62 9.27554 109.162 8.61669 109.875 8.15658C110.588 7.69647 111.457 7.46777 112.486 7.46777C113.986 7.46777 115.146 7.91427 115.963 8.80726C116.779 9.70026 117.188 10.9445 117.188 12.5372V21.2711H113.496V13.3076C113.496 12.4146 113.286 11.7286 112.864 11.2467C112.442 10.7675 111.824 10.5252 111.008 10.5252C110.191 10.5252 109.535 10.8002 109.042 11.3474C108.549 11.8946 108.301 12.6107 108.301 13.4955V21.2684H104.61V21.2711Z" fill="white"/>
<path d="M70.8091 14.4976C70.8091 10.3076 73.3574 7.43262 77.5229 7.43262C81.0568 7.43262 83.4526 9.50176 83.6051 12.63H80.0985C79.8725 11.266 78.9877 10.3321 77.5746 10.3321C75.7832 10.3321 74.5962 11.8459 74.5962 14.4459C74.5962 17.046 75.756 18.6087 77.5746 18.6087C78.8869 18.6087 79.8698 17.8001 80.0985 16.3381H83.6051C83.4281 19.4418 81.1575 21.5872 77.5229 21.5872C73.3329 21.5872 70.8091 18.6849 70.8091 14.4949V14.4976Z" fill="white"/>
</g>
<defs>
<clipPath id="clip0_559_1822">
<rect width="117.188" height="24" fill="white"/>
</clipPath>
</defs>
</svg>
