<svg width="62" height="24" viewBox="0 0 62 24" fill="none" xmlns="http://www.w3.org/2000/svg">
<g clip-path="url(#clip0_803_2814)">
<path d="M44.0646 17.5462V1.76465H47.2369V17.5462H44.0646Z" fill="white"/>
<path d="M7.09431 22.2342H0.293762V6.45264H6.82113C9.99341 6.45264 11.8414 8.18207 11.8414 10.8856C11.8414 12.6362 10.6541 13.7678 9.83246 14.1447C10.8137 14.5873 12.0687 15.5847 12.0687 17.6911C12.0687 20.6382 9.99341 22.2342 7.09431 22.2342ZM6.56984 9.20138H3.46603V12.8367H6.56913C7.91526 12.8367 8.66845 12.1054 8.66845 11.0183C8.66845 9.93338 7.91597 9.20138 6.56984 9.20138ZM6.77454 15.6073H3.46674V19.4869H6.77596C8.21386 19.4869 8.89716 18.6003 8.89716 17.5358C8.89716 16.472 8.21244 15.6073 6.77596 15.6073H6.77454ZM21.7444 15.7626V22.2342H18.5947V15.7626L13.7106 6.45264H17.1568L20.1921 12.8141L23.1816 6.45264H26.627L21.7444 15.7626ZM35.6208 22.2342H28.8202V6.45264H35.3469C38.5192 6.45264 40.3679 8.18207 40.3679 10.8856C40.3679 12.6362 39.1806 13.7678 38.3589 14.1447C39.3401 14.5873 40.5952 15.5847 40.5952 17.6911C40.5952 20.6382 38.5199 22.2342 35.6208 22.2342ZM35.0963 9.20138H31.9925V12.8367H35.0963C36.4424 12.8367 37.1956 12.1054 37.1956 11.0183C37.1956 9.93338 36.4424 9.20138 35.0963 9.20138ZM35.301 15.6073H31.9918V19.4869H35.301C36.7396 19.4869 37.4229 18.6003 37.4229 17.5358C37.4229 16.472 36.7396 15.6073 35.301 15.6073ZM57.461 9.20208V22.2356H54.2887V9.20138H50.0449V6.45264H61.7062V9.20138L57.461 9.20208Z" fill="white"/>
</g>
<defs>
<clipPath id="clip0_803_2814">
<rect width="61.4125" height="24" fill="white" transform="translate(0.293762)"/>
</clipPath>
</defs>
</svg>
