<svg width="50" height="24" viewBox="0 0 50 24" fill="none" xmlns="http://www.w3.org/2000/svg">
<path d="M42.4187 10.1193H45.173C45.4521 10.1193 45.6826 9.88875 45.6826 9.60968V6.85538C45.6826 6.57631 45.4642 6.35791 45.1852 6.35791H42.6493C42.3459 6.35791 42.0911 6.1031 42.0911 5.79977V3.1304C42.0911 2.86347 41.897 2.64507 41.6422 2.59653C41.6058 2.5844 41.5694 2.5844 41.533 2.5844H34.6048H34.5926H34.5805C34.4349 2.5844 34.2893 2.64507 34.1922 2.74213L30.7949 6.1395C30.6978 6.23657 30.6371 6.38217 30.6371 6.52778C30.6371 6.52778 30.6371 8.54193 30.6371 9.54901C30.6371 9.85235 30.3823 10.1071 30.079 10.1071H27.4339C27.1306 10.1071 26.8758 9.85235 26.8758 9.54901V6.32151C26.8758 6.30937 26.8758 6.29724 26.8636 6.28511L23.3085 2.73C23.2114 2.63293 23.0658 2.57227 22.9202 2.57227H16.1376C15.8343 2.57227 15.5916 2.81493 15.5916 3.11827V5.82403C15.5916 5.9575 15.531 6.09097 15.4339 6.18804C15.3368 6.27297 15.2155 6.33364 15.082 6.33364H12.3763H12.3277C12.2307 6.33364 12.0851 6.28511 12.0001 6.21231L11.9637 6.17591C11.8667 6.09097 11.806 5.9575 11.8303 5.82403V3.094C11.8303 2.81493 11.5997 2.59653 11.3328 2.59653H8.56635C8.28728 2.59653 8.06888 2.82707 8.06888 3.094V5.8483C8.08101 5.96964 8.03248 6.09097 7.94754 6.17591L7.92328 6.20017C7.82621 6.29724 7.69274 6.34577 7.55927 6.34577H4.80497C4.5259 6.34577 4.3075 6.57631 4.3075 6.84325V20.8817C4.3075 21.1607 4.53804 21.3913 4.81711 21.3913H7.57141C7.85048 21.3913 8.06888 21.1607 8.06888 20.8938V6.85538C8.06888 6.72191 8.11741 6.58844 8.21448 6.50351C8.31155 6.40644 8.43288 6.35791 8.56635 6.35791H11.3206C11.4541 6.35791 11.5876 6.40644 11.6725 6.50351C11.7696 6.60058 11.8181 6.72191 11.8181 6.85538V20.8938C11.8181 21.1729 12.0487 21.3913 12.3156 21.3913H12.3763H15.082H22.9202C23.0658 21.3913 23.2114 21.3306 23.3085 21.2335L26.7059 17.8362C26.803 17.7391 26.8636 17.5935 26.8636 17.4479V14.3781C26.8636 14.0991 27.0942 13.8807 27.3611 13.8807H30.0669C30.3702 13.8807 30.625 14.1355 30.625 14.4388V17.4236C30.625 17.5692 30.6857 17.7148 30.7827 17.8119L34.3621 21.3913C34.3742 21.4034 34.3864 21.4034 34.3985 21.4034H45.1366C45.44 21.4034 45.6826 21.1607 45.6826 20.8574V18.188C45.6826 17.8847 45.44 17.642 45.1366 17.642H34.9445C34.6412 17.642 34.3985 17.3994 34.3985 17.096V14.4388C34.3985 14.1355 34.1558 13.8928 33.8525 13.8928H31.1953C30.8919 13.8928 30.6371 13.638 30.6371 13.3347V10.6289C30.6371 10.3498 30.8677 10.1314 31.1346 10.1314H34.35C34.3742 10.1314 34.3985 10.1071 34.3985 10.0829V6.90391C34.3985 6.60058 34.6412 6.35791 34.9445 6.35791H41.3631C41.6664 6.35791 41.9212 6.61271 41.9212 6.91605V9.62181C41.9212 9.88875 42.1518 10.1193 42.4187 10.1193ZM23.1144 17.096C23.1144 17.3994 22.8717 17.642 22.5684 17.642H16.1376C15.8343 17.642 15.5916 17.3994 15.5916 17.096V14.4388C15.5916 14.1355 15.8343 13.8928 16.1376 13.8928H22.6048C22.7382 13.8928 22.8596 13.9413 22.9566 14.0384C23.0537 14.1355 23.1022 14.2568 23.1022 14.3903V17.096H23.1144ZM23.1144 9.62181C23.1144 9.75528 23.0658 9.87661 22.9688 9.97368C22.8717 10.0707 22.7504 10.1193 22.6169 10.1193H16.1376C15.8343 10.1193 15.5916 9.87661 15.5916 9.57328V6.86751C15.5916 6.73405 15.6402 6.61271 15.7372 6.51564C15.8343 6.41858 15.9556 6.37004 16.0891 6.37004H22.5805C22.8717 6.37004 23.1144 6.61271 23.1144 6.90391V9.62181ZM26.8758 13.3832C26.8758 13.5167 26.8272 13.638 26.7302 13.7351C26.6331 13.8321 26.5117 13.8807 26.3783 13.8807H23.624C23.4905 13.8807 23.3692 13.8321 23.2721 13.7351C23.175 13.638 23.1265 13.5167 23.1265 13.3832V10.6289C23.1265 10.4954 23.175 10.3741 23.2721 10.277C23.3692 10.1799 23.4905 10.1314 23.624 10.1314H26.3783C26.5117 10.1314 26.6452 10.1799 26.7302 10.277C26.8272 10.3741 26.8758 10.4954 26.8758 10.6289V13.3832Z" fill="white"/>
</svg>
