<svg width="80" height="24" viewBox="0 0 80 24" fill="none" xmlns="http://www.w3.org/2000/svg">
<mask id="mask0_803_2903" style="mask-type:luminance" maskUnits="userSpaceOnUse" x="0" y="0" width="80" height="24">
<path d="M79.6387 0H0.361298V23.9096H79.6387V0Z" fill="white"/>
</mask>
<g mask="url(#mask0_803_2903)">
<path d="M31.4346 11.602C32.0309 11.2633 32.5087 10.8416 32.8565 10.3444C33.2529 9.77826 33.4542 9.13162 33.4542 8.42356C33.4542 7.09791 32.9585 6.0632 31.982 5.34766C31.017 4.64041 29.6893 4.28223 28.0345 4.28223H22.0508V19.6377H28.2736C30.0163 19.6377 31.4117 19.2325 32.4206 18.4328C33.4376 17.6264 33.9539 16.497 33.9539 15.0755C33.9539 14.2101 33.7111 13.4655 33.2329 12.8629C32.8039 12.3241 32.1998 11.9004 31.4349 11.602H31.4346ZM25.2889 7.04975H27.7742C28.5537 7.04975 29.1422 7.20083 29.5245 7.49801C29.9022 7.79144 30.0857 8.17702 30.0857 8.67632C30.0857 9.17561 29.9022 9.5807 29.5245 9.87539C29.1422 10.1726 28.5537 10.3236 27.7742 10.3236H25.2889V7.04975ZM29.9678 16.3497C29.5369 16.695 28.8792 16.8697 28.013 16.8697H25.2889V13.1119H28.013C28.8787 13.1119 29.5374 13.2808 29.9699 13.6125C30.3986 13.9432 30.607 14.3799 30.607 14.9489C30.607 15.5474 30.3978 16.0055 29.9678 16.35V16.3497Z" fill="white"/>
<path d="M38.3285 8.15527H35.0687V19.6371H38.3285V8.15527Z" fill="white"/>
<path d="M70.5244 9.8817C70.0085 9.26742 69.3619 8.78597 68.6024 8.4502C67.8437 8.11485 66.9904 7.94385 66.0673 7.94385C64.9358 7.94385 63.9153 8.20076 63.0329 8.70711C62.1484 9.21514 61.4466 9.9207 60.9461 10.8056C60.4455 11.6896 60.1919 12.7156 60.1919 13.8541C60.1919 14.9926 60.4381 16.0862 60.9232 16.9839C61.4097 17.8846 62.109 18.591 63.0014 19.0854C63.8921 19.5767 64.9383 19.8261 66.1109 19.8261C67.5503 19.8261 68.7721 19.4643 69.7434 18.75C70.6788 18.0627 71.3222 17.0931 71.6726 15.8795H68.3908C68.2181 16.2924 67.9749 16.644 67.6266 16.8918C67.2149 17.184 66.6832 17.3322 66.0457 17.3322C65.493 17.3322 65.0193 17.1978 64.6379 16.933C64.2549 16.668 63.9622 16.2768 63.7701 15.7683C63.6547 15.4661 63.573 15.1187 63.5248 14.7323H71.7299L71.746 14.6302C71.8924 13.7043 71.8556 12.8269 71.6348 12.0225C71.4135 11.2161 71.04 10.496 70.5244 9.8817ZM63.5767 12.6065C63.6268 12.3728 63.6945 12.1296 63.7804 11.908C63.9805 11.3929 64.2693 10.9965 64.6395 10.7317C65.0082 10.4669 65.4668 10.3333 66.003 10.3333C66.675 10.3333 67.2265 10.5512 67.6424 10.9799C68.0366 11.3879 68.2604 11.9453 68.3081 12.6065H63.577H63.5767Z" fill="white"/>
<path d="M38.3951 4.28174H34.9992V7.04926H38.3951V4.28174Z" fill="white"/>
<path d="M56.2472 9.45752C55.8617 8.99434 55.4097 8.63531 54.9 8.38712C54.2916 8.09285 53.5797 7.94385 52.7841 7.94385C51.81 7.94385 50.9367 8.18416 50.1896 8.65731C49.4435 9.13005 48.8515 9.79827 48.4311 10.6421C48.0123 11.4838 47.7994 12.472 47.7994 13.5806C47.7994 14.6892 48.0231 15.6193 48.4647 16.4668C48.9071 17.3173 49.5206 17.9946 50.2876 18.4811C51.0563 18.9686 51.9328 19.2161 52.8933 19.2161C53.6184 19.2161 54.2808 19.0592 54.8609 18.7491C55.3204 18.5038 55.7051 18.1793 56.0086 17.7829V19.0331C56.0086 19.8079 55.8048 20.4028 55.4043 20.799C55.0025 21.1954 54.3916 21.3954 53.588 21.3954C52.8957 21.3954 52.3512 21.2386 51.9701 20.9286C51.6584 20.675 51.3862 20.3421 51.3227 19.6374H48.18C48.2091 20.6236 48.4988 21.288 48.9076 21.8703C49.3662 22.5228 50.0113 23.0328 50.8263 23.3853C51.6337 23.7335 52.5703 23.9102 53.61 23.9102C55.3554 23.9102 56.7449 23.4715 57.7389 22.6074C58.7392 21.7382 59.2463 20.5214 59.2463 18.9911V8.15469H56.2472V9.45752ZM55.6732 15.1059C55.4665 15.5325 55.1748 15.8671 54.8049 16.0987C54.4356 16.3302 53.9898 16.4482 53.4793 16.4482C52.7414 16.4482 52.1677 16.197 51.7245 15.6799C51.2829 15.1656 51.0592 14.4592 51.0592 13.5802C51.0592 12.7011 51.2829 11.9947 51.7245 11.4796C52.162 10.9695 52.7525 10.7114 53.4793 10.7114C54.206 10.7114 54.8481 10.9733 55.2996 11.4912C55.7555 12.0134 55.9866 12.7235 55.9866 13.6005C55.9866 14.1687 55.8812 14.6746 55.6732 15.1055V15.1059Z" fill="white"/>
<path d="M79.639 10.9013V8.15535H77.2861V4.28174H74.048V8.15535H72.0383V10.9013H74.048V15.3962C74.048 17.8953 74.5402 19.7318 77.6086 19.675L79.5348 19.6372V17.0626H78.579C77.2152 17.0626 77.2912 16.2675 77.2912 14.7907L77.2858 10.9013H79.6386H79.639Z" fill="white"/>
<path d="M47.0074 10.9013V8.15535H44.6545V4.28174H41.4163V8.15535H39.4067V10.9013H41.4163V15.3962C41.4163 17.8953 41.9086 19.7318 44.977 19.675L46.9032 19.6372V17.0626H45.9474C44.5836 17.0626 44.6594 16.2675 44.6594 14.7907L44.6542 10.9013H47.0069H47.0074Z" fill="white"/>
<path d="M8.48851 7.04972H13.3781L18.3804 12.0199C18.7057 12.3432 18.7074 12.8691 18.3836 13.1941L11.9687 19.6413H6.93167L8.45448 18.1609L14.0456 12.6051L8.52544 7.04932" fill="white"/>
<path d="M10.4982 12.5926H5.60852L0.606386 7.62238C0.28099 7.29907 0.27933 6.7732 0.603066 6.44821L7.018 0.000488281H12.055L10.5322 1.48095L4.94112 7.03675L10.4612 12.5926" fill="white"/>
</g>
</svg>
