<svg width="150" height="48" viewBox="0 0 150 48" fill="none" xmlns="http://www.w3.org/2000/svg">
<g clip-path="url(#clip0_803_2801)">
<path d="M88.0646 29.5462V13.7646H91.2369V29.5462H88.0646Z" fill="white"/>
<path d="M51.0943 34.2342H44.2938V18.4526H50.8211C53.9934 18.4526 55.8414 20.1821 55.8414 22.8856C55.8414 24.6362 54.6541 25.7678 53.8325 26.1447C54.8137 26.5873 56.0687 27.5847 56.0687 29.6911C56.0687 32.6382 53.9934 34.2342 51.0943 34.2342ZM50.5698 21.2014H47.466V24.8367H50.5691C51.9153 24.8367 52.6684 24.1054 52.6684 23.0183C52.6684 21.9334 51.916 21.2014 50.5698 21.2014ZM50.7745 27.6073H47.4667V31.4869H50.776C52.2139 31.4869 52.8972 30.6003 52.8972 29.5358C52.8972 28.472 52.2124 27.6073 50.776 27.6073H50.7745ZM65.7444 27.7626V34.2342H62.5947V27.7626L57.7106 18.4526H61.1568L64.1921 24.8141L67.1816 18.4526H70.627L65.7444 27.7626ZM79.6208 34.2342H72.8202V18.4526H79.3469C82.5192 18.4526 84.3679 20.1821 84.3679 22.8856C84.3679 24.6362 83.1806 25.7678 82.3589 26.1447C83.3401 26.5873 84.5952 27.5847 84.5952 29.6911C84.5952 32.6382 82.5199 34.2342 79.6208 34.2342ZM79.0963 21.2014H75.9925V24.8367H79.0963C80.4424 24.8367 81.1956 24.1054 81.1956 23.0183C81.1956 21.9334 80.4424 21.2014 79.0963 21.2014ZM79.301 27.6073H75.9918V31.4869H79.301C80.7396 31.4869 81.4229 30.6003 81.4229 29.5358C81.4229 28.472 80.7396 27.6073 79.301 27.6073ZM101.461 21.2021V34.2356H98.2887V21.2014H94.0449V18.4526H105.706V21.2014L101.461 21.2021Z" fill="white"/>
</g>
<defs>
<clipPath id="clip0_803_2801">
<rect width="61.4125" height="24" fill="white" transform="translate(44.2938 12)"/>
</clipPath>
</defs>
</svg>
